<svg xmlns="http://www.w3.org/2000/svg" viewBox="0 0 890.55 838.08"><defs><style>.cls-1{fill:#a7622f;}.cls-2{fill:#096f3c;}.cls-3{fill:#010000;}</style></defs><g id="Layer_2" data-name="Layer 2"><g id="Layer_1-2" data-name="Layer 1"><path class="cls-1" d="M156.47,432.59c-.18-31.15,3.42-61.91,14.23-91.59C197,268.8,243.19,213.78,311.46,177.8,339.4,163.08,369,153,400.38,149.39c68.33-7.91,132.31,4.32,190.17,43.09q77.91,52.19,114.38,138.57c15.17,36,21.05,73.53,20.1,112.63-1.16,48-13.54,92.66-36.7,134.45A281.39,281.39,0,0,1,587.49,683.32c-28.36,17.36-58.81,29.67-91.52,36-25.54,4.94-51.37,4.41-77.19,3.23-24.91-1.13-49.41-4.8-72.85-13.63-45-17-84.16-42.78-116.23-78.87a295.29,295.29,0,0,1-65.62-122C157.52,483.35,155.64,458.22,156.47,432.59Zm562.38,4.05c-.81-16.16-.77-32.22-3.93-47.95-11-54.85-35.25-103.19-73.42-144.11-61.84-66.28-138.38-96.64-228.73-89.73-42.09,3.22-81.16,17.65-117.11,39.9-47,29.06-82.83,68.24-105.91,118.55-26.13,57-35.88,116.21-22.09,178.11,23.1,103.61,84,174.66,183.91,211.53,45.22,16.69,92,18.19,138.91,10.36,42.92-7.16,82-24.85,116.18-51.62C679.64,604.58,716.48,529.06,718.85,436.64Z"/><path class="cls-1" d="M890.52,424.21a442.86,442.86,0,0,1-14.18,115.11c-5.55,21.76-12.39,43.13-21.85,63.57a53.89,53.89,0,0,1-4.39,7.81c-1.31,1.89-2.32,5.08-5.6,3.65s-6-3.52-6.19-7.58c-.22-4.53,2-8.4,3.54-12.37,10.74-27.1,19.55-54.78,25.4-83.36,7.35-36,8.55-72.32,7.49-108.88-1.18-40.58-8.78-79.89-21.68-118.33-24.34-72.52-65.39-134-121.5-185.7C697.51,66.75,659.1,42,617,22.92c-7.41-3.37-15.2-5.9-22.2-10.18-3.43-2.09-6.11-4.54-3.9-8.84C593-.2,596.65-.66,600.76.66c23.87,7.7,46,19.12,67.54,31.78C697.17,49.43,724.2,69,748.66,92c20.66,19.41,38.65,41.16,55.58,63.81,30.9,41.34,52.85,87.16,67.57,136.47a455.7,455.7,0,0,1,17,89.54C890.07,395.94,890.4,410.05,890.52,424.21Z"/><path class="cls-1" d="M29.05,331.25C28,337,27,342.71,25.78,348.39c-9.63,43.89-12.37,88.24-9.43,133a413.14,413.14,0,0,0,8.7,62.72A427.87,427.87,0,0,0,55.67,634c31.75,67.46,77.23,123.7,137,168.26,10.66,7.94,21.64,15.44,32.49,23.13,1.93,1.37,3.79,2.87,4.31,5.27.88,4.06-2.72,7.75-7.13,7.37-6.11-.53-10.73-4.41-15.58-7.49-45.77-29.13-84.47-65.94-117-109.25A451.47,451.47,0,0,1,29.33,612.21,428.69,428.69,0,0,1,6.25,525.65,509.6,509.6,0,0,1,1.62,405.16c1.94-24.86,5.22-49.6,13-73.48.57-1.73,1.24-3.44,2-5.11,1.32-3,3.4-5.16,6.94-4.27,3.38.85,5.47,3.06,5.19,6.88,0,.67,0,1.34,0,2Z"/><path class="cls-2" d="M796,430.57c-.26,81.48-20.13,148.4-61,208.74C707.4,680,673.57,714.58,631.9,741.08a38.59,38.59,0,0,1-10.31,5c-3.63,1-6.66.35-8.58-3.11s-.58-6.08,2.1-8.38c7.34-6.31,15.63-11.32,23.4-17,61.23-44.95,102.74-104,126.24-176,13-39.77,17.71-80.64,15.46-122.25s-11.33-81.73-28.3-119.94c-2.84-6.39-5.2-13-7.75-19.49-1.49-3.78-.82-6.84,3-8.85,4.06-2.13,7-.63,9.42,2.78,4.22,6.05,7.15,12.78,10,19.53C786.24,340,796.44,388.51,796,430.57Z"/><path class="cls-2" d="M131.91,270.05c5.61-.11,9.12,4.55,7.24,9.55-4.05,10.75-8.49,21.34-12.75,32C106.19,362.24,99.19,414.86,103.92,469c6,68.41,31.38,129.37,73.13,183.57,22.13,28.72,49,52.56,78.9,73,4.12,2.81,8,5.93,12,9,2.91,2.28,4.35,5.09,2.22,8.7s-5.19,4-8.68,2.86c-6.45-2-11.83-6-17.32-9.79-41.35-28.15-74.79-63.92-101.72-105.93A343.61,343.61,0,0,1,92.46,499.67C83.12,443.36,86.27,387.8,102.4,333,108.1,313.7,115,294.75,124.62,277,126.36,273.73,128.3,270.53,131.91,270.05Z"/><path class="cls-1" d="M462,79.07c.75-8.7,1.59-18.32,2.41-27.94.19-2.19.06-4.37,3.43-4.19s2.91,2.53,2.76,4.61c-.81,11.13-1.51,22.27-2.65,33.37-.41,4,0,5.9,4.69,6.39,7.4.78,14.86,1.34,22.11,3.46,3.37,1,5.79-.22,6.34-4.58.82-6.58,2.37-13.07,3.72-19.58.39-1.87.54-4.19,3.7-3.24,2.37.72,3.07,1.83,2.53,4.36-1.42,6.66-2.28,13.45-3.85,20.08-1,4,.64,5.19,4.12,5.34.66,0,1.33,0,2,0,3-.18,6.44,2.92,8.81.45,1.88-2,2.1-5.5,3.06-8.33.91-2.68,1.9-5.34,2.7-8,.71-2.42,2.16-2.54,4.21-1.84s2.44,1.82,1.79,3.8c-1.44,4.42-2.81,8.88-4.06,13.36-.54,2-2.81,4.53,1.19,5.52,3.5.87,7.56,3.75,9.83-1.65,2-4.89,3.67-10,5.45-15,.78-2.18,1.05-4.66,4.6-3.63s2,3.38,1.51,5.19c-1.5,5.1-3,10.22-5,15.14-1.25,3.09-.51,4.72,2.37,5.8.63.23,1.25.47,1.87.72,6.37,2.52,6.37,2.52,8.4-4.23A106,106,0,0,0,564,88c.27-2.08.17-4.45,3.59-4s3.29,2.91,2.78,5.19c-1.35,6.16-2.72,12.35-4.55,18.38-1.1,3.61-1.25,6.12,3.17,6.91a4.83,4.83,0,0,1,1.39.54c8.1,4.18,8.1,4.19,11.86-4,4.08-8.93,8.18-17.85,12.23-26.79,1-2.28,2-4.24,5.16-2.9s1.68,3.51.85,5.33c-5.63,12.43-11.38,24.8-17,37.23-1.17,2.57-2.54,3.82-5.29,2.14-11.31-6.92-24-11-36.37-14.91-12.19-3.88-24.7-7.57-37.67-9.24-13.48-1.75-26.87-4.31-40.42-5.68-2.69-.28-2.79-1.7-2.64-3.72C461.42,88.3,461.66,84.15,462,79.07Z"/><path class="cls-1" d="M180.67,174.45c.74-4.36,1-7.87,2-11.15,4.18-14.17,18.23-17.91,28.76-7.7,3.34,3.24,6.33,6.84,9.66,10.08,2.16,2.09,2.23,3.61-.09,5.65-4.25,3.73-8.19,7.81-12.43,11.56a307.36,307.36,0,0,0-36,37.35c-7.14,8.85-13.17,9-22.24,2-3-2.38-5.89-5-7.73-8.39a10.56,10.56,0,0,1,.61-11.38c3-4.39,6.49-8.44,9.71-12.68,1.77-2.33,3.45-1.87,5.42-.22,5.24,4.38,10.62,8.58,15.82,13,2.37,2,3.91,2,6.11-.48,8.35-9.36,8.44-9.28-.21-18.59-2.94-3.17-5.79-6.43-8.83-9.52-1.74-1.77-1.36-2.94.34-4.47s3-1.84,4.56.05C177.38,171.05,178.79,172.43,180.67,174.45Zm6.07.29c0,1.5-.1,3,0,4.49.32,3.93,3.38,6.19,6.07,8.08,2.5,1.74,3.75-1.79,5.42-3.08,2.63-2,5-4.42,7.44-6.63,10.39-9.26,10.35-10.43-.75-19.06-4.6-3.58-8.65-3.37-12.93.6C187.44,163.4,187,169,186.74,174.74Zm-31,22.06c-2.1.13-8.14,8.5-8,11.35a7.22,7.22,0,0,0,1,3.25c6.57,11.09,15,11.61,22.57,1.46.29-.4.78-.71.93-1.15s.41-1.5.13-1.77a132.37,132.37,0,0,0-16.14-13.08C156.12,196.78,155.92,196.82,155.76,196.8Z"/><path class="cls-1" d="M291.54,73.76c1.66-.4,2.06,1,2.56,2.23,5.48,13.21,10.91,26.43,16.43,39.61,1,2.39.39,3.59-2,4.53-4.17,1.65-8.2,3.63-12.34,5.37-2.7,1.14-3.53,2.53-2.65,5.71,2,7.28-1.17,13.56-7.44,16-1.19.45-2.57,1.36-3.39-.5-.66-1.49-1.4-2.86.24-4.48,5.93-5.85,6-5.95,2.51-13.48-4-8.76-8.28-17.42-12.36-26.16-.74-1.59-2.63-3.32.55-4.85,2.88-1.39,4.2-.45,5.4,2.09,2.84,6,5.91,11.92,8.72,17.94,1.43,3.07,3.15,3.59,6.29,2.2,9.22-4.05,9.32-3.94,5.69-13.13s-7.38-18.53-11.18-27.75C287.29,76,288.06,74.29,291.54,73.76Z"/><path class="cls-1" d="M380.68,102.39c.2,7.66-2.29,11.21-8.3,13.91-4.38,2-9.07,1.94-13.68,2.38-1.69.16-2.88-.44-3-2.45s1-2.65,2.66-2.93c2.78-.47,5.57-.9,8.35-1.39a10,10,0,0,0,6.34-3.63c1.42-1.81,2.16-4,1-6s-3-.6-4.52-.28c-14.44,3.1-20,.39-22.29-16.29-1.46-10.41,1-14.27,11.11-16.83,3.86-1,7.75-1.81,11.64-2.66,1.93-.41,3.52-.36,4,2.22C376.4,80.29,379.32,92.05,380.68,102.39ZM361.84,97.1c2-.34,3.89-.81,5.85-1,4.11-.37,5.36-2.19,4.13-6.27a109.46,109.46,0,0,1-3-13.55c-.48-2.9-1.88-3.6-4.44-2.93-1.92.5-3.81,1.12-5.75,1.51-5,1-6.3,4.42-5.67,8.87A65,65,0,0,0,354.9,92C355.86,95.39,358,97.38,361.84,97.1Z"/><path class="cls-1" d="M208.11,119.8c2.37.17,3,1.89,4,3.16,6.65,9,13.34,17.88,19.77,27,2.23,3.17,4.07,3.49,7.23,1.28,6.28-4.38,12.7-8.58,19.28-12.48,3.48-2.06,3.58-4.08,1.67-7.23-3.46-5.69-6.54-11.6-10-17.26-1.35-2.18-1.43-3.38.88-4.8s3.43-.72,4.66,1.42Q262.48,123,269.67,135c1.33,2.23.93,3.49-1.31,4.74a336.86,336.86,0,0,0-31.91,20.53c-2.19,1.57-3.51,1.74-5.23-.64-8.22-11.32-16.6-22.51-24.85-33.81-.79-1.08-2.41-2.3-1.18-3.89A12.43,12.43,0,0,1,208.11,119.8Z"/><path class="cls-1" d="M700.78,236.14a12.87,12.87,0,0,1-8.92-3c-3.92-3-6.44-7.15-9-11.24-.9-1.43-1.12-2.81.68-3.79,1.63-.89,3.14-1.09,4.29.79a38.73,38.73,0,0,0,5.9,8c1.7,1.65,3.47,3.16,6,3,1.89-.09,3.84-.54,4.89-2.09,1.25-1.86-.78-3-1.75-4.14-9.8-11.51-9.73-18.81,5.86-28.88,6.83-4.41,11.63-3.63,17.26,2.47,3.6,3.91,9,7.92,9.56,12.38.57,4.7-6.63,6.93-10.37,10.25-5.47,4.86-11.42,9.17-17.21,13.65C705.87,235.26,703.49,236.45,700.78,236.14Zm15.12-37.32c-3.42.55-6.33,3.06-9.17,5.58-5.61,5-3.81,14.87,3.14,18a2.3,2.3,0,0,0,2.67-.56c4.46-3.7,8.92-7.39,13.35-11.13a2.72,2.72,0,0,0,1.36-2.47C726.93,205.6,719.06,198.72,715.9,198.82Z"/><path class="cls-1" d="M661.09,142.22a15.17,15.17,0,0,1-2.26,7.55c-3.19,4.85-6.45,9.67-9.54,14.58-1.37,2.16-2.68,2.52-4.84,1q-11.64-8.13-23.43-16.05c-2-1.34-2.63-2.62-1.1-4.85,3.83-5.63,7.39-11.45,12.34-16.22,3.65-3.51,7.76-4.7,12.76-3.12C653.81,127.9,661.17,135.56,661.09,142.22Zm-20-11.51c-3.31-.07-5.22,3.13-7.43,5.73-7.67,9-7.64,9,1.73,15.61,10.66,7.51,10.66,7.51,17.07-4.13C656.77,140.13,650.92,130.61,641.11,130.71Z"/><path class="cls-1" d="M431.21,95c-6.14.06-12.33.91-18.4-.65-6.7-1.73-10.28-6-10.4-12.78a88.26,88.26,0,0,1,.56-9.46c.2-2.15.83-3.8,3.75-3.27,2.54.47,2.68,1.93,2.57,3.95-.86,15.47-.3,16.08,15.09,16.38,4.16.09,8.33-.16,12.48.08,4.43.26,6.26-1.15,5.87-5.93-.5-6.29-.3-12.64-.33-19,0-2.17-.11-4.36,3.26-4.28,3.1.07,2.87,2,2.94,4.06.27,8.82.45,17.65.89,26.46.16,3.32-1.13,4.51-4.3,4.44C440.53,94.87,435.87,95,431.21,95Z"/><path class="cls-1" d="M674.32,208.81c-3.53.15-6.48-1.89-9.16-4.53-1.2-1.18-1.89-2.46-.41-3.82,1.26-1.17,2.53-1.78,4.41-.62,6.24,3.87,7.15,3.76,12.36-1.07,7.17-6.67,14.21-13.49,21.46-20.07,1.54-1.39,3.2-4.37,6.07-1.12,2.6,3-.1,4.19-1.58,5.6-7.68,7.34-15.47,14.58-23.24,21.82A13.58,13.58,0,0,1,674.32,208.81Z"/><path class="cls-1" d="M647,184.12a11.33,11.33,0,0,1-8.24-3.28c-1.11-1-2.45-2.08-1-3.73,1.1-1.25,2.35-2.71,4.19-1.2,4.88,4,8.53,1.81,11.93-2.18q9.87-11.59,19.8-23.16c1.35-1.57,2.53-3.76,5.22-1.57s1.4,3.88-.28,5.81q-10.83,12.44-21.55,25C654.46,182.77,651.21,184.08,647,184.12Z"/><path class="cls-1" d="M596.16,134.78c-2.18-1.07-4.76-1.61-2.79-5.29,6.76-12.61,13.33-25.31,19.82-38.05,1.13-2.21,2.17-2.51,4.23-1.38s2.58,2.27,1.46,4.4q-10.12,19.19-20.12,38.45C598.21,134,597.69,135,596.16,134.78Z"/><path class="cls-1" d="M309.67,66.9c2.06,0,2.74,1.25,3.27,2.77q7.14,20.19,14.35,40.36c.72,2,.07,3.23-1.84,3.84s-3.43,1-4.31-1.61Q314.2,91.47,307,70.77C306,67.88,307.74,67.29,309.67,66.9Z"/><path class="cls-1" d="M704.71,154c-.59.74-1.26,1.68-2,2.51q-14,14.92-28,29.84c-1.57,1.67-2.81,3.25-5.26,1.09s-1-3.67.59-5.31c9.47-10.06,18.91-20.15,28.42-30.18,1.06-1.13,2.19-2.87,4.15-1.36C703.56,151.36,704.7,152.16,704.71,154Z"/><path class="cls-1" d="M429.63,105c.25,2-.45,3-2.72,3-2.76.05-4-1.1-4-3.81,0-2,.65-3.08,2.85-3.13C428.5,101,429.78,102.18,429.63,105Z"/><path class="cls-1" d="M562.66,70.86c-.45,1.85-.66,4.2-3.35,4-1.42-.11-3.81-.1-3.51-2.45.25-1.94.32-4.67,3.49-4.44C561,68.09,562.64,68.53,562.66,70.86Z"/><path class="cls-1" d="M500.56,107c1.72,0,3.17.94,3,3.57-.1,2.05-.56,3.69-3.1,3.44-1.82-.17-4-.16-3.57-2.91C497.21,109.37,496.79,106.79,500.56,107Z"/><path class="cls-1" d="M553.68,67.68c-1.13,1.62-.45,4.58-3.41,4.31-1.66-.15-4-.25-3.73-2.9.2-1.88.27-4.3,3.16-4.16C551.5,65,553.36,65.34,553.68,67.68Z"/><path class="cls-1" d="M280.5,146.19a4.35,4.35,0,0,1-4.1,3c-2.67,0-3.22-2.84-3.34-4.67-.13-2,2.17-3,4-2.76C279.21,142.1,279.84,144.28,280.5,146.19Z"/><path class="cls-1" d="M665.26,124.17c-1.08,1.57-1.31,4.21-3.8,4-1.75-.14-3.9-1.45-3.72-3.36s1.35-4.51,3.91-4.27A4,4,0,0,1,665.26,124.17Z"/><path class="cls-1" d="M272.51,150.25a4.61,4.61,0,0,1-4,3.53c-2.72.2-3.6-2.38-3.71-4.35s2.22-3,3.89-3.09C271.24,146.16,271.17,149,272.51,150.25Z"/><path class="cls-1" d="M136.79,199.75c-1.66-1.13-4-2-3.85-4.19.11-1.66,1.55-3.79,3.59-3.4,1.76.33,4.12,1.46,3.85,3.83A4.67,4.67,0,0,1,136.79,199.75Z"/><path class="cls-1" d="M143.23,192.75c-1.95-1.09-4.27-1.91-4.37-4a3.59,3.59,0,0,1,3.72-3.78c1.75.1,3.75,1.32,3.92,3.24C146.7,190.38,144.65,191.46,143.23,192.75Z"/><path class="cls-1" d="M560.52,60.88c-.67,1.45-.29,4-2.75,3.92-1.6,0-3.84-.37-3.47-3,.24-1.77.27-3.9,2.89-3.69C558.79,58.18,560.57,58.46,560.52,60.88Z"/><path class="cls-1" d="M653.87,115c1.49,1.06,3.82,1.63,3.49,3.75-.28,1.78-1.12,4.33-3.47,4.09-1.68-.17-4.19-1.2-3.74-3.67A5.12,5.12,0,0,1,653.87,115Z"/><path class="cls-1" d="M179.17,154.4c-1.85-1.1-3.69-2.42-3.47-4.54.18-1.75,1.8-3.72,3.63-3.36,2,.39,4,2.22,3.76,4.5C182.88,152.71,180.94,153.79,179.17,154.4Z"/><path class="cls-1" d="M715.25,175.43c-2-.77-3.76-2.18-3.68-4.11a4.15,4.15,0,0,1,3.85-3.84,3.86,3.86,0,0,1,3.73,3.33C719.3,173.05,717.06,174.24,715.25,175.43Z"/><path class="cls-1" d="M514.19,504.37c-5.27-.64-9.59-3.16-14-5.31-48-23.31-99.1,8.94-105.4,58.48a75.37,75.37,0,0,0,60.61,83.72A67.86,67.86,0,0,0,497.3,636c5.39-2.47,10.8-4.89,16.22-7.33,1.14,2.27-.37,3-1.12,3.9-17.9,20.15-40.11,30.36-67.29,30.67-36.74.42-65-15.12-84-45.71-24.82-39.87-17.45-89.48,17.51-122.42,31.15-29.36,81.08-30.79,111.49-12.65A79.69,79.69,0,0,1,514.19,504.37Zm-35.67,145c-23.88.68-45.92-4.63-63.74-21s-25.86-37.46-26.18-61.61c-.33-24.62,8.85-44.58,27.14-61.28,18.51-16.89,40.32-21.54,65.16-20.31C461.3,472.4,410.33,470.4,377.57,505c-28.82,30.41-33.37,85.22-3.95,119.83C403.91,660.44,454.52,663.69,478.52,649.37Z"/><path class="cls-1" d="M296.06,487.21c2.07-7.3,3.93-14.67,6.29-21.88,2.31-7.05,5.12-13.93,8.15-22.08a23.28,23.28,0,0,1,2.65,16.21c-1.74,9.21-5.31,17.85-8.45,26.61-4.13,11.55-4.13,22.63,3.29,33,.92,1.28,1.69,3.52,3.68,2.59s.12-2.61-.06-3.94c-1.47-10.7-1.29-21.41-.74-33.14,3.24,2.92,3.88,6,4.76,8.87a105.79,105.79,0,0,1,4.71,25c.37,6.51.65,13,3.31,19.06.51,1.18,1.12,2.72-.22,3.68s-2.66,0-3.64-.81c-5.55-4.67-12.3-6.52-19.11-8.13a16.09,16.09,0,0,1-10.05-6.84C285,517,282,507.56,278.77,498c9.77,8.56,17,19.46,26.56,28.25,1.64-1.94.78-3.18.25-4.29-4.71-9.78-10-18.81-19.18-25.59-11.21-8.31-16.72-19.88-14.46-35.53,7.73,10.13,10.53,22.1,18,31.09,2-.88,1.59-2,1.33-2.86-3.05-10-6.52-19.89-13-28.43-5.22-6.9-10.58-13.83-11.17-23-.17-2.51-1.38-6.1,1.8-7,2.72-.79,4.05,2.62,5.08,4.69,3.1,6.21,5.81,12.61,9.12,19.93.86-6.81-1.28-11.95-3.28-17.07-2.65-6.8-6.18-13.27-7.77-20.5a28.3,28.3,0,0,1,.75-14.78c.38-1.22.69-3,2.11-3.15,1.76-.15,2.23,1.81,2.77,3.08,2.18,5.14,2.45,10.66,3,16.12.34,3.45.76,6.89,1.16,10.42,2.23-.41,1.49-1.86,1.54-2.79.54-9.91-1.19-19.53-3.47-29.13-1.89-8-3.4-16-.2-24.08.71-1.78,1.21-4.46,3.6-4.17s2.34,2.95,2.46,4.9c.49,7.81.84,15.63,1.36,23.44.07,1.09-.53,2.84,1.29,3.15,4.89.86,5,.84,6.08-2.17,3.13-8.77,6.13-17.59,9.31-26.35.44-1.21.46-3.5,2.54-3,1.44.36,1.17,2.22,1.19,3.53.22,10.47-3.35,19.9-7.88,29.09-3.46,7-7.87,13.54-10.21,21.08-1.71,5.53-3.12,11.1-2.34,17.53,2.71-1,3-3.07,3.62-4.81,3.44-9.18,6.17-18.66,10.89-27.32,1.18-2.15,2.09-6.09,5.08-5,2.14.8.88,4.5.39,6.87a103.41,103.41,0,0,1-13.61,34.11c-4.05,6.51-6.09,13.41-3.39,22.08,1.85-3.22,1.94-5.87,2.42-8.4a42.55,42.55,0,0,1,10.71-21.62c1-1.05,2.11-2.74,3.67-1.91s.91,2.77.64,4.13c-1.6,8.06-5.11,15.47-8.43,22.89C295.4,469.66,292.8,477.88,296.06,487.21Z"/><path class="cls-1" d="M487.71,285.7c-1.69,3-2.87,5.21-4.1,7.36-.63,1.11-2.09,2.23-1.11,3.49s2.5.2,3.8.19c1.63,0,3.18-1.14,5.11-.26-.73,3.17-4.12,4.63-5.37,8.46l17.86-1.82c-2.62,3.47-6.33,4.42-8.95,6.78-1.55,1.4-4.64,2.15-4.15,4.44.41,1.94,3.47,1.25,5.6,2-1,3.61-5.42,3.55-7.17,6.92l16.28,4-.09,1.28c-2.88.19-5.76.55-8.64.52a57.7,57.7,0,0,0-22.48,3.89,11.93,11.93,0,0,1-2.37.77c-1.31.24-2.82.58-3.55-.92s.52-2.41,1.63-3.16c2.34-1.59,4.68-3.19,7.06-4.71,2.77-1.78,3.63-4,2.42-7.23a49.88,49.88,0,0,0-19.73-25,16.45,16.45,0,0,0-9-2.69c-3,0-6-.13-9-.15-18.45-.11-32.66,10.75-37.77,28.51-1.16,4.05-.37,6.42,3.85,7.33.16,0,.32.1.48.15,10.2,3.28,10.14,3.23,2.52,10.7-3.41,3.34-7.26,5.13-12.07,4.87-7.82-.42-15.64-.62-23.44-1.21a11.33,11.33,0,0,0-9.49,3.24c-4.29,4.17-8.83,8.08-13.24,12.13-7.56,6.93-16.8,9.92-26.67,11.41a13.37,13.37,0,0,1-2.65-.15c.44-2.86,2.8-3.31,4.57-4.25,8.69-4.6,17.48-9.06,25.08-15.36,2.62-2.17,7.86-4.66,5.54-8.09-2.56-3.79-7-.28-10,1.85-7.75,5.47-15.29,11.23-22.94,16.84a27.07,27.07,0,0,1-3.82,2.33c-1.05.53-2.26.88-3.05-.49a2.08,2.08,0,0,1,.88-3C329,350.84,336.67,342.79,346,337c3.27-2,7.14-1.55,10.75-1.56,10.32,0,20.63.22,30.84,2.2A28.87,28.87,0,0,0,407,334.7c1-.53,2.5-.83,2.35-2.21-.14-1.22-1.5-1.7-2.64-2-5.28-1.24-10.58-.52-15.88,0-3.88.39-7.68,1.72-12.32,1.3,3.47-2.2,6.35-4,9.2-5.87,1.55-1,2.3-2.35-.18-2.89-1.78-.38-2.86-1.18-2.8-2.84.06-1.94,1.84-2.07,3.32-2.31s3-.17,4.36-1.87c-4.8-4.75-11.73-5.88-17.05-9.62l0-1.45c4.13,0,8.25.06,12.37,0,1.6,0,3.71.69,4.66-.88,1.12-1.86-2-2.34-2-4.07.22-.21.44-.6.65-.6,2.09,0,5,1.71,6-.14,1.18-2.11-1.55-4.09-2.87-5.91-3.19-4.4-6.57-8.67-10.72-14.09,5.44,1.66,8.84,4.26,12.55,6.22,1.77.94,3.44,2.08,5.26,2.87,2.17,1,4.44,3.79,6.58,2.05,1.6-1.31-.91-3.86-1.2-5.94-.16-1.09-1.27-2.34-.25-3.27,1.39-1.29,2.37.45,3.46,1,2.35,1.09,4.58,4.88,6.6,3.47,2.29-1.59-.24-5.12-.57-7.8-.26-2.13-.78-4.22-1.45-7.7,3.21,3.49,6.46,5.09,8.33,8.41.95,1.7,2.48,4,4.39,3.68,2.37-.35,1.29-3.31,2-5a13.88,13.88,0,0,0,.58-2.81c.55,0,1-.06,1.17.1,5.8,4.6,6.18,4.4,7.52-3.18.6-3.35.57-6.88,2.5-11.15,1.8,5.66,3.25,10.34,4.81,15,.34,1,.21,2.59,1.68,2.75s1.8-1.28,2.56-2.1c.34-.36.47-.94.85-1.22,1.13-.86,1.62-3,3.35-2.5,1.51.44.94,2.3,1.15,3.55.25,1.46.09,3.32,1.77,3.79,1.9.52,3-1.1,3.91-2.51s1.85-3.16,2.88-4.67c.61-.89,1-2.53,2.42-2.06,1.64.53,1.13,2.22,1,3.48-.24,3-.6,6-.93,8.94-.31,2.69.26,4.48,3.46,3,2.87-1.3,4.51-.69,4.64,2.62.11,3,1.71,2.68,3.63,1.68C481,288.42,483.49,286.08,487.71,285.7Z"/><path class="cls-1" d="M430.68,447.05c-1.58,2.43,1,3.49,1.69,5.17.55,1.31,1.95,2.78.3,4s-3-.15-3.89-1.19c-2.94-3.4-5.61-7-8.48-10.48-1.67-2-3.4-4.07-6.36-5-.39,3.21,1.64,5.6,1.84,8.36.1,1.39,1.4,3.14-.52,4-1.69.72-2.73-1-3.59-2.09a30.51,30.51,0,0,1-5.56-12.16c-.23-1-.34-2-.64-2.92-.76-2.4-.69-6.39-4-5.75-2.31.44-.62,4-.57,6.22,0,1,.6,1.94-.53,3.12-3.12-1.76-4.1-4.89-4.67-8-1.31-7.17-1.52-14.6-5.86-21-.64-.93-1.13-2.67.55-3.45,1.27-.59,2.23.35,2.93,1.31,1.58,2.15,3.07,4.35,4.64,6.51,1.21,1.67,2.9,2.66,4.65,1.2,1.59-1.32,0-2.8-.77-3.87-2.56-3.49-5.31-6.84-8-10.25-2.05-2.64-1.49-4.75,1.05-6.83,4.06-3.33,9-3.66,13.73-3.63s5.73-2.05,5.69-6.25c-.12-12.32,0-24.65.16-37,.1-8.41,2.62-12,10.81-13.68,3.52-.74,4.71-2.5,5.37-5.48a47.65,47.65,0,0,1,1.7-6.25c2.54-6.85,9.55-8.18,14.58-2.86,2.92,3.09,3.86,6.92,4.08,11,.16,3,1.32,4.2,4.62,4.21,7.68,0,11.58,4,11.82,11.66.38,12,.77,24,.9,36,.05,4,.79,5.67,5.45,4.81,5.5-1,11.26-1.53,16.5,1.71,2.69,1.65,3.91.4,4.33-2.42a54.24,54.24,0,0,1,1.45-6.3,1.78,1.78,0,0,1,2.26-1.42c1,.25,1.08,1.16,1.15,2a23.94,23.94,0,0,1,.09,3.49c-.44,6.67-.85,13.17,3.39,19.18,1.74,2.46,1.71,6.05,1.37,9.24-.16,1.44-.21,3.33-1.95,3.7-1.92.41-2.25-1.56-2.92-2.81-1.07-2-1-4.55-3-6.14-1.69,1.21-1.35,3-1.4,4.57-.11,3.16.08,6.33-.1,9.48-.14,2.35.87,6.28-1.75,6.52-3.21.29-1.87-3.83-2.55-5.95-1.28-4-3.87-5.3-8-3-2.08,1.12-4.05,2.44-6.47,2.28-1.43-.09-3-.18-3.8-1.88s-.13-3.23,1.21-4.43c6.16-5.52,6.28-14.46,11.67-20.52,1.74-2-.52-2.73-2.4-2.69a32,32,0,0,0-14.74,4.25c-3.83,2.09-4.79,1.06-4.77-3,.08-15.15.21-30.32-.9-45.45-.26-3.57.14-8.23-4.89-8.42s-5.36,4.52-5.68,8c-.82,8.91-1.14,17.87-1.71,27.71-1.89-2.59-1.56-4.77-1.64-6.81-.44-10.65-.81-21.3-1.23-31.95a40.62,40.62,0,0,0-1.68-10.32c-.63-2.07-1.44-3.86-3.9-3.85a5,5,0,0,0-5.23,3.78,52.29,52.29,0,0,0-2,12.79c-.39,7.48-.78,15-1.24,22.45a11.91,11.91,0,0,1-1.37,5.08c-.47-5.45-.91-10.9-1.41-16.34a22,22,0,0,0-2.65-8.53,4.14,4.14,0,0,0-4.53-2.37c-2.08.3-2.59,1.8-3,3.49-1.24,5.07-.94,10.27-1.1,15.41-.37,11.65-.46,23.31-.74,35-.14,5.81-.81,6.22-6.48,4.69a27,27,0,0,0-9.37-1.08c-2.6.22-4.15,1.78-2.47,3.88,5.07,6.37,6.28,15.67,14.8,19.41,1.35.59,2.72,1.6,2.44,3.39s-2.08,2-3.45,2.38a26.73,26.73,0,0,0-5.13,1.63c4.07,1.83,8.28.49,12.39.69,1.84.09,4.51-1.1,5.25,1.33.82,2.73-2.12,3.25-3.81,4.46s-6.22.54-4.67,4.1c1.26,2.88,4.46.78,6.63-.18,4.65-2,9.25-4,14.34-1.47,1.17.58,2.81,1,2.65,2.57s-1.78,1.74-3.09,2.05c-2.6.62-5.58-.31-8.16,1.68,1.85,2.06,4.06,2.11,6.12,2.58s4.23.92,6.29,1.53c1.44.42,3.13,1.05,2.91,2.89-.24,2.13-2.23,1.65-3.6,1.62a24.09,24.09,0,0,1-11.43-2.91c.21.28-.76.57,0,.83Zm62.15-47.53c0-1.47.25-3-1.27-3.63s-2.53.4-3.27,1.55q-2.69,4.17-5.23,8.45c-.48.82-1.06,1.87-.33,2.76s1.92.55,2.76.13A12.83,12.83,0,0,0,492.83,399.52Z"/><path class="cls-1" d="M319.81,631.77c-6.25,2.09-9.55-1.39-11.78-7.61-5.35-14.9-16.7-25.43-27.38-36.4-3.95-4.06-7.87-8.15-11.67-12.33-2.2-2.42-4.38-4.67-4-8.65.26-2.75-2.43-4.86-4.88-5.81-4.93-1.9-7.72-5.47-9.66-10.1-.54-1.29-1.06-3.13-2.93-2.92-1.54.17-1.63,1.9-2.22,3-2.19,4.19-4.48,4.53-7.45.84-2.4-3-4.51-6.21-5.19-10.11-1.15-6.63.57-9.17,7.16-10.67,5.72-1.3,6.32-2.69,3.18-7.72a28.23,28.23,0,0,0-3.26-4.41,23.11,23.11,0,0,1-6.38-14.24c-.39-4.49-2.22-8.68-3.89-12.86-1.12-2.79-2.46-5.65-1.95-8.68.87-5.13-2.29-6.84-6.21-8-3.54-1-7.23-1.08-10.89-1.3-3.17-.2-6.3-.71-9-2.5a2.87,2.87,0,0,1-1.55-2.92c.31-1.48,1.67-1.41,2.83-1.38,7.32.18,14.68.34,21.79,2.27,4.92,1.35,7.39,4.63,8.54,9.87,2.12,9.73,4.27,19.58,10.65,27.76a7.88,7.88,0,0,1,1.53,4.15c.27,4.39,2.36,7.91,4.78,11.33,2.57,3.64,4.23,7.54,3.69,12.12a7.22,7.22,0,0,0,2.56,6.67c.85.75,1.91,1.85,1.94,2.82.2,6.74,4.79,10.22,9.59,13.68,1.17.85,2.66,2.06,2.9,3.31,2,10.43,10.5,15.49,17.61,21.5a123.12,123.12,0,0,1,24.91,29.06c1.94,3.1,4.07,6.09,6.17,9.09,2.33,3.33,5,6.21,9.35,6.9,1.33.22,3.47.58,3.14,2.46-.27,1.61-2.32,1.62-3.76,1.69C325.54,631.86,323,631.77,319.81,631.77Z"/><path class="cls-1" d="M452.72,538.26c3.1-.54,5.87.67,8.7,1.39,2.26.58,4.49,1.25,6.76,1.77,17.62,4,13.41,6.11,25.65-9.17,3.91-4.88,6.53-10.85,12.11-15.69,1,7.72.31,14.47.21,21.21-.08,4.81-2.25,10.36,0,14.22s8.6,3.42,13,5.19c3.55,1.42,7.26,2.44,10.8,3.89,1.55.63,4.2.7,4.11,2.85-.08,2-2.58,2.4-4.21,3-6.66,2.6-13.32,5.25-20.12,7.44-3.32,1.07-4.29,2.65-4.17,6.07.31,8.31,1.25,16.62.46,24.95-.12,1.28.19,3.14-1.07,3.61-1.74.64-2.45-1.32-3.33-2.43-4.25-5.34-8.62-10.6-12.57-16.16-3.19-4.46-6.72-5.65-12-3.75-6.4,2.31-13.06,3.92-19.62,5.77-1.21.34-2.72,1.21-3.62-.21-.68-1.06.32-2.25.91-3.2,3.89-6.2,7.57-12.57,11.88-18.47,2.66-3.65,2.41-6.4-.08-9.82-3.93-5.38-7.56-11-11.26-16.5C454.14,542.49,452.74,540.78,452.72,538.26Zm45.62,53.9,1.41-1.57c0-3.32.15-6.64,0-10-.34-6.51,2.08-10.69,8.78-12.35,2.72-.68,7.33-1.38,7.26-4s-4.75-2.88-7.47-3.82c-4.88-1.69-7.79-4.3-8.32-9.86-.41-4.3-.11-8.85-2.12-13.56-3.15,4-6,7.59-8.77,11.27-2.38,3.22-5.12,4-9.12,3s-8-2.54-12.5-1.88c.92,3.26,3.22,5.1,4.76,7.43,5.16,7.83,5.12,9.08-.07,17-1.64,2.49-4.15,4.53-5.21,9.15C480.52,576.3,491.5,577.22,498.34,592.16Z"/><path class="cls-1" d="M294.75,311.59c-2.77-.11-2.61-1.95-1.53-3,7.49-7.34,8-17.2,9.94-26.58,1.06-5.22,5-7.22,9.54-8.34,19.16-4.78,37-12.86,54.74-21.3,4.43-2.11,6.19-4.57,4.94-9.08-2.1-7.53,1.78-12.45,7.13-16.68,4.25-3.37,6.41-2.85,9.14,1.78,4.52,7.66,4.54,7.68,10.88,1.19,6.16-6.3,12.26-12.67,19.38-17.95,2.66-2,5.49-3.17,8.81-2.44,1.6.35,3.48.73,3.69,2.79a3.76,3.76,0,0,1-3,4.06c-2.38.71-4.87,1-7.29,1.56-5.2,1.21-6.32,3.11-4.95,8.21a34.31,34.31,0,0,1,1.45,5.79c.46,5.12-4.42,8.9-8.71,6.29-5.06-3.08-8.1-1.62-12.33,1.86-25.62,21.1-53.64,38.08-85.73,47.52-4.19,1.23-5.59,3.21-5.25,7.38.57,6.93-1,13-8.25,15.95C296.42,311,295.49,311.3,294.75,311.59Z"/><path class="cls-1" d="M343,545.51c-.87-1.68-1.75-3.4-3-5.77-2.58,4.19-4.63,8.08-7.2,11.59-3,4-6.95,4.56-12.65,1.65,6.7-1.78,8.34-6.31,9.59-11.51.89-3.73,3.88-6.62,6.73-9.14,3.62-3.22,4.08-5.63,0-9-5.17-4.3-8.55-10.14-11.61-16.1a21.25,21.25,0,0,1-2.35-11.58c.13-1.65,0-3.69,1.76-4.31s2.92,1.25,3.82,2.55A62.73,62.73,0,0,1,336.31,512c.75,2.53,1.26,5.18,3.78,7.28,1.34-3.12.57-5.92-.33-8.64-2.16-6.53-6-12.22-9.5-18-3.63-6-7.49-11.87-9.32-18.69-.89-3.29-2.21-7.81,1.54-9.49s5.52,2.69,7.31,5.3c4.59,6.69,6.56,14.48,8.77,22.16.94,3.26,1.59,6.65,4.28,10.87.77-7.67-1.9-13.3-2.81-19.17-.52-3.28-1.38-6.5-2-9.77-.41-2.1,0-4.1,1.92-5.27s4-.24,5.47,1.12c5.38,4.79,7.22,11,6.66,18-.44,5.54-2.59,10.63-4.39,15.81-2,5.69-3.44,11.49-3.16,17.58.05,1.07-.26,2.61,1.28,2.86,1.35.23,2-1,2.48-2.07,1.37-3.44,1.72-7.1,2.16-10.73a43.19,43.19,0,0,1,9.82-22.55c1.3-1.58,3-3.83,5.39-2.39,2,1.22,1.82,3.68,1.54,5.9-.91,7.13-4.15,13.32-7.94,19.21-6.28,9.78-13.59,19-14.27,31.37A2.78,2.78,0,0,1,343,545.51Z"/><path class="cls-1" d="M596.36,635.59c-1.79-10.14,2.75-18.81,6.1-27.7-.74-.27-1.11-.55-1.3-.46-5.25,2.61-5.59,2.4-5.31-3.54.12-2.66.22-5.33.52-8,.56-5.11,0-9.35-5.44-12-3.58-1.75-3.74-5.88,0-7.47,8.76-3.76,8.89-11,9.18-18.54.14-3.81.65-7.61,1.17-11.4.2-1.42.47-3.4,2.11-3.61,1.89-.25,1.95,1.89,2.53,3.17.83,1.81,1.5,3.7,2.37,5.49a4.19,4.19,0,0,0,5.42,2.32c2.51-.73,2-2.89,1.73-4.58-1.29-8.88-2.5-17.79-4.19-26.6-1.35-7,2.34-11.74,6.45-16.43.62-.71,1.44-1.68,2.53-1.07s.65,1.82.37,2.7c-1.46,4.61-2.71,9.22-2.69,14.14,0,4.4.82,7.22,6.43,6.93,6.18-.32,8.66,3.18,9.52,11.55.63,6.15-1.3,9.26-7.17,10.43-3.31.66-4.89,2.48-5.66,5.46-.42,1.61-.77,3.24-1.28,4.82-1.86,5.72-4,7.05-9.65,5.2-3.19-1-5-.37-5.28,2.86-.7,7-1.22,13.92-1.7,20.88-.08,1.25-.13,3,1.25,3.54,1.7.71,2.06-1.22,2.89-2.11,1-1.08,1.9-2.65,3.62-2.11s1.63,2.31,1.77,3.8c.68,7.45.06,14.61-4.2,21.11C604,621.14,600.19,628.32,596.36,635.59Z"/><path class="cls-1" d="M544,519.92c4.39-2.44,4.61-4.46,2-6.73a5.61,5.61,0,0,1-1.19-2.16c-1.92-4.7-1.56-5.21,3.63-5.58,1.6-.11,3.32.23,4.91-1.29a178.35,178.35,0,0,1-11.37-14.84c-1.73-2.49-1.61-4.14.67-5.87,4.11-3.11,8-6.55,12.4-9.22,2.74-1.67,3.5-3.5,3.37-6.44-.71-16-.39-32-2.2-47.91-.14-1.26-.85-2.83.78-3.54,1.8-.78,2.76.72,3.59,1.93,2.05,3,2.35,6.53,2.36,10.06,0,5.48,0,11,0,16.76,2.27-.66,2.62-2.56,3.09-4.15a119.35,119.35,0,0,0,4.79-21.9c1-9.56.65-10.09-9.1-11.46,2.06-3.75,5.56-5.71,8.88-7.59s3.1,1.08,3.16,3a152.91,152.91,0,0,1-4.44,41.1c-.73,3-1.54,6-2.33,9.14,2,.38,2.67-1.05,3.57-1.84,4.27-3.67,6.67-3,7.82,2.42.88,4.23,1.44,8.54,2.09,12.82.14.94.45,2.18-.57,2.71-1.31.69-2.12-.54-2.92-1.31-2.69-2.6-3.68-6.29-6.09-9.72-4.1,5.32-6.86,11.11-9.94,16.71-.94,1.71.32,2.82,1.25,4,3.69,4.51,7.51,8.92,11.07,13.53,2.38,3.07,5.6,5.95,3.62,10.64-.68,1.61.87,1.93,2,2.12a37,37,0,0,0,4.46.41c3.61.15,4.23,1.62,2.62,4.82-3.43,6.81-3.32,6.88,4.31,7.86,5.8.75,6.27,1.71,4.86,10-2.71-7.18-2.71-7.16-11.18-7.36C571.15,520.64,558.39,520.3,544,519.92ZM565,508c-3.84,0-7.35-.09-10.84,0-1.92.07-4.76-.91-5.53.92-1,2.37,1.06,4.64,2.59,6.61a6.39,6.39,0,0,0,5.33,2.28q8.49.08,17,0a8,8,0,0,0,7.3-4.4c1.68-2.84,1.83-4.52-2.2-4.65C574,508.61,569.35,508.22,565,508Zm-7.24-20.83c0,4.29,3.55,7.88,8.64,8.66,1,.15,2.11.47,2.81-.38s0-1.86-.5-2.69c-1.63-2.92-4-5.2-6.35-7.57-.86-.89-1.78-2.42-3.24-1.56C558,484.25,557.69,485.73,557.79,487.13Zm5.43,15.76a5.1,5.1,0,0,0-2.12-3.4c-3.34-1.84-5.77-4.23-6.8-8.09-.53-1.95-2.44-2.55-4.48-2.25-1.83.27-2.33,1.21-1.25,2.7a61.5,61.5,0,0,0,12.14,12.4C562.09,505.33,563.21,504.71,563.22,502.89ZM554,479.15c-1.6,2.18-5,2.52-3.87,5.88a1.75,1.75,0,0,0,2.6.59C555,484.14,555.34,482.1,554,479.15Zm17.32,22.3a1.88,1.88,0,0,0-2.11-1.43,2.35,2.35,0,0,0-2.53,2.39c-.12,1.31.74,1.7,1.86,1.49C569.89,503.66,571.06,503.14,571.34,501.45Z"/><path class="cls-1" d="M588.05,310c3.17,3.08,6.09,5.72,8.78,8.58,4.75,5,10.41,8.4,17.29,9.14,6.09.66,7.82,4.4,8.52,9.76,2.12,16.1,5.66,31.81,14.55,45.78a75.78,75.78,0,0,0,12.6,15.62,9.61,9.61,0,0,0,.61-1.61c.3-2.15-1.92-4.92.86-6.37,2.56-1.34,4.79.71,6.78,2.11,5.26,3.69,9.47,8.06,11.55,14.54,1.76,5.5,4.7,10.64,7.17,15.92a15.49,15.49,0,0,1,1.9,7.56c-7.94-6.56-12.47-14.6-18.21-21.61-.32.27-.67.42-.7.62-.34,1.89,2,4.38-.07,5.5-1.74.94-3.51-1.43-5-2.61-21.69-16.81-34.55-39.2-41.15-65.51-.28-1.13-.56-2.26-.83-3.39-2.71-11.28-2.7-11.34-13.84-13.09-4-.62-6.68-2.48-8.21-6.31C588.83,320.09,587.55,314.3,588.05,310Z"/><path class="cls-1" d="M239.05,425c-5.46-3.58-8.91-8.39-11.91-13.54-1.71-2.91.32-5.12,1.83-7.24,8.47-11.92,15.19-24.66,18.11-39.12,1.35-6.67,2.16-13.46,3.26-20.19.44-2.68,1.33-5,4-6.53,4.26-2.45,4.45-4.54.63-8-4.1-3.66-8.52-7-12-11.23-1.44-1.76-3.25-3.38-3-6.23,2.17-.49,3.35,1.08,4.64,2.2,2.25,2,4.39,4.08,6.64,6.06.72.64,1.59,1.46,2.63,1s.73-1.73.73-2.66c0-3.68-.18-7.32,2.76-10.27,2.14-2.15,3.89-2.38,6.36-.27,11.6,9.93,9.24,31.3-4.39,37.8-2.57,1.23-3.26,3.15-3.55,5.49-.65,5.29-1.45,10.57-1.72,15.88A74,74,0,0,1,241.07,407C237.36,412.4,233.76,418.08,239.05,425ZM265.9,323.12c0-.77,0-1.27,0-1.75-.26-2.82-1.4-5.95-4.23-5.79-3.61.19-1.75,3.78-2,6a4.13,4.13,0,0,0,.24,1.94c1,2.44.38,6.93,3.52,6.63C266.15,329.86,265.33,325.47,265.9,323.12Z"/><path class="cls-1" d="M595.15,497.56c-3.74-5.82-5-11.83-6.62-17.69-3.77-14-6-28.29-8-42.64-.21-1.49-.13-3.22-1.36-4.17-6.18-4.76-3-10.42-1.61-15.86.3-1.21,1-2.57,2.72-2.47s2.27,1.32,2.8,2.54c2.11,4.85,1.56,10.15,2.42,15.21.47,2.75.44,5.58,1.72,8.68,2.65-2.45,3.3-5.79,3.94-8.5,2-8.53,3.28-17.24,4.7-25.91,1.57-9.64-.6-12.36-11-13.18,3.9-5.48,9.17-8.44,14.54-11.15,1.48-.75,2.12.68,1.64,2-3.12,8.74-1,17.85-2,26.76-1.33,12.44-4.61,24.52-6.1,36.91-.48,3.91-1.23,7.83-.07,11.91,6.92-16.79,10.51-34.51,14.66-52.6,1.92,7.35,1,20.35-1.7,31.69-2.77,11.81-7.59,23.13-8.61,35.34-.43,5.14-.45,10.3-.76,15.45C596.39,492.14,596.94,494.53,595.15,497.56Z"/><path class="cls-1" d="M508.88,465.25c2.88-5.09,3.08-9.81,4.57-14.09,1-2.82,1-7.28,5.15-6.72s2.92,4.9,3.09,7.87a13.06,13.06,0,0,1-.49,5.42c-2.34,5.79-2.85,10.93,1.23,16.57,2.64,3.64,0,6.76-6.69,10.07-3.85,1.92-5.9-.89-6.53-3.21-2-7.46-7.68-8.38-13.92-9.51-8.76-1.58-14.67-8.25-14.84-15.75,0-1.82-.23-3.72,1.65-4.92,2.1-1.33,4-.29,5.5.91,4.82,3.75,9.51,7.69,14.85,12-.51-4.92-3.09-8.19-4.74-11.82-2.37-5.24-4.15-10.52-2.39-16.36a15.44,15.44,0,0,1,3.94-6.83c3.34-3.25,4.48-2.13,7.58,1.11,4.55,4.74,2.71,10.64,4.6,15.74.61,1.66-.8,2.6-1.52,3.88C507.32,454.25,506.93,459.12,508.88,465.25Z"/><path class="cls-1" d="M573.17,554q.66-6.07,1.33-12.14c.4-3.67,1-7.3,3.3-10.32,2.7-3.55,5.84-3.2,7.7.73,3.72,7.86,1.65,20.08-4.36,26.51A127,127,0,0,1,564.05,574c-3.24,2.41-6.68,4.4-10.81,4.75A6.08,6.08,0,0,0,549,581c-1.44,1.7-3.39,2.35-5.34,1.11s-1.22-3.31-.77-5c2.34-8.8,9.48-12.34,17.09-15.23a49.41,49.41,0,0,1,6.5-1.53c-5.71-5.91-11-11.82-12.29-20-.63-3.88-2.56-8.94,2.73-10.72,4.54-1.52,6.43,3.25,8.43,6.23,3.64,5.42,4.64,12,6.47,18.15Z"/><path class="cls-1" d="M534.68,450.91a116.24,116.24,0,0,0,8.61-25.33c.69-3.18-.64-4.68-3.72-5.06-1.79-.21-3.55-.59-6.73-1.13,4.94-3.67,9.11-6.5,13.77-8.41,2.59-1.05,2.12,1.38,1.93,2.66-.74,4.93-1.5,9.86-2.52,14.74a265.18,265.18,0,0,1-7.15,28.54c-.48,1.44-1.57,3-.51,5,3.36-1.84,3.87-5.7,6.12-8.18,1.3-1.44,2.21-3.75,4.58-3.28s2.53,2.95,2.94,4.82c1,4.54,2.12,9.1,1.67,13.82-.13,1.38.24,3.48-1.64,3.7-1.62.18-1.62-1.86-2.06-3-.7-1.86-1.07-3.85-1.75-5.72-.32-.87-.92-2-1.65-2.28-1.45-.46-1.93,1-2.32,2.06-1.94,5.13-3.75,10.31-5.7,15.44-.58,1.51-1,3.62-2.88,3.74-2.36.15-2.63-2.27-3.15-3.9-3.57-11.17-4.2-22.86-5.92-34.36-1.18-7.84-2.11-15.72-3.28-24.57,5.35,4.23,7.14,9.37,8.4,14.62S533.71,445.53,534.68,450.91Z"/><path class="cls-1" d="M451.4,443.46c5-8.27,13.57-7.56,21-9.86-3-3.49-7.37-1.84-10.77-4.15a24,24,0,0,1,11.89-5.23c4.71-.56,8.64-1.84,12.13-5.46.47,9.05-.17,17.7-4.52,25.71a2.42,2.42,0,0,1-2.88,1.47c-1.32-.43-1.49-1.71-1.48-2.89,0-2.59,1-5.16.25-8.14-3.91,2.53-5.69,6.06-6.55,10.25-.73,3.57-1.51,7.14-2.39,10.68-.38,1.56-1.48,2.87-3.2,2.43-2.26-.58-1.11-2.38-.83-3.71.43-2.08,1-4.12,1.7-6.88-4.77,2.08-7.28,5.93-10.82,8.41-2.17,1.52-4.25,3.2-6.51,4.57a2.72,2.72,0,0,1-3.66-.33c-.93-1.21-.3-2.54.63-3.61a77.5,77.5,0,0,1,9.89-9.1c1.3-1.07,3.9-2,2.78-4.08-.87-1.6-3,0-4.62.09A20.37,20.37,0,0,1,451.4,443.46Z"/><path class="cls-1" d="M314.55,419.91c3.45-10,3.16-20.57,4.05-30.94.12-1.4-.16-3.49,1.71-3.65s1.95,1.91,2.22,3.32c.73,3.93,1.41,7.86,2.07,11.8.42,2.51,1.13,4.86,3.33,6.46s4.95,2.58,7.5,1.6c2.38-.92,1.6-3.7,1.91-5.77.37-2.49-.9-6.69,2-6.91,3-.23,2.17,4.16,2.91,6.52a56.06,56.06,0,0,1,1.21,6.87c.17,1,.12,2.24,1.33,2.42,1.54.24,1.79-1.24,2.15-2.26,2.3-6.5,2.43-13.4,3.52-20.12a16.21,16.21,0,0,1,2.86-7.74c2.49,11.47.69,22.54,7,31.7-2.25.9-3.12.3-3.83-.34-3-2.76-5.47-1.74-8.26.67-6.15,5.35-6.25,5.24-12.84.86-7.75-5.15-7.75-5.15-14.86,1.07-1.86,1.63-3.56,3.48-5.9,4.47Z"/><path class="cls-1" d="M462.32,227.27c.56,3.1-1.3,5.36-1.69,7.94-.33,2.19-.77,4.37,1.59,5.77s4.76,1.05,6.9-.74c2.95-2.46,4.15-5.94,5.54-9.33,1.82-4.45,3.32-9.08,6.49-12.85.63-.74,1.33-1.66,2.49-1.2,1,.4.84,1.37.6,2.14-3.31,10.69-7.09,21.26-15.37,29.21-6,5.79-10.89,4.62-14-3-1.47-3.62-3.76-2.65-6-1.79-4.1,1.56-7.81,1.26-11.16-1.65-1.19-1-1.85-2.63.41-2.68,9-.21,15.38-5.62,21.95-10.73A12.34,12.34,0,0,1,462.32,227.27Z"/><path class="cls-1" d="M376.36,399c2.59,3.53,4.76,6.65,7.11,9.63,2.18,2.75,2.58,5.37-.18,7.87-3.75,3.38-3.44,6.8-.33,10.36a7.48,7.48,0,0,1,.92,1.18c1.32,2.35,5,4.34,3.7,6.89-1.12,2.15-4.91.82-7.49.76-4-.11-7.95-.55-11.91-1-1.11-.12-2.43-.45-2.55-1.92-.1-1.18,1-1.54,1.79-2.1,5.43-3.65,6.12-9.11,1.82-14.18-1.34,1.22-1.36,2.89-1.59,4.48a7.17,7.17,0,0,1-1.8,4.58,67.4,67.4,0,0,1-.07-14.4,3.18,3.18,0,0,1,2.78-3c1.81-.45,2.74-1.89,3.4-3.41.82-1.87,1.21-4.15-.08-5.71-1.52-1.83-2.39,1.94-4.25,1-.87-3.4.81-4.95,4-5.15a53.21,53.21,0,0,1,7.47,0c1.57.12,4.36-.56,3.67,2.44-.44,1.91-2,3.61-4.52,1.95C377.94,399.09,377.43,399.16,376.36,399Zm-4,12.84c.31,2.91,1,6.27,4.57,6.5,3,.19,4.56-2.64,4.34-5.54-.25-3.38-2.11-6.36-5.67-6.43C372.75,406.33,372.46,409.29,372.32,411.86ZM376.58,433c1.76-.39,4.63.34,4.55-2.45a5.35,5.35,0,0,0-4.88-4.91c-2.54-.17-3,2.82-3.37,4.77C372.3,433.34,374.91,432.59,376.58,433Z"/><path class="cls-1" d="M291.43,393.92c-3.82-9-3.44-18.28-2.34-27.5.86-7.13,2.66-14.05,7.49-19.74.76-.89,1.62-1.84,2.92-1.5s1.21,1.5,1.25,2.47C301.35,363.78,297.12,379,291.43,393.92Z"/><path class="cls-1" d="M643.24,457c4.4,3.64,7.88,7.52,9.68,12.67.62,1.79,1.24,3.92.39,5.35-3.91,6.52-2.65,13-.48,19.85-5.2-4.14-10.07-8.42-13.09-14.3a6.6,6.6,0,0,1,.1-6.31A22.35,22.35,0,0,0,643.24,457Z"/><path class="cls-1" d="M601.83,287.55c-1.25,3.7-3.11,4.21-5.15,4.52a38.08,38.08,0,0,1-12.91.05c-6.73-1.27-13.35-2.11-20.23-.93-4.09.7-10.69-4.43-11.9-8.38-.24-.79-.57-1.63,0-2.36a1.93,1.93,0,0,1,2.71-.29c9.55,6.77,20.67,4.91,31.29,5.93C590.85,286.58,595.7,289.47,601.83,287.55Z"/><path class="cls-1" d="M520.45,260.26c8.36-8.78,13.33-9.58,21.86-3.88,4.44,3,9.41,3.62,14.82,3.95-5.25,5.95-15.46,8.32-21.08,4.69C531.48,262.08,527.42,258.35,520.45,260.26Z"/><path class="cls-1" d="M633.33,488.27C636.27,502.91,639,517,646.56,530,632.05,524.38,625.6,504.13,633.33,488.27Z"/><path class="cls-1" d="M573.9,374.65a7,7,0,0,1-5.77-6.45c-.32-2.6.6-4.12,3.38-2.64,2.56,1.36,4.48,2,5.53-1.71.29-1,2.05-.93,3.17-.79,3.22.38,4.51-.93,4.57-4.17,0-1.92-.91-4.67,1.85-5.47,1.61-.46,5.11,5.94,4.61,8.11C590.25,365.9,579.09,374.69,573.9,374.65Z"/><path class="cls-1" d="M582.61,629.28c-.09,1.25.28,2.27-.87,2.49s-1.85-.65-2.47-1.4a100.35,100.35,0,0,1-9.21-13.52c-2.23-3.86-4.78-7.57-5.89-12-.41-1.64-.92-3.66.8-4.47,1.55-.72,2.55,1.17,3.38,2.31a109.65,109.65,0,0,1,13.29,23.23A26.18,26.18,0,0,1,582.61,629.28Z"/><path class="cls-1" d="M635.58,427.39c12.19,3.23,23.41,5.87,33.79,11.11,1.69.85,3.92,2.42,2.83,4.58-1,1.91-3.29.62-5,.19a125.4,125.4,0,0,1-25.34-10C639.77,432.16,637.44,431.12,635.58,427.39Z"/><path class="cls-1" d="M377,391.19c-1-4-1.74-7.54-2.66-11-.28-1-.4-2.55-1.79-2.69-1.14-.12-1.49,1.11-1.87,2-.52,1.22-.87,2.89-2.43,2.8-1.84-.11-2.08-2.09-2.3-3.43-.72-4.53-1.44-9.1-.37-13.85C376,371.13,380.09,380.23,377,391.19Z"/><path class="cls-1" d="M381.12,468.8c-2.46-15.71.95-23.34,18-22.52-3,8.18,5.8,4.12,7.78,7.59-4.78,1-9.22.19-13.61-1.38-5.44-1.94-7.9-.8-9.88,4.69a36.69,36.69,0,0,0-1.18,5.33C381.9,464.24,381.62,466,381.12,468.8Z"/><path class="cls-1" d="M315.51,578.68c-.16,1.86-1.43,2.66-2.75,3.39-1.84,1-3.71.84-4.95-.77-2.3-3-3.89-6.41-7.56-8.25-1.6-.81-1.53-2.95-.05-4.3,1.81-1.64,4.69-2,5.82-.27a32,32,0,0,0,8.9,9C315.26,577.73,315.35,578.34,315.51,578.68Z"/><path class="cls-1" d="M209.85,404.2c-2.78-.1-4.65-3.47-3.52-6.53,1-2.79,2.58-5.38,3.12-8.38a3.56,3.56,0,0,1,3.82-3.2c2.08,0,2.94,1.35,3.35,3.08s1.86,4.48-.55,5.33c-3.49,1.23-3.43,3.28-3.07,6.16C213.26,402.77,211.86,404,209.85,404.2Z"/><path class="cls-1" d="M534.31,405.33c0-1.55.08-3.17,2.24-3.08,2.88.12,3.66-1.54,3.84-4s.46-5.14,3.91-4c3.09,1,5.13,3.25,4.19,6.82a6.94,6.94,0,0,1-4.53,4.9c-1.12.39-2.2.64-2.83,1.77-.85,1.53-.57,4.55-3.66,3.34C535,410.09,534.39,407.78,534.31,405.33Z"/><path class="cls-1" d="M540.53,238.24c-3-2.08-7-2.26-11.22-2.38-2.07-.06-2.51-2.41-2.74-4.25a4.43,4.43,0,0,1,2.45-4.56c1.52-.87,3.42-1.24,4.54.37,2.06,3,4.77,3.64,8.15,3.53a3.48,3.48,0,0,1,3.88,4.12C545.37,237.59,543.44,238.16,540.53,238.24Z"/><path class="cls-1" d="M288.17,625.46c.77.1,1.42,0,1.73.25,3.81,3.4,7.68,6.76,11.28,10.38.88.88.37,2.62-.81,3.54a3.16,3.16,0,0,1-4.13,0c-3.71-2.94-6.44-7-11.1-8.92-1.3-.52-1-2.4-.55-3.64C285.23,625.27,287.12,626,288.17,625.46Z"/><path class="cls-1" d="M409.07,264.42c-3-.09-4.25-2.57-2.51-5,2.87-4,7.78-5.36,11.45-8.39,1.3-1.08,3.77.17,4.43,2,.87,2.49-.41,5.23-2.51,5.86a21.46,21.46,0,0,0-9.21,5C410.31,264.35,409.48,264.32,409.07,264.42Z"/><path class="cls-1" d="M665,484.15c.13-2.16.23-4.32.39-6.48s.55-4.18,3.4-3.8,3.86,2.71,3,4.74a11.6,11.6,0,0,0,.08,9.43c1,2.71-1.35,5.26-4.09,5.79s-2.66-2.39-2.93-4.2a37.07,37.07,0,0,1-.06-5.48Z"/><path class="cls-1" d="M338.47,371.47c2.17.12,4.34.16,6.48.4,1.38.15,3.4-.3,3.57,1.77.14,1.66-1.63,1.89-2.84,2.29a44.41,44.41,0,0,1-18.26,1.64c-1.43-.14-3.34-.36-3.47-2.2s1.68-2.18,3.14-2.59C330.82,371.76,334.66,371.76,338.47,371.47Z"/><path class="cls-1" d="M263,369.35c5.66-2.19,3.77-8,6-12,.66-1.2,2.38-1.1,3.57-.12,1.81,1.49,3.09,3.76,2,5.71-2,3.47-4,6.69-3.73,11,.11,1.81-1.95,2.09-3.48,1.87C263.94,375.28,264.34,372.24,263,369.35Z"/><path class="cls-1" d="M519.54,393c2.18,0,4.38.89,5.48-1.59.61-1.38,1-3,3-2.4s2.84,2.17,3.29,4c.4,1.59-.07,3.25-1.56,3.8-2.25.83-3.79,2.47-5.66,3.74a5.75,5.75,0,0,1-6.57.13c-1.83-1.28-2.31-3.63-2.25-5.76C515.42,391.37,518.32,393.65,519.54,393Z"/><path class="cls-1" d="M621.66,479.71c-3.06,0-5.22-3.14-3.53-5.5,1.9-2.63,1.57-4.74.19-7.25a3.73,3.73,0,0,1,1.14-5.26c2.08-1.49,3.85-.33,5.29,1.06s3.24,3,.71,5.32c-1.94,1.81-.49,4.4-.57,6.64C624.81,477.15,624.62,479.46,621.66,479.71Z"/><path class="cls-1" d="M501.28,223.88a57.31,57.31,0,0,1-6.84,18.47c-.64,1.06-1.44,2.69-3,2.06s-.78-2.4-.51-3.55a76.27,76.27,0,0,1,6.75-18.07c.53-1,1.33-2.23,2.58-1.94C501.79,221.2,501.22,222.72,501.28,223.88Z"/><path class="cls-1" d="M286.07,296.71c-6-.08-16.91-11.83-18.64-20C272.12,277.64,284,290.4,286.07,296.71Z"/><path class="cls-1" d="M560.21,393c3.67,1,5.41-.29,5.49-3.77a4.54,4.54,0,0,1,.14-1c.56-2-.05-4.5,2.56-5.46a2.34,2.34,0,0,1,2.63.92c1.82,2.11,1.85,4.53,1,7-1.52,4.25-6.5,7.52-11.28,7.53-2.55,0-5.15-.76-5-3.53C555.89,391.6,558.9,393.75,560.21,393Z"/><path class="cls-1" d="M604.64,308.36c-1.37,0-2.55.27-2.91-1s.65-1.81,1.46-2.35a56.14,56.14,0,0,1,17.95-8.3c1.53-.38,3.63-.63,4.18,1.5.44,1.71-1.13,2.61-2.49,3.29C616.89,304.49,610.84,307.16,604.64,308.36Z"/><path class="cls-1" d="M257.1,588.77c2.74.27,5.26.11,5.68,3.7.32,2.74,3.12,3.64,5,5.21,1.18,1,2.26,2.1,1.69,3.79s-2,2.07-3.52,2.34-2-.82-2.81-2c-2.16-3.31-6.31-5-7.63-9.13-.32-1-2.07-1.52-1.6-2.83C254.48,588.13,256.27,589.43,257.1,588.77Z"/><path class="cls-1" d="M214.91,493.92a6.22,6.22,0,0,1,4.53,5.17,13.94,13.94,0,0,0,2.58,7.3,3.31,3.31,0,0,1,.28,4.15c-1.13,1.52-2.81,1.59-4.5,1.21s-3.19-1.29-3.15-3.26c.07-3.41-.14-6.52-3.56-8.53-1.15-.67-.81-2.08-.11-3.11C211.91,495.49,212.85,494.1,214.91,493.92Z"/><path class="cls-1" d="M205.12,444c7.67.36,15.17,1.18,22.45,3.6,1.12.37,2.46.79,2.25,2.23C229.57,451.55,228,451,227,451a52.65,52.65,0,0,1-18.55-3.3C207,447.07,205.11,446.67,205.12,444Z"/><path class="cls-1" d="M598,372.13c-.22,5-3.2,8.24-7.24,10.58-2.11,1.22-4.35.86-5.32-1.75s-.63-4.8,2.75-4.93,2.8-2.64,3.3-4.62c.55-2.21-.33-5.78,3.49-5.36C598.35,366.41,597.52,369.75,598,372.13Z"/><path class="cls-1" d="M524.46,284c-3.29-1.78-7.54-3.51-11.06-6.2-1.76-1.34-1.44-4.53.7-6.16,2.34-1.79,4.25-.37,5,1.92,1.18,3.4,3.89,3.07,6.5,3.22,2.42.13,3.72,1.52,3.7,3.81C529.32,283.11,527.58,284,524.46,284Z"/><path class="cls-1" d="M548.88,550.75c3.24,0,8.29,4.24,8,7-.29,2.53-2.11,3.66-4.5,3.72-3.13.07-7.26-4-7.28-7A3.55,3.55,0,0,1,548.88,550.75Z"/><path class="cls-1" d="M533.78,411.74a3.69,3.69,0,0,1-2.3,3.4c-2.56,1.39-4.47-.11-6.23-1.58-2-1.67-4.18-3.39-3.74-6.49a2.1,2.1,0,0,1,1-1.5c3-.84,5.4.82,7.8,2.19C532,408.73,533.78,409.82,533.78,411.74Z"/><path class="cls-1" d="M496.56,362c4.3,1.89,9.27,2.15,13,5.29,1.24,1,2.77,2.26,1.93,4.13s-2.66,1.72-4.33,1.65c-4.09-.15-8.86-5.16-10.57-11Z"/><path class="cls-1" d="M540.61,386.42c-.27,2.55-.62,5.11-3.53,5.41-3.3.35-4.06-2.18-4.35-4.84a3,3,0,0,1,0-1c.61-2.49-1.11-6.89,2.55-6.87C538.57,379.16,540.11,383.1,540.61,386.42Z"/><path class="cls-1" d="M522.13,344.91c4.76,2.25,8.46,4,12.13,5.74,2.4,1.16,3.81,3.15,2.27,5.58s-3.67.9-5.16-.29A32.52,32.52,0,0,1,522.13,344.91Z"/><path class="cls-1" d="M552.25,338.11c4.11,1.12,7.46,1.86,10.68,2.95,2.05.7,4.15,1.93,2.89,4.7-1.09,2.4-3.14,2.69-5.41,1.75C556.41,345.86,553.71,343,552.25,338.11Z"/><path class="cls-1" d="M577.22,378.14l.61.12c4.07.89,7.57,4.64,7.17,7.67-.2,1.47-.81,2.79-2.47,2.32a11.81,11.81,0,0,1-7.89-7.54C574,379,574.71,377.77,577.22,378.14Z"/><path class="cls-1" d="M606.65,284c-2.84-1.28-5.6-2.14-6.86-5-.3-.67,6-6,6.9-5.81,1.56.27,3.62,1.74,3,2.63C607.89,278.31,609.57,282.08,606.65,284Z"/><path class="cls-1" d="M346.82,462.12c-.37-6.13-.65-11.84-1.09-17.55-.18-2.3.93-2.91,2.9-2.89a45.41,45.41,0,0,1,7.76.49C344.34,444.75,350,455.21,346.82,462.12Z"/><path class="cls-1" d="M525.26,372.38c.86-1.94-1.21-5.75,1.66-5.78,3.56,0,4.52,3.84,4.56,7.08,0,2.5-.72,5.87-3.53,5.61C523.82,378.92,526.15,374.83,525.26,372.38Z"/><path class="cls-1" d="M389.67,478.73c-5.29-2-10.81-1.54-16.16-2.2-1.05-.13-2.68-.11-2.63-1.66s1.7-1.55,2.71-1.56C379.51,473.28,385.34,473.71,389.67,478.73Z"/><path class="cls-1" d="M543.13,371.29a10.56,10.56,0,0,1,5.56,2c1.51,1.22,4.71,2,3.16,4.66-1.25,2.15-3.91,1.2-5.9.39a20.56,20.56,0,0,1-4.23-2.5c-1-.73-2.65-1.31-2-3C540.29,371.36,541.85,371.48,543.13,371.29Z"/><path class="cls-1" d="M628.68,415a5.86,5.86,0,0,1-4.59-5.77,3.31,3.31,0,0,1,3.9-3.53,5.28,5.28,0,0,1,5,5.26C633.07,413.29,631,414.61,628.68,415Z"/><path class="cls-1" d="M544.61,365.91c0,1.95-.75,3.39-2.82,3.18a8.87,8.87,0,0,1-7.78-6c-.77-2,1-2.43,2.59-2.54C539.92,360.38,544.44,363.39,544.61,365.91Z"/><path class="cls-1" d="M568.85,334.76c0-1.65-.06-2.65,0-3.64s.12-2.1,1.38-2.3c1-.15,1.5.69,1.91,1.37a13.86,13.86,0,0,1,2.41,7c0,2.08-.65,3.7-2.91,3.91-2.54.24-2.16-2.06-2.57-3.49A10.7,10.7,0,0,1,568.85,334.76Z"/><path class="cls-1" d="M280.68,541.5c-.05,3.18-1,4.76-3.57,4.51-3.16-.31-3.4-2.88-3.42-5.17,0-2,.57-4.57,3.12-4.15A4.76,4.76,0,0,1,280.68,541.5Z"/><path class="cls-1" d="M326.43,442.61c-1.55-3.7-1.34-7.49-1.28-11.26,0-2.51,0-5.28,3.08-6.1s6.12-.42,8.35,2.38c-.4.47-.66.92-.77.89-7-2.13-7.87-1.66-8.88,5.7C326.55,437,326.59,439.82,326.43,442.61Z"/><path class="cls-1" d="M510.68,379.87c3.13.5,5.79,1.74,5.87,5.72,0,1.8-.83,2.69-2.73,2.6-2.59-.12-7.21-4-7.06-6.07C506.92,379.71,508.87,380.09,510.68,379.87Z"/><path class="cls-1" d="M206.17,509c-2.37-.76-4.49-2.29-4.48-4.66s2.44-3.67,4.58-3.65a4,4,0,0,1,4.12,4.06C210.27,507,208.47,508.44,206.17,509Z"/><path class="cls-1" d="M348.38,227.33c1.89.41,4.12,1,3.83,3.49s-1.13,5-4.22,5.3c-2.57.23-3.36-1.54-3.41-3.81C344.51,229.69,345.46,227.84,348.38,227.33Z"/><path class="cls-1" d="M544.68,346.11a9.26,9.26,0,0,1,0,1.49c-.26,1.51.33,3.82-1.95,3.9-1.75.06-2-2-2.2-3.4-.4-2.94-.62-5.9-.85-8.86-.07-.87.29-1.87,1.17-1.9a2.77,2.77,0,0,1,2,1.17A13.26,13.26,0,0,1,544.68,346.11Z"/><path class="cls-1" d="M583.05,348.69c-.89,1.85.8,5-2.51,5.22s-3.46-2.75-3.48-5c0-2.58.32-6.3,3.32-6.28C583.65,342.69,582.06,346.66,583.05,348.69Z"/><path class="cls-1" d="M559.42,378c.32-2.13-.44-5.35,2.39-5.21s3.82,3.21,3.77,6c-.05,2.4-.54,5.23-3.43,5C558.75,383.5,559.86,380.11,559.42,378Z"/><path class="cls-1" d="M336.23,238.13c.09-2.4.95-4.32,3.65-4.29s4.17,2,4,4.57-1.63,4.55-4.35,4.39S336.2,240.48,336.23,238.13Z"/><path class="cls-1" d="M546.5,382.18c4.29-.47,7.74-.34,10.59,2.17,1.33,1.17,2.16,2.78,1.06,4.44s-3,1.22-4.42.29C551.15,387.36,548.53,385.62,546.5,382.18Z"/><path class="cls-1" d="M632.62,323.38c-2.44-.56-4.16-1.93-4-4.71.16-2.19,1.29-3.84,3.76-3.72,2.89.14,3.88,2.21,4,4.73S635,323.14,632.62,323.38Z"/><path class="cls-1" d="M513.77,356c.16-1.2-.8-3,.92-3.38,1.35-.29,2,1.41,2.75,2.45a4.26,4.26,0,0,1,.44.88c1.09,2.8,2,5.61.41,8.53-.44.78-1.19,1.46-1.95.8-2.22-1.91-1.69-4.83-2.34-7.32A15.66,15.66,0,0,1,513.77,356Z"/><path class="cls-1" d="M525,381.35c-.08,2.56-1.41,2.82-2.78,2.54-2.92-.58-5.4-1.86-5.47-5.34,0-1.62.73-3.32,2.57-2.79A9,9,0,0,1,525,381.35Z"/><path class="cls-1" d="M553,368c.66-2-.31-5.09,2.59-4.83s3.2,3.54,3.45,5.9c.21,2-.83,4.41-3.2,4.24C552.35,373.09,553.9,369.72,553,368Z"/><path class="cls-1" d="M580.94,587.88c-.4,2.34-1.94,3.33-4.21,3.28-1.54,0-3.33-.23-3.2-2.25a4.22,4.22,0,0,1,4.15-4.2C579.61,584.59,580.64,585.94,580.94,587.88Z"/><path class="cls-1" d="M546.38,356.29c.44-1.85-.44-4.69,2.18-4.81,2.17-.1,2.1,2.58,2.33,4.28.33,2.38.85,6.07-1.75,6.29C546.09,362.3,547,358.45,546.38,356.29Z"/><path class="cls-1" d="M346.72,434c-1.05-5,.39-8.29,4-10.72,1.84-1.25,3.78-.87,4.49,1.15.78,2.24-1.54,1.29-2.5,1.69C349.42,427.45,349.39,431.21,346.72,434Z"/><path class="cls-1" d="M565.16,354a7.84,7.84,0,0,1,5.07,6c.37,1.67-.93,2.47-2.44,2.21a7,7,0,0,1-6-5.78C561.48,354.68,563.37,354.1,565.16,354Z"/><path class="cls-1" d="M576.56,355c-.09,1.51-.45,3.29-2,2.9-2.89-.72-4.35-3.2-5-6-.34-1.45.69-2.11,2-2C574.89,350.08,575.94,352.4,576.56,355Z"/><path class="cls-1" d="M409,405.45c-2.05-.37-3.41-1.48-3.24-3.68a2.1,2.1,0,0,1,2.75-2.09c1.93.43,3.44,1.52,3.36,3.69C411.76,405,410.42,405.45,409,405.45Z"/><path class="cls-1" d="M531.29,346.27c-3.34-3.25-5.42-5.89-6.68-9.41C528.43,338.19,529.81,340,531.29,346.27Z"/><path class="cls-1" d="M353.45,457.29c-1.25-6-.63-6.83,4.66-7C357.55,453.4,355,455,353.45,457.29Z"/><path class="cls-1" d="M390,469.1c-1.82-3.24-1.82-5.48-.1-7.59a1,1,0,0,1,1.64.31C392.55,464.19,391.56,466.18,390,469.1Z"/><path class="cls-1" d="M354.28,468.47c-1.63-.09-1.76-1.23-1.76-2.46,0-1.54.65-2.64,2.27-2.72s1.88,1.09,1.82,2.36A2.78,2.78,0,0,1,354.28,468.47Z"/><path class="cls-1" d="M560.05,324.22c3.06,2.54,5.28,4,5.79,7.72C562.64,330.24,561.4,328.06,560.05,324.22Z"/><path class="cls-1" d="M366.35,469.12c-1.69-2-1.39-3.67,0-5.27a1,1,0,0,1,1.67.09C368.94,466,367.92,467.51,366.35,469.12Z"/><path class="cls-1" d="M554.1,329.36a9.89,9.89,0,0,1,5.45,6.74C556.35,334.58,555.07,332.63,554.1,329.36Z"/><path class="cls-1" d="M478.42,397a2,2,0,0,1-2.34,1.95c-1.25,0-1.58-1-1.6-2.07s.4-1.94,1.68-1.95A2,2,0,0,1,478.42,397Z"/><path class="cls-1" d="M364.15,476.73c-2.21,1.38-3.61,1.28-5.45.1C360.43,475.8,361.84,476,364.15,476.73Z"/><path class="cls-1" d="M496.62,362l-.32-.24.26.22Z"/><path class="cls-1" d="M314.57,419.94l-.36.17.34-.2Z"/><path class="cls-3" d="M430.68,447.05v.84c-.77-.26.2-.55,0-.83Z"/></g></g></svg>