<?xml version="1.0" encoding="UTF-8"?>
<svg id="Layer_2" data-name="Layer 2" xmlns="http://www.w3.org/2000/svg" xmlns:xlink="http://www.w3.org/1999/xlink" viewBox="0 0 70.64 42.27">
  <defs>
    <style>
      .cls-1 {
        fill: none;
      }

      .cls-2 {
        fill: #1c1d3f;
      }

      .cls-3 {
        opacity: .7;
      }

      .cls-4 {
        clip-path: url(#clippath);
      }
    </style>
    <clipPath id="clippath">
      <rect class="cls-1" width="70.64" height="42.27"/>
    </clipPath>
  </defs>
  <g id="Layer_1-2" data-name="Layer 1">
    <g class="cls-3">
      <g class="cls-4">
        <path class="cls-2" d="M38.71,36.62c-.28-6.74-4.6-11.29-11.37-12.11-2.1-.25-4.2-.3-6.33-.29,2.28-1.04,4.42-2.3,6.49-3.69,2.05-1.38,4.1-2.75,6.08-4.33-.89.13-1.79.28-2.68.39-7.61.9-14.27-1.22-19.98-6.3-2.49-2.22-4.4-4.9-5.81-7.94C4.4.82,5.03-.08,6.69,0c6,.33,12.01.63,18.02.96,7.18.39,14.36.85,21.54,1.17,3.2.14,6.17.84,8.84,2.63,2.61,1.76,4.53,4.11,5.71,7.03.7,1.75,1.77,3.16,3.4,4.16,1.81,1.11,3.58,2.28,5.37,3.42,1.3.83,1.43,1.7.35,2.77-1.19,1.18-2.4,2.36-3.62,3.51-1.13,1.07-2.57,1.34-4.06,1.52-3.07.38-6.16.61-9.2,1.19-5.39,1.03-9.9,3.65-13.62,7.65-.19.2-.32.49-.71.59M37.05,7.52c-1.26-1.47-2.57-2.28-4.43-2.36-6.03-.25-12.06-.66-18.09-.98-1.09-.06-2.19,0-3.27,0,.98,1.6,2.5,2.14,4.36,2.21,4.45.18,8.89.46,13.33.69,2.64.14,5.29.28,8.1.43"/>
        <path class="cls-2" d="M0,35.41c2.56-1.78,5.19-3.25,7.95-4.49,3.72-1.68,7.56-2.99,11.6-3.65,3.13-.51,6.26-.67,9.34.27,3.58,1.09,5.8,3.89,6.02,7.64.1,1.67.05,3.34-.41,5.08-.65-1.53-1.36-2.93-2.39-4.15-2.18-2.58-5.03-4-8.27-4.67-5.57-1.16-10.99-.25-16.35,1.31-2.27.66-4.48,1.52-6.62,2.54-.23.11-.45.31-.88.12"/>
        <path class="cls-2" d="M31.09,42.27c-2.59-1.96-5.28-3.41-8.26-4.29-3.29-.97-6.66-1.07-10.05-1.07-2.98,0-5.94.18-8.88.71-.21.04-.45.19-.73-.06,2.37-1.15,4.81-1.97,7.32-2.57,3.39-.81,6.82-1.28,10.31-.89,3.76.41,7.11,1.61,9.18,5.09.54.91.86,1.91,1.1,3.09"/>
      </g>
    </g>
  </g>
</svg>