<?xml version="1.0" encoding="UTF-8"?>
<svg id="Layer_2" data-name="Layer 2" xmlns="http://www.w3.org/2000/svg" xmlns:xlink="http://www.w3.org/1999/xlink" viewBox="0 0 51.78 54.37">
  <defs>
    <style>
      .cls-1 {
        fill: none;
      }

      .cls-2 {
        fill: #1c1d3f;
      }

      .cls-3 {
        opacity: .7;
      }

      .cls-4 {
        clip-path: url(#clippath);
      }
    </style>
    <clipPath id="clippath">
      <rect class="cls-1" x="0" width="51.78" height="54.37"/>
    </clipPath>
  </defs>
  <g id="Layer_1-2" data-name="Layer 1">
    <g class="cls-3">
      <g class="cls-4">
        <path class="cls-2" d="M49.53,37.79l-11.15-11.15,11.01-11.01c3.18-3.18,3.18-8.33,0-11.51h0s-3.85-3.85-3.85-3.85c-.35-.35-.93-.36-1.28,0,0,0,0,0,0,0l-16.17,16.16-1.33-1.33L15.77,4.09C12.58.92,7.43.92,4.25,4.09L.38,7.94c-.36.35-.36.93,0,1.28,0,0,0,0,0,.01l21.06,21.06c.36.35.75.67,1.17.95.22.31.46.6.73.86l21.06,21.06c.35.35.93.35,1.28,0l3.85-3.85c3.03-3.16,2.91-8.26,0-11.54"/>
        <path class="cls-2" d="M9.01,53.59L.1,44.68c-.13-.13-.13-.33,0-.46l8.74-8.74c1.14-1.14,2.99-1.14,4.13,0,0,0,0,0,0,0l8.56,8.56c.22.22.22.58,0,.81l-8.74,8.74c-1.04,1.04-2.74,1.04-3.78,0"/>
      </g>
    </g>
  </g>
</svg>