<?xml version="1.0" encoding="UTF-8"?>
<svg id="Layer_2" data-name="Layer 2" xmlns="http://www.w3.org/2000/svg" xmlns:xlink="http://www.w3.org/1999/xlink" viewBox="0 0 148.26 42.72">
  <defs>
    <style>
      .cls-1 {
        fill: none;
      }

      .cls-2 {
        fill: #1c1d3f;
      }

      .cls-3 {
        opacity: .7;
      }

      .cls-4 {
        clip-path: url(#clippath);
      }
    </style>
    <clipPath id="clippath">
      <rect class="cls-1" y="0" width="148.26" height="42.72"/>
    </clipPath>
  </defs>
  <g id="Layer_1-2" data-name="Layer 1">
    <g class="cls-3">
      <g class="cls-4">
        <path class="cls-2" d="M8.77,30.97l4.89-6.18c3.94-4.99,7.89-9.97,11.84-14.96,1.6-2.02,2.79-2.02,4.39,0,3.14,3.97,6.25,7.96,9.41,11.93,1.25,1.57,3.85,1.58,5.09.03,1.69-2.1,3.35-4.22,5.04-6.32,3.79-4.72,8.52-7.38,14.79-7.26,8.64.15,17.29.08,25.93.05,1.07,0,1.79.27,2.45,1.17,1.36,1.87,2.8,3.7,4.32,5.44.82.92.71,1.53-.04,2.41-1.44,1.71-2.75,3.52-4.21,5.39,1.57.42,2.51.14,3.4-1.04,2.99-3.95,6.11-7.81,9.19-11.69,1.7-2.14,2.9-2.14,4.62.04,5.25,6.64,10.48,13.28,15.71,19.93.2.25.36.52.72,1.04-2.56,0-4.94-.27-7.23.06-3.9.56-6.57-.79-8.46-4.17-.77-1.38-1.95-2.54-3.02-3.89-1.74,2.2-3.44,4.29-5.05,6.44-.86,1.15-1.92,1.59-3.33,1.59-21.29-.02-42.58-.02-63.86,0-.81.06-1.58-.31-2.04-.98-1.49-1.98-3.12-3.86-4.54-5.88-.88-1.26-1.34-1.04-2.12.06-1.33,1.84-2.81,3.56-4.18,5.36-.66.94-1.76,1.48-2.91,1.44-3.46-.02-6.92,0-10.81,0M84.89,16.22h-1.78c-5.56,0-11.13.23-16.67-.07-5.18-.27-7.75,2.82-10.26,6.76h1.77c5.23,0,10.48-.19,15.7.06,5.22.25,8.68-2.16,11.23-6.75h.01Z"/>
        <path class="cls-2" d="M68.8,32.66h54.93c.78,0,1.95-.42,2.26.25.36.75-.82,1.22-1.31,1.79-1.58,1.82-2.99,3.79-4.94,5.27-2.16,1.64-4.54,2.67-7.29,2.67H1.62c-.52,0-1.25.27-1.52-.19-.37-.64.44-1.04.77-1.39,2.02-2.15,3.65-4.67,6.15-6.36,1.97-1.35,4.3-2.06,6.69-2.04,18.36.01,36.73.01,55.09,0M16.78,36.01l.3-.05c.31,1.45.62,2.9.93,4.35.1.47.14.95.82,1.02.73.07.92-.39,1.09-.93.47-1.59.96-3.18,1.39-4.78.13-.49.79-1.22-.04-1.49-.96-.32-1.04.65-1.25,1.29-.38,1.18-.43,2.48-1.2,3.77-.34-1.54-.61-2.84-.88-4.14-.11-.54-.25-1.01-1-1.01-.75,0-.86.4-.98.99-.27,1.36-.61,2.7-1.04,4.52-.49-1.9-.86-3.35-1.23-4.79-.05-.45-.45-.77-.9-.72-.07,0-.13.02-.19.04-.74.17-.32.64-.22,1,.54,1.8,1.09,3.59,1.63,5.39.15.51.3.88.94.88.68,0,.74-.43.85-.93.31-1.47.65-2.93.98-4.39M30.92,39.11v1.29c0,.43-.08.88.59.92.72.04.76-.39.76-.92v-2.42c-.02-.85.4-1.36,1.24-1.33.76.03,1.1.54,1.09,1.32-.03.86,0,1.72,0,2.58,0,.54.21.79.76.77.56-.02.57-.39.58-.78v-2.41c0-.86.33-1.53,1.29-1.48.86.04,1.14.67,1.12,1.47-.01.8,0,1.61.02,2.42,0,.54.35.77.84.76.57,0,.48-.48.49-.83.01-.7.02-1.39,0-2.09-.06-2.24-1.31-3.14-3.53-2.57-.39.1-.71.3-1.2.18-3.24-.75-4.04-.08-4.05,3.13h0ZM63.28,33.9c-1.55-.03-2.84.51-3.3,2.04-.48,1.63-.6,3.32.77,4.67,1.31,1.28,4.23,1.09,5.25-.3.27-.37.7-.85.21-1.24-.4-.32-.89-.16-1.22.34-.73,1.09-1.76,1.16-2.83.61-1.17-.61-1.48-3.04-.59-4.19.79-1.03,2.21-1.06,3.38-.06.12.1.2.27.33.34.35.19.77.29,1.05,0,.23-.24.02-.61-.14-.88-.68-1.11-1.74-1.34-2.93-1.32h0ZM46.23,36.44c-1.24-.94-2.37-1.17-3.42-.04-.82.89-.92,2.88-.25,3.96.64,1.04,1.67,1.12,2.72.99.99-.13,2.06-.46,2.17-1.6.16-1.65.08-3.33.08-5,0-.46-.33-.66-.74-.69-.56-.04-.54.39-.56.77-.03.47-.01.94-.01,1.6M79.55,39.89c-.7-.34-1.22.06-1.78.35-.5.26-1.11.15-1.48-.27-.25-.24-.42-.58-.27-.87.27-.56.85-.24,1.3-.27.54-.05,1.08-.05,1.62,0,.83.06,1.02-.27.85-1.05-.31-1.44-1.23-2.1-2.63-2.14-1.4-.04-2.39.81-2.64,2.31-.24,1.5.43,2.88,1.66,3.31,1.38.47,2.53,0,3.37-1.38h0ZM23.76,36.79c.95.5,1.53-.15,2.21-.19.43-.02.96.02,1.07.51.12.58-.4.65-.83.74-.43.08-.85.17-1.27.27-.9.2-1.45.71-1.39,1.68.06,1.05.75,1.48,1.71,1.59,2.28.25,3.16-.65,3.16-3.25,0-.97.15-2-1.16-2.32-1.31-.33-2.51-.38-3.49.97M82.78,36.77c.84.48,1.39,0,2-.14.48-.11,1.09-.09,1.25.44.2.69-.46.7-.92.8-.42.09-.85.16-1.26.27-.82.22-1.32.72-1.29,1.61.03.96.61,1.45,1.5,1.61,2.23.42,3.38-.59,3.36-3.01,0-.98.3-2.13-1.1-2.52-1.31-.36-2.54-.39-3.54.95M54.88,38.22c0-2.08-.84-2.86-2.84-2.58-.69.1-1.75.33-1.62.99.17.82,1.03.24,1.6.04.1-.04.21-.06.31-.07.49,0,1.09.02,1.13.62.05.54-.51.57-.93.65-.42.08-.85.16-1.26.27-.91.23-1.34.82-1.27,1.76.07,1,.73,1.36,1.6,1.48,2.27.31,3.28-.67,3.28-3.16ZM112.71,39.9c-.82-.4-1.31.17-1.89.39-.52.21-1.12.03-1.44-.44-.21-.27-.4-.61-.19-.88.3-.38.8-.15,1.2-.18.54-.05,1.08-.05,1.61,0,1.15.15,1.09-.54.91-1.27-.34-1.36-1.33-1.93-2.64-1.9-1.31.02-2.25.66-2.49,2.05-.31,1.74.24,3.04,1.51,3.54,1.36.52,2.52.09,3.42-1.31ZM103.46,39.44h-.35c-.3-1-.6-2.01-.9-3.01-.17-.58-.6-.74-1.12-.61-.78.2-.23.67-.13.99.4,1.21.89,2.4,1.3,3.62.19.56.42.93,1.11.91.62-.02.82-.36.98-.86.4-1.16.86-2.3,1.26-3.46.13-.38.7-.9-.06-1.17-.69-.24-1.09.19-1.27.85-.26.92-.55,1.83-.82,2.75h0ZM90.91,37.52v2.89c0,.62.42.83.94.88.42.04.94.21,1.21-.18.35-.52-.23-.66-.52-.95-.48-.48-.51-3.15.02-3.56,1.21-.94-1.09-1.1-.39-1.96.15-.19-.33-.48-.66-.54-.57-.1-.59.31-.59.7,0,.9,0,1.81,0,2.73M69.1,39.29v1.13c0,.43-.03.87.62.9.7.04.8-.36.77-.91-.01-.32,0-.64,0-.97.02-1.04-.28-2.25,1.38-2.38.41-.03.39-.46.37-.77-.04-.58-.48-.46-.84-.44-1.55.1-2.27,1.16-2.3,3.43h0ZM97.77,38.63v-2.1c0-.45-.24-.67-.7-.71-.54-.05-.62.27-.62.69v4.19c0,.37.14.6.57.61.42,0,.76-.07.76-.59,0-.7,0-1.4,0-2.1h0Z"/>
        <path class="cls-2" d="M123.93,38.99c3.86-5.41,8.26-10.03,11.73-15.33.05-.08-.07-.27-.21-.77l-4.14,5.14c-2.31,2.89-2.4,2.89-4.68.03-1.09-1.36-2.13-2.72-3.24-4.04-.46-.54-.46-.96,0-1.54,3.49-4.39,6.92-8.81,10.42-13.19,1.11-1.39,2.57-1.36,3.67.01,3.45,4.35,6.86,8.73,10.32,13.07.56.7.65,1.17.04,1.93-3.51,4.37-6.95,8.79-10.4,13.21-.67.85-1.44,1.48-2.56,1.48-3.55.02-7.11,0-10.96,0"/>
        <path class="cls-2" d="M42.78,0c-1.42,1.72-2.54,3.21-3.81,4.58-1.06,1.19-2.57,1.86-4.16,1.86-5.82.01-11.64,0-17.48,0C18.8,2.38,22.13,0,26.33,0h16.45Z"/>
        <path class="cls-2" d="M78.36,0c-2.86,7.07-8.68,7.03-14.92,6.25,1.31-1.69,2.45-3.5,4.05-4.92.83-.79,1.91-1.26,3.06-1.31,2.63-.04,5.26-.02,7.81-.02"/>
        <path class="cls-2" d="M25.9,40.41c.72-.05,1.18-.47,1.23-1.31.02-.34-.02-.75-.49-.54-.64.27-1.66.03-1.79,1.06-.08.63.39.8,1.05.8"/>
        <path class="cls-2" d="M84.8,40.42c.75-.02,1.27-.39,1.33-1.24.02-.3.06-.79-.42-.63-.66.22-1.63.02-1.85.99-.13.61.3.85.93.88"/>
        <path class="cls-2" d="M52.15,40.42c.89,0,1.36-.49,1.46-1.34.04-.34-.05-.72-.49-.54-.64.26-1.6.03-1.8,1.01-.12.6.26.87.84.88"/>
        <path class="cls-2" d="M46.21,38.15c0,1.29-.21,2.15-1.33,2.18-1.11.02-1.42-.85-1.43-1.75-.02-.9.18-1.79,1.34-1.81,1.16-.02,1.42.79,1.42,1.39"/>
        <path class="cls-2" d="M77.14,38.1c-.38-.17-1.09.32-1.12-.47-.04-.65.52-.92,1.07-.94.62-.02,1.24.24,1.19.97-.05.73-.76.27-1.14.44"/>
        <path class="cls-2" d="M25.9,40.41c-.66,0-1.14-.18-1.05-.82.14-1.03,1.15-.79,1.79-1.06.47-.19.51.22.49.54-.05.86-.51,1.28-1.23,1.33"/>
        <path class="cls-2" d="M84.8,40.42c-.63-.02-1.07-.27-.93-.88.21-.97,1.18-.78,1.85-.99.48-.15.44.33.42.63-.06.85-.58,1.21-1.33,1.24"/>
        <path class="cls-2" d="M52.15,40.41c-.58,0-.95-.27-.83-.87.2-.97,1.16-.75,1.8-1.01.45-.18.54.2.49.54-.1.85-.56,1.33-1.46,1.33"/>
        <path class="cls-2" d="M110.35,38.1c-.39-.2-1.2.39-1.18-.54,0-.61.59-.88,1.16-.89.66,0,1.24.34,1.19,1.01-.05.68-.76.26-1.17.42"/>
      </g>
    </g>
  </g>
</svg>