<?xml version="1.0" encoding="UTF-8"?>
<svg id="Layer_2" data-name="Layer 2" xmlns="http://www.w3.org/2000/svg" xmlns:xlink="http://www.w3.org/1999/xlink" viewBox="0 0 233.34 30.77">
  <defs>
    <style>
      .cls-1 {
        fill: none;
      }

      .cls-2 {
        fill: #1c1d3f;
      }

      .cls-3 {
        opacity: .9;
      }

      .cls-4 {
        clip-path: url(#clippath);
      }
    </style>
    <clipPath id="clippath">
      <rect class="cls-1" width="233.34" height="30.77"/>
    </clipPath>
  </defs>
  <g id="Layer_1-2" data-name="Layer 1">
    <g class="cls-3">
      <g class="cls-4">
        <path class="cls-2" d="M28.04,30.61H1.82C.22,30.61,0,29.74,0,28.48.04,19.72.05,10.97,0,2.22,0,.66.47-.11,2.14.01,2.77.07,3.4.01,4.04.01h229.3c-1.44,3.67-3.24,5.39-7.46,5.39-72.3-.14-144.6-.07-216.9-.19-3.67,0-4.8.89-4.52,4.49.34,4.29.15,8.63.06,12.94-.02,2.09.79,2.81,2.91,2.72,3.52-.15,7.11.32,10.58-.13,4.6-.59,7.1,1.84,10.04,5.39"/>
        <path class="cls-2" d="M86.6,22.86c1.02-4.84,1.94-8.8,2.68-12.79.67-3.61,3.51-1.81,5.44-2.17,1.93-.36,2.86.33,3.1,2.5.64,6.4,1.72,12.74,3.23,18.99,2.24-6.28,4.63-12.5,6.64-18.85.82-2.59,2.28-2.92,4.68-2.98,2.49-.07,3.48.84,4.21,3.05,2.15,6.53,4.54,12.95,6.94,19.65-3.24,0-6.26,1.35-7.46-3.16-.62-2.34-3.8-.62-5.78-1.03-1.27-.27-2.32.17-2.45,1.57-.26,2.75-2.1,2.97-4.3,2.74h-.38q-8.73-.17-9.27-8.74c-.1-1.63-.24-3.26-1.2-5.02-.98,3.7-1.98,7.39-2.92,11.1-.41,1.63-.91,2.86-3.15,2.77-2.11-.07-3.13-.59-3.62-2.73-.88-3.95-2.23-7.79-4.02-11.42-.32,3.92-.82,7.85-.91,11.78-.07,2.86-1.97,2.17-3.63,2.27-2.34.15-1.93-1.42-1.77-2.72.68-5.74,1.48-11.48,2.07-17.23.18-1.79.7-2.99,2.65-2.53,2.04.48,5.03-1.73,5.96,1.88,1.04,4.04,2.01,8.1,3.24,13.07M112.33,14.24h-.67c-.46,1.63-.94,3.23-1.37,4.85-.22.88-1.19,1.96-.07,2.63,1.12.62,2.48.62,3.6,0,1.11-.64.22-1.74-.02-2.61-.46-1.64-.97-3.25-1.46-4.87h0Z"/>
        <path class="cls-2" d="M130.94,18.08c0,3.46-.12,6.78.04,10.08.11,2.25-1.15,2.19-2.81,2.28-1.99.09-2.62-.56-2.58-2.51.12-5.54-.02-11.09.09-16.63.02-1.15-.99-3.06,1.15-3.31,1.87-.22,4-.78,5.37,1.51,2.31,3.88,4.82,7.66,7.47,11.83,0-3.88.09-7.27-.03-10.65-.08-2.06.64-2.81,2.8-2.79,2.07.02,2.54.88,2.51,2.69-.07,5.42.03,10.84-.06,16.27,0,1.2.79,3.13-1.14,3.39-1.93.26-4.27,1.02-5.71-1.48-1.78-3.11-3.73-6.12-5.65-9.16-.36-.57-.5-1.42-1.44-1.51"/>
        <path class="cls-2" d="M213.36,19.28c0-2.96.11-5.92-.04-8.87-.1-1.95.68-2.66,2.58-2.64,2.9.04,5.85-.38,8.68.03,5.6.82,8.35,6.72,5.03,11.2-1.56,2.11-1.51,3.44-.23,5.3.53.69.89,1.49,1.06,2.34.15,1.22,2.73,2.77.58,3.49-1.81.61-4.86,1.53-6.08-1.72-.61-1.63-1.2-3.23-1.95-4.79-.46-.96-1.4-1.36-2.53-1.25-1.58.15-1.15,1.35-1.22,2.24-.09.98-.09,1.97,0,2.96.29,2.37-.85,2.82-3.07,2.89-2.52.07-2.96-.95-2.86-3.06.17-2.71.06-5.43.06-8.14M219.17,15.26c.17,1.27-.74,3.47,2.3,3.26,2.25-.15,3.48-1.16,3.53-3.44.05-2.41-1.26-3.13-3.55-3.24-2.7-.13-2.31,1.57-2.29,3.42"/>
        <path class="cls-2" d="M48.99,19.01c.04-7.48,3.95-11.48,11.22-11.46,6.28,0,10.14,4.34,10.1,11.33-.04,7.5-4.01,11.65-11.1,11.62-6.6-.03-10.24-4.13-10.21-11.49M64.25,18.81c0-.62-.06-1.23-.16-1.84-.59-2.45-1.22-5.09-4.55-4.9-3.33.2-4.2,2.67-4.42,5.45-.04.49-.03.98-.03,1.48,0,4.67,1.64,7.19,4.64,7.12,2.94-.04,4.58-2.7,4.53-7.32"/>
        <path class="cls-2" d="M190.13,24.15c.49,2.8.2,5.4-4.39,6.12-6.59,1.04-12.18-.76-14.2-5.62-1.95-4.75-1.81-9.48,1.62-13.62,2.71-3.26,9.38-4.36,14.1-2.94,2.27.68,1.67,2.22,1.59,3.52-.15,2.26-1.85,1.06-2.86.87-3.11-.58-6.17-.86-8.25,1.99-2.04,2.77-1.6,5.87-.31,8.82.96,2.19,2.8,3.03,5.23,2.79,1.08-.11,2.04-.2,2.01-1.59-.04-1.05.41-2.45-1.3-2.58-2.11-.16-1.87-1.55-1.83-2.9.07-2,1.63-1.42,2.78-1.52.63-.05,1.28.08,1.89-.02,3.15-.51,4.43.72,3.93,3.8-.1.73-.02,1.49-.02,2.88"/>
        <path class="cls-2" d="M158.38,7.74c2.73-.72,3.7.72,4.46,3.04,1.79,5.48,3.93,10.86,5.75,16.34.31.93,1.88,2.64.17,3.03s-4.81,1.51-5.55-1.13c-.84-2.97-2.53-2.99-4.94-3.02-2.48-.02-4.03.25-4.81,3.11-.69,2.5-3.6,1.44-5.25,1.04-1.77-.41-.34-2.04,0-3.05,1.86-5.47,3.89-10.88,5.65-16.37.75-2.35,1.84-3.7,4.53-2.99M158.21,13.4c-.82,2.64-1.33,4.33-1.82,6.03-.22.77-.97,1.77.03,2.29,1.14.57,2.48.57,3.62,0,1.01-.52.33-1.54.11-2.3-.49-1.7-1.07-3.37-1.94-6.02"/>
        <path class="cls-2" d="M194.43,19.1c0-.37-.02-.74,0-1.11.27-3.26-1.54-8.01.71-9.47,3.21-2.06,8.04-.47,12.17-.65,1.72-.07,1.61,1.08,1.66,2.23.07,1.32-.23,2.12-1.83,2.04-1.51-.09-3.02.07-4.53-.03-1.89-.12-2.33.78-2.35,2.45-.02,1.67.82,2.15,2.31,2.01.12-.01.25-.01.38,0,1.63.25,3.97-.98,3.91,2.32-.06,3.16-2.36,2.04-3.74,1.94-2.48-.14-3.01.85-2.86,3,.11,1.57.67,2.22,2.27,2.13,1.51-.07,3.03.06,4.53-.03,1.77-.11,2.8.17,2.73,2.33-.06,1.9-.89,2.22-2.54,2.18-3.4-.08-6.81-.16-10.2.02-2.33.12-2.74-.9-2.66-2.86.12-2.84.03-5.67.03-8.5"/>
        <path class="cls-2" d="M29.3,18.99c.03-8.46,7.67-13.59,15.99-10.94,2.4.77,1.39,2.18,1.32,3.49-.12,2.04-1.43,1.45-2.64,1.07-2.95-.93-5.61-.48-7.39,2.09-1.92,2.81-1.72,5.92.07,8.72,1.7,2.68,4.37,2.97,7.34,2.25.84-.2,2.27-1.63,2.66.35.33,1.63.51,3.26-1.96,4.08-8.11,2.58-15.42-2.61-15.39-11.11"/>
        <path class="cls-2" d="M9.9,14.93c-1.54-4.75,1.93-3.78,4.79-4.19,4.81-.7,3.91,2.24,4.25,5.06.5,4.18-1.85,3.87-4.86,4.12-4.28.35-5.04-1.48-4.18-4.99"/>
      </g>
    </g>
  </g>
</svg>