<?xml version="1.0" encoding="UTF-8"?>
<svg id="Layer_2" data-name="Layer 2" xmlns="http://www.w3.org/2000/svg" xmlns:xlink="http://www.w3.org/1999/xlink" viewBox="0 0 146.39 68.3">
  <defs>
    <style>
      .cls-1 {
        fill: none;
      }

      .cls-2 {
        fill: #1c1d3f;
      }

      .cls-3 {
        opacity: .9;
      }

      .cls-4 {
        clip-path: url(#clippath);
      }
    </style>
    <clipPath id="clippath">
      <rect class="cls-1" x="0" width="146.39" height="68.3"/>
    </clipPath>
  </defs>
  <g id="Layer_1-2" data-name="Layer 1">
    <g class="cls-3">
      <g class="cls-4">
        <path class="cls-2" d="M73.09,0c9.61.06,19.15.86,28.59,2.72,7.31,1.44,14.47,3.43,21.32,6.4,5.79,2.5,11.25,5.56,15.89,9.89,3.32,3.1,5.88,6.72,7.01,11.2.74,2.95.63,6.06-.34,8.95-1.53,4.78-4.64,8.4-8.41,11.54-5.14,4.28-11.03,7.26-17.22,9.66-8.01,3.1-16.31,5.1-24.8,6.34-9.8,1.43-19.72,1.91-29.61,1.43-6.02-.31-12.01-.99-17.94-2.03-7.23-1.25-14.31-3.05-21.14-5.71-6.32-2.47-12.32-5.46-17.53-9.88-2.92-2.47-5.41-5.31-7.08-8.8-2.59-5.44-2.4-10.78.43-16.06,2.13-3.98,5.28-7.04,8.87-9.68,5.75-4.2,12.15-7.1,18.86-9.37,7.08-2.37,14.37-4.07,21.78-5.07C58.83.52,65.95,0,73.09,0M77.4.82c-17.94.12-30.58,1.63-42.93,5.22-7.02,2.03-13.8,4.66-20.01,8.6-4.38,2.78-8.32,6.03-11.05,10.55C.54,29.93-.03,34.91,1.98,40.11c1.65,4.27,4.6,7.57,8.12,10.38,5.74,4.59,12.29,7.7,19.18,10.12,11.2,3.93,22.8,5.86,34.61,6.58,8.03.49,16.08.35,24.08-.44,7.83-.77,15.58-2.04,23.15-4.23,7.3-2.11,14.35-4.83,20.77-8.97,4.52-2.91,8.63-6.24,11.34-11.01,2.37-4.17,3.04-8.59,1.6-13.22-1.3-4.17-3.91-7.48-7.12-10.33-5.03-4.49-10.94-7.56-17.15-10.05-5.24-2.06-10.65-3.68-16.17-4.84-10.59-2.29-21.27-3.37-26.98-3.28"/>
        <path class="cls-2" d="M44.98,37.46c-2.99,0-5.98-.02-8.99,0-.73,0-.71-.12-.43-.76,1.03-2.37,2.36-4.62,3.18-7.07.34-1.03.89-1.36,1.98-1.36.57,0,1.14,0,1.7-.02.46,0,.52.15.34.56-.82,1.75-1.6,3.54-2.42,5.28-.44.94-.4,1.01.64,1.01,1.26,0,2.53-.04,3.81,0,.58,0,.78-.16.73-.75-.17-1.74-.27-3.5-.47-5.24-.08-.69.09-.89.8-.88,2.27.02,4.55-.03,6.82-.04q1.16,0,1.28,1.12c.27,2.46.52,4.93.84,7.39.08.65-.11.8-.72.79-3.02-.02-6.04,0-9.06,0v-.03Z"/>
        <path class="cls-2" d="M28.61,37.48h-3.41c-.25,0-.54.08-.68-.24-.59-1.46-1.93-1.97-3.23-2.48-1.46-.57-3.04-.82-4.46-1.53-1.79-.91-2.86-2.31-3.12-4.32-.06-.47.03-.66.54-.66,3.15,0,6.33-.27,9.44.07,2.56.27,5.23.71,7.37,2.5,1.85,1.54,2.03,4.45,1.71,6.21-.08.45-.39.46-.76.46h-3.42Z"/>
        <path class="cls-2" d="M70.55,37.44h-4.11c-.41,0-.67-.06-.71-.57-.25-2.65-.52-5.29-.82-7.94-.07-.59.1-.77.7-.76,2.36.03,4.71.03,7.05,0,.54,0,.72.19.75.71.08,1.16.2,2.31.32,3.47.02.17-.04.42.2.45.23.02.25-.2.32-.37.54-1.31,1.3-2.49,1.96-3.73.16-.37.54-.59.93-.54.85.03,1.71.03,2.56.02.45,0,.64.1.38.58-1.51,2.76-3.01,5.51-4.49,8.25-.21.38-.52.43-.91.43-1.36-.01-2.74,0-4.11,0h-.01Z"/>
        <path class="cls-2" d="M124.35,37.43c-1.32,0-2.64-.02-3.95,0-.47,0-.82-.09-.98-.56-.14-.39-.38-.54-.63-.11-.36.61-.91.65-1.53.63-.72-.03-1.44.03-2.17.02-.25,0-.6.07-.72-.15-.12-.23.16-.46.32-.65.85-1.07,1.69-2.15,2.57-3.2.34-.4.44-.72.18-1.24-.52-1.04-.91-2.14-1.39-3.19-.25-.54-.21-.79.48-.79,3.56.02,7.13,0,10.69,0,.2,0,.44-.09.57.13.13.22-.1.37-.19.54-.03.07-.08.14-.13.19-1.2.97-.97,2.01-.33,3.24.75,1.44,1.27,2.99,1.93,4.48.23.54.03.64-.44.64-1.41.01-2.84.01-4.26.01"/>
        <path class="cls-2" d="M95.9,37.48h-3.57c-.43,0-.62-.08-.51-.57.56-2.67,1.11-5.35,1.63-8.02.11-.54.38-.7.9-.7,2.3,0,4.6,0,6.9-.02.68,0,.91.23.68.88-.27.73.08.88.75.87,1.65-.04,3.31,0,4.96-.02.52,0,.67.14.59.67-.36,2.26-.35,2.26-2.63,2.27-1.19,0-2.38.03-3.57-.02-.69-.03-1.02.17-1.13.9-.15,1.05-.46,2.07-.65,3.11-.1.51-.35.67-.85.66-1.16-.03-2.32,0-3.49,0h0Z"/>
        <path class="cls-2" d="M29.87,26.06c-.85,0-1.71-.03-2.56,0-.57.03-.82-.14-.73-.74.07-.54.05-1.09-.05-1.63-.2-1.2-1-1.8-2.21-1.63-1.63.21-2.8,1.41-2.95,3.19-.06.71-.32.84-.95.82-1.94-.03-3.88-.03-5.82,0-.72,0-.7-.3-.5-.8.69-1.66,1.94-3.03,3.53-3.87,4.41-2.43,9.09-2.72,13.9-1.54.88.24,1.71.64,2.45,1.17.31.16.44.53.3.85-.35,1.22-.68,2.44-.98,3.66-.04.34-.34.58-.68.55-.01,0-.02,0-.03,0-.9-.02-1.81,0-2.72,0v-.02Z"/>
        <path class="cls-2" d="M83.09,37.48h-3.72c-.36,0-.61,0-.51-.5.54-2.68,1.1-5.36,1.63-8.04.11-.59.41-.73.96-.72,2.38,0,4.75,0,7.13-.04.64,0,.73.21.61.78-.54,2.6-1.09,5.21-1.59,7.82-.11.6-.39.74-.94.73-1.19-.03-2.38,0-3.56,0h-.01Z"/>
        <path class="cls-2" d="M83.62,26.06h-5.26c-.43,0-.75,0-.43-.6.91-1.67,1.81-3.35,2.66-5.06.31-.62.68-.94,1.41-.94,2.83.02,5.67,0,8.51-.02.46,0,.59.18.5.61-.38,1.79-.76,3.58-1.1,5.38-.1.54-.43.63-.88.62h-5.42v-.02Z"/>
        <path class="cls-2" d="M67.21,26.07c-1.73,0-3.46-.02-5.19,0-.66,0-.77-.18-.63-.82.37-1.63.68-3.29.97-4.94.1-.54.27-.8.88-.79,2.87.03,5.73.02,8.6,0,.51,0,.74.14.78.69.14,1.77.33,3.53.5,5.32.03.35-.04.59-.5.58-1.81-.02-3.61,0-5.42,0v-.04Z"/>
        <path class="cls-2" d="M103.67,19.54c2.45,0,4.89.02,7.36,0,.6,0,.79.15.62.75-.68,2.52.09,2.07-2.54,2.11-1.65.02-3.3.03-4.95,0-.67-.02-1.06.12-1.14.88-.07.71-.29,1.41-.41,2.12,0,.37-.31.67-.69.67-.03,0-.06,0-.09,0-2.37-.02-4.75-.02-7.12-.01-.4,0-.57-.12-.48-.54.37-1.77.73-3.54,1.07-5.31.1-.53.37-.64.86-.63,2.5.02,5.01,0,7.51,0v-.03Z"/>
        <path class="cls-2" d="M15.35,39.7c1.06,0,2.12.02,3.18,0,.36-.04.7.17.84.5.9,1.65,2.58,1.96,3.85.57.81-.91,1.69-1.14,2.83-1.09,1.7.07,3.41,0,5.11,0,.17,0,.38-.09.49.11.11.2-.08.32-.18.47-1.04,1.63-2.63,2.53-4.39,3.06-4.89,1.48-9.8,1.52-14.66-.24-.24-.1-.47-.21-.7-.33-.6-.27-.86-.71-.59-1.36.04-.1.03-.21.08-.3.23-.35-.19-.82.24-1.15.43-.33.94-.18,1.42-.2.82-.03,1.65,0,2.48,0v-.04Z"/>
        <path class="cls-2" d="M44.46,25.01c-.08,1.18-.86,1.07-1.59,1.05-.52,0-1.03-.04-1.55-.02-.61.03-.69-.17-.48-.72.2-.55.43-1.09.69-1.61.6-1.19,1.19-2.38,1.75-3.59.13-.36.5-.59.89-.54,2.66.02,5.32.03,7.97,0,.57,0,.77.21.82.75.15,1.72.34,3.44.53,5.17.04.39-.09.6-.49.6-2.58,0-5.17-.02-7.74,0-.65-.05-.34-.7-.78-1.07"/>
        <path class="cls-2" d="M97.71,44.02c-2.22,0-4.45-.02-6.67,0-.57,0-.73-.17-.6-.73.23-.98.43-1.97.61-2.96.08-.48.27-.7.8-.7,2.32.02,4.65.02,6.97,0,.58,0,.84.14.64.76-.16.49.09.66.54.66l5.66-.03c.15,0,.31-.03.46-.03,1.03.05,1.03.06.82,1.09-.03.15-.06.3-.09.46-.29,1.6-.52,1.72-2.17,1.52-.85-.06-1.7-.07-2.55-.03h-4.41Z"/>
        <path class="cls-2" d="M116.87,19.5c1.36,0,2.74.02,4.11,0,.39-.05.77.19.88.57.72,1.79,1.45,3.58,2.2,5.36.19.44.03.57-.38.57l-8.45.03c-.35.01-.66-.21-.75-.54-.75-1.78-1.5-3.56-2.29-5.32-.24-.54-.06-.63.42-.63h4.26v-.04Z"/>
        <path class="cls-2" d="M127.17,44.03h-4.18c-.37,0-.65-.07-.8-.45-.44-1.13-.89-2.26-1.36-3.37-.18-.42-.08-.54.36-.56,2.84-.02,5.68-.05,8.52-.08.32-.03.61.17.7.48.49,1.14.99,2.27,1.51,3.4.2.45.08.6-.4.59-1.45-.02-2.9,0-4.35,0h0Z"/>
        <path class="cls-2" d="M50.9,44.05c-1.24,0-2.48-.02-3.72,0-.52.01-.76-.16-.8-.68-.08-1.03-.18-2.06-.31-3.08-.06-.48.1-.64.58-.63,2.58,0,5.17-.01,7.75-.04.5,0,.68.17.72.66.09,1.06.22,2.1.35,3.16.05.43-.1.61-.54.6-1.34-.02-2.69,0-4.03,0v.02Z"/>
        <path class="cls-2" d="M82.6,39.64h3.71c.38,0,.61.06.51.52-.24,1.09-.49,2.16-.7,3.25-.1.51-.38.65-.87.64-2.4-.02-4.8-.02-7.19,0-.51,0-.69-.1-.54-.65.25-1.03.45-2.07.62-3.11.08-.48.27-.65.76-.64,1.24.03,2.47,0,3.71,0h-.01Z"/>
        <path class="cls-2" d="M62.53,28.24q1.77,0,1.39,1.75c-.48,2.22-.98,4.44-1.42,6.67-.12.59-.33.86-.96.82-.67-.05-1.34-.02-2.01,0-.49.01-.7-.08-.57-.66.57-2.55,1.11-5.1,1.61-7.66.13-.67.38-1.02,1.11-.91.29.02.57.02.85,0"/>
        <path class="cls-2" d="M70.05,39.65h3.41c.35,0,.59.06.36.48-.66,1.2-1.32,2.4-1.98,3.6-.17.31-.43.33-.73.33h-4.11c-.36,0-.59-.09-.62-.5-.09-1.11-.2-2.21-.31-3.32-.05-.45.13-.59.57-.58,1.14.02,2.27,0,3.41,0h0Z"/>
        <path class="cls-2" d="M132.87,19.48h1.78c.18,0,.41-.08.48.12.07.2-.15.37-.27.52-1.19,1.45-2.51,2.81-3.55,4.35-.84,1.26-1.8,1.78-3.26,1.54-.49-.04-.98-.04-1.47,0-.46,0-.59-.12-.3-.54,1.34-1.86,2.68-3.74,4.01-5.62.2-.27.54-.4.87-.35h1.71v-.02Z"/>
        <path class="cls-2" d="M110.93,44.03h-1.7c-.17,0-.39.08-.48-.13-.09-.22.07-.34.19-.48.63-.74,1.26-1.49,1.9-2.23.26-.28.49-.58.71-.89.39-.62.96-.73,1.63-.7.9.04,1.8.03,2.71.05.15,0,.34-.05.43.1.13.21-.1.32-.2.45-.82,1.06-1.66,2.1-2.45,3.18-.39.54-.82.79-1.49.7-.41-.03-.83-.03-1.24,0v-.04Z"/>
        <path class="cls-2" d="M44.83,52.36c.3.07.73-.2.88.34.06.23.24.11.38.05.18-.1.36-.19.54-.27,1.45-.51,2.3.17,2.1,1.69-.04.28-.09.56-.15.84-.37,1.61-1.44,2.15-2.93,1.42-.32-.15-.47-.14-.54.21-.04.2-.11.4-.15.6-.25,1.28-.08,1.1-1.42,1.17-.69.04-.84-.2-.7-.84.32-1.43.64-2.87.87-4.32.12-.71.38-1.05,1.13-.89M46.66,53.92c0-.14.06-.42-.3-.49-.24-.07-.5.06-.57.31,0,.02,0,.03-.01.05-.12.44-.24.89-.33,1.34-.09.25.04.52.29.61,0,0,.02,0,.02,0,.32.1.47-.12.57-.37.18-.47.29-.96.32-1.46"/>
        <path class="cls-2" d="M72.65,56.7q-1.68.05-1.32-1.59c.25-1.16.52-2.32.74-3.48.09-.48.3-.64.78-.62.75.04,1.5,0,2.25.04,1.13.05,1.73.66,1.79,1.82.13,2.28-1.11,3.69-3.38,3.83-.28.02-.57,0-.85,0M75,52.44c.1-.48-.1-.71-.48-.8-.38-.09-.54.13-.62.49-.24,1.11-.49,2.21-.73,3.31-.04.19-.15.44.09.54.24.12.53.06.71-.14.25-.26.44-.57.54-.92.26-.81.43-1.64.49-2.49"/>
        <path class="cls-2" d="M35.07,56.69h-1.63c-.41,0-.54-.13-.45-.56.4-1.73.79-3.47,1.15-5.22.09-.44.29-.6.73-.59,1.01.02,2.02,0,3.02,0,.22,0,.5-.06.51.3.01.36-.22.43-.51.44-.33,0-.67.03-1.01.02-.48-.02-.67.18-.76.66-.21,1.15-.23,1.15.95,1.27.2.02.46,0,.45.29.01.22-.16.42-.39.43-.02,0-.04,0-.06,0h-.08c-.4.05-.92-.18-1.19.13-.33.38-.3.97-.42,1.47-.09.37.04.54.42.52h1.01c.22,0,.49-.03.48.34-.02.3-.13.5-.46.51h-1.78,0Z"/>
        <path class="cls-2" d="M35.8,39.61q2.1.04,1.3,1.83c-.32.7-.64,1.39-.96,2.1-.1.33-.41.55-.75.52-.85-.03-1.7-.03-2.55-.02-.4,0-.6-.08-.39-.54.54-1.18,1.06-2.36,1.59-3.53.11-.24.36-.39.62-.35.44,0,.88,0,1.14,0"/>
        <path class="cls-2" d="M57.55,54.67c-.26,0-.52.02-.77,0-.67-.06-.82.27-.7.85.03.18.05.37.27.43.21.06.43-.04.52-.24.39-.75,1.07-.45,1.65-.46.32,0,.37.26.24.5-.17.35-.47.62-.83.77-.88.34-1.84.37-2.74.1-1.29-.37-1.62-2.19-.64-3.36.74-.88,3.1-1.29,4.11-.72.67.38.64.99.54,1.63-.1.64-.6.51-1.03.54h-.62l-.02-.03ZM57.38,53.65c0-.32,0-.6-.34-.57-.44.04-.59.4-.64.75-.06.35.27.29.48.3.43.04.53-.21.5-.49"/>
        <path class="cls-2" d="M97.2,54.66c-.26,0-.52.02-.77,0-.58-.04-.72.27-.65.77.03.2,0,.43.25.52.23.09.48-.02.57-.25,0,0,0,0,0-.01.41-.79,1.13-.43,1.72-.44.31,0,.3.32.16.54-.76,1.17-1.94,1.01-3.06.92-.86-.04-1.57-.7-1.68-1.56-.19-1.06.36-2.11,1.34-2.55,1.01-.44,2.08-.37,3.11-.11.74.19.82.8.75,1.49-.08.77-.6.7-1.12.71h-.62v-.04ZM96.52,54.14c.37.03.61-.09.58-.51,0-.23.04-.51-.31-.5-.46,0-.59.39-.68.73-.09.34.21.27.41.28"/>
        <path class="cls-2" d="M106.99,55.05l1.19-2.09c.06-.14.14-.28.21-.41.2-.26.56-.33.84-.17.38.18.04.45-.06.63-.71,1.26-1.45,2.5-2.18,3.75-.72,1.25-1.82,1.6-3.15,1.53-.2,0-.45.01-.41-.31.01-.21.18-.38.4-.39,1.28-.22,1.33-.29,1.13-1.59-.15-.97-.3-1.94-.48-2.91-.1-.54.05-.79.62-.76.23.02.47.02.7,0,.57-.07.78.21.83.74.07.6.06,1.22.36,1.97"/>
        <path class="cls-2" d="M80.72,54.68h-.77c-.6,0-.92.49-.65,1.03.18.36.54.39.72.04.38-.76,1.04-.51,1.63-.54.36,0,.42.23.33.53-.08.25-.24.46-.45.62-.78.59-2.95.53-3.68-.11-1.01-.88-.75-2.86.49-3.54,1.02-.54,2.22-.64,3.31-.27.7.21.87.77.79,1.48-.08.76-.57.74-1.1.74l-.63.03ZM80.53,53.42s.1-.34-.26-.33c-.48,0-.65.37-.71.77-.06.31.19.29.4.31.4.03.66-.1.57-.74"/>
        <path class="cls-2" d="M60.09,39.66q1.68.07,1.33,1.69c-.15.71-.3,1.41-.44,2.12-.02.33-.31.57-.63.55-.02,0-.04,0-.06,0-.75-.03-1.5-.02-2.25,0-.47,0-.58-.19-.48-.62.2-.91.43-1.81.54-2.72.11-.82.49-1.12,1.28-1.02.24.02.47.02.71,0"/>
        <path class="cls-2" d="M62.26,52.27c.4.04.74.05,1.07.11.35.03.63.28.71.62.07.18-.01.38-.19.45-.03.01-.05.02-.08.02-.39.09-.78.35-1.17.04-.08-.06-.1-.18-.17-.27-.08-.15-.27-.2-.42-.11-.04.02-.08.06-.11.1-.12.12-.12.32,0,.45.03.03.07.06.11.07.3.16.61.28.93.37.6.15.95.5.96,1.14.02.56-.33,1.07-.87,1.24-.97.39-1.98.34-2.99.14-.31-.06-.69-.15-.73-.57-.05-.24.07-.48.3-.58.36-.12.78-.24,1.1.04.27.23.41.63.87.44.12-.05.2-.19.17-.32-.07-.48-.5-.47-.82-.58-.65-.22-1.2-.52-1.14-1.33.05-.82.57-1.18,1.29-1.33.4-.07.82-.08,1.17-.12"/>
        <path class="cls-2" d="M66.2,56.78c-.41-.05-.82-.06-1.23-.15-.32-.07-.68-.17-.74-.58-.06-.26.1-.52.36-.58,0,0,.01,0,.02,0,.38-.06.82-.3,1.13.14.06.11.14.21.24.3.2.15.45.21.61-.03.13-.17.1-.41-.06-.54-.03-.02-.06-.04-.09-.05-.23-.11-.47-.2-.72-.27-.52-.18-.97-.45-.99-1.05-.02-.6.23-1.19.85-1.43.86-.31,1.78-.36,2.67-.16.34.06.61.32.67.67.06.18-.03.37-.21.43-.03.01-.06.02-.09.02-.38.08-.79.37-1.14-.05-.15-.18-.23-.42-.53-.32-.16.03-.27.18-.24.35.04.27.29.34.5.43.21.09.43.16.65.23.58.16.98.46.97,1.12-.01.66-.4,1.03-.96,1.26-.54.2-1.1.29-1.67.27"/>
        <path class="cls-2" d="M83.61,56.7c-1.12,0-1.11,0-.86-1.11.36-1.63.7-3.28,1.04-4.93.06-.27.07-.62.44-.63.54-.02,1.09-.17,1.59.11.19.11.08.38.03.58-.35,1.67-.71,3.33-1.06,5-.2.98-.19.98-1.18.98"/>
        <path class="cls-2" d="M39.69,52.41c.46-.06.97,0,1.22.64.15.38.37.27.57.02.27-.35.57-.68,1.06-.71.15,0,.33-.02.39.17.05.14-.06.24-.15.33-.02.02-.04.03-.06.05q-1.2,1.34-.43,2.94c.39.8.35.86-.52.88-.74.02-1.44.07-1.72-.88-.14-.48-.45-.1-.63.07-.36.32-.64.76-1.18.82-.2.02-.46.09-.57-.1-.11-.2.11-.37.25-.5.35-.34.7-.69,1.09-.99.39-.3.52-.6.19-1.03-.12-.2-.22-.41-.3-.63q-.49-1.07.79-1.06"/>
        <path class="cls-2" d="M91.47,55.06c.5-.87.88-1.53,1.26-2.18.11-.2.2-.43.45-.5s.49-.13.67.04c.17.17-.02.38-.12.54-.6,1.09-1.22,2.15-1.82,3.24-.48.88-1.28.42-1.94.46-.58.04-.45-.54-.52-.87-.18-.91-.31-1.83-.48-2.75-.08-.45,0-.65.53-.66,1.57-.04,1.57-.06,1.78,1.54.04.3.1.59.19,1.13"/>
        <path class="cls-2" d="M52.93,54.55c-.3.04-.54-.07-.51-.5,0-.22-.05-.42-.32-.44-.24-.02-.46.14-.51.39-.18.73-.35,1.45-.52,2.18-.06.27-.14.53-.47.53-.54,0-1.09.16-1.59-.11-.13-.07-.06-.27-.02-.43.24-1.09.47-2.18.72-3.24.12-.5,1.36-.83,1.8-.39.33.35.49.19.75.03.15-.09.32-.16.49-.21.98-.27,1.34.07,1.05,1.03-.14.46.04,1.19-.88,1.18"/>
        <path class="cls-2" d="M100.21,56.71q-1.22.01-.99-1.02c.19-.86.38-1.72.58-2.57.17-.74,1.41-1.1,1.9-.5.25.3.32.18.51.03.14-.11.3-.2.47-.25.42-.11.92-.25,1.26.05.29.27.06.68-.03,1.03-.08.3-.04.64-.26.88-.3.33-.99.12-1.11-.33-.06-.24-.11-.47-.42-.45-.31.02-.38.24-.44.47-.15.52-.27,1.05-.37,1.58-.1.78-.33,1.33-1.1,1.08"/>
        <path class="cls-2" d="M86.67,56.71c-1.18-.01-1.18-.01-.95-1.05.18-.8.4-1.6.5-2.42.09-.68.38-.89,1.05-.86,1.14.06,1.14.02.91,1.1-.15.73-.33,1.46-.42,2.2-.08.74-.33,1.25-1.09,1.03"/>
        <path class="cls-2" d="M15.54,37.52h-2.86c-.23,0-.51.08-.54-.27-.03-.35.25-.46.57-.46h5.8c.23,0,.5-.01.5.33,0,.34-.25.4-.52.4h-2.94Z"/>
        <path class="cls-2" d="M87.41,52.05c-.54.07-.82-.31-.9-.79-.08-.48.65-.97,1.27-.94.47.03.87.15.87.73,0,.58-.54,1.01-1.25.99"/>
      </g>
    </g>
  </g>
</svg>