<?xml version="1.0" encoding="UTF-8"?>
<svg id="Layer_2" data-name="Layer 2" xmlns="http://www.w3.org/2000/svg" xmlns:xlink="http://www.w3.org/1999/xlink" viewBox="0 0 184.9 34.34">
  <defs>
    <style>
      .cls-1 {
        fill: none;
      }

      .cls-2 {
        fill: #1c1d3f;
      }

      .cls-3 {
        opacity: .7;
      }

      .cls-4 {
        clip-path: url(#clippath);
      }
    </style>
    <clipPath id="clippath">
      <rect class="cls-1" x="0" width="184.9" height="34.34"/>
    </clipPath>
  </defs>
  <g id="Layer_1-2" data-name="Layer 1">
    <g class="cls-3">
      <g class="cls-4">
        <path class="cls-2" d="M87.69,17.89c.55-.03.49-.47.49-.8,0-1.45-.03-2.9-.06-4.35-.14-.94-.88-.78-1.5-.78-3.87-.01-7.74-.02-11.62,0-.86,0-1.28-.23-1.2-1.16.07-.88.07-1.78,0-2.65-.08-.96.26-1.26,1.23-1.25,4.11.04,8.23.02,12.34.01.42,0,.89.17,1.26-.22.08-.07.15-.14.23-.22.54-1.48.12-3.01.25-4.52.08-.98-.39-1.37-1.37-1.37-6.51.02-13.02.01-19.53,0-.97,0-1.41.4-1.41,1.37,0,8.88,0,17.75,0,26.63,0,.87.37,1.35,1.31,1.35,6.59-.01,13.18-.01,19.77,0,.92,0,1.35-.42,1.36-1.31,0-1.09,0-2.18,0-3.27,0-1.55-.21-1.76-1.73-1.76-4.17,0-8.33-.02-12.49.01-.86,0-1.27-.22-1.21-1.16.07-1,.07-2.02,0-3.02-.06-.93.32-1.17,1.2-1.16,3.8.04,7.6.02,11.4,0,.43,0,.9.16,1.27-.2.06-.01.08-.05.07-.11l-.05-.06ZM111.1,7.43c.33-.42.81-.3,1.24-.31,1.25-.01,2.51.04,3.76-.02,1.03-.04,2.08.25,3.09-.19.58-.23.53-.74.53-1.21,0-1,.03-2-.01-3-.03-.61.25-1.3-.32-1.82-.21-.33-.55-.3-.87-.3-7.27,0-14.53,0-21.8,0-.86,0-1.26.42-1.26,1.26,0,1.25.03,2.5-.01,3.75-.04,1.16.5,1.58,1.62,1.55,1.94-.04,3.88.04,5.81-.03,1.04-.04,1.29.34,1.28,1.33-.04,6.49-.02,12.97-.02,19.46,0,.44.06.88.09,1.32.2.62.68.7,1.25.7,1.41-.01,2.83-.03,4.24,0,1.05.03,1.43-.44,1.43-1.46-.02-7.01-.02-14.01-.03-21.02M164.59,1.28c.02-.06,0-.12-.06-.15-.12-.42-.45-.55-.84-.55-1.66,0-3.32-.02-4.97,0-.78.01-1,.53-1,1.23,0,8.92,0,17.84,0,26.75,0,.99.46,1.37,1.42,1.35,1.21-.03,2.43,0,3.64,0,1.79,0,1.96-.17,1.97-1.91,0-2.74.06-5.49-.03-8.23-.04-1.21.39-1.48,1.52-1.46,5.38.05,10.76,0,16.13.04,1.14,0,1.6-.38,1.59-1.55-.04-4.92-.03-9.85,0-14.77,0-1.02-.38-1.49-1.43-1.46-1.37.04-2.75.05-4.12,0-1.12-.04-1.49.45-1.48,1.52.04,2.86,0,5.73.03,8.59.01.82-.22,1.15-1.09,1.14-3.36-.04-6.71-.04-10.07,0-.89.01-1.1-.33-1.07-1.13.05-1.33.05-2.66,0-3.99-.05-1.8.19-3.62-.14-5.41M42.7,6.89c4.53,0,9.06,0,13.59.02,1.04,0,1.48-.41,1.46-1.44-.03-1.17-.02-2.34,0-3.51.02-.96-.39-1.4-1.38-1.39-6.51.01-13.02.02-19.53,0-1.06,0-1.43.46-1.41,1.47.04,1.98.01,3.95.01,5.93,0,6.78,0,13.56,0,20.34,0,.83.06,1.59,1.15,1.59,6.67,0,13.35,0,20.02,0,.8,0,1.19-.4,1.18-1.19,0-1.09,0-2.18,0-3.27,0-1.77-.09-1.86-1.84-1.86-4.08,0-8.17,0-12.25,0-.45,0-1.19.19-1.18-.48,0-1.62-.4-3.28.25-4.87,4.19,0,8.39,0,12.58.03,1.12,0,1.52-.47,1.47-1.53-.05-.88-.01-1.77-.01-2.66q0-2.11-2.06-2.11c-3.71,0-7.42,0-11.13,0-.42,0-1.1.14-1.1-.43-.02-1.54-.38-3.12.2-4.64M6.8,1.12h0c-.13-.42-.46-.53-.85-.53-1.62,0-3.23,0-4.85,0C.26.6,0,1.1,0,1.86,0,10.78.01,19.69,0,28.61c0,.92.4,1.32,1.32,1.31,1.37-.02,2.75-.05,4.12,0,1.15.05,1.6-.42,1.59-1.56-.04-2.9.02-5.81-.03-8.71-.02-.98.24-1.35,1.28-1.33,3.23.06,6.47.05,9.7,0,.95-.01,1.27.27,1.25,1.24-.06,2.94,0,5.89-.03,8.83-.01,1.07.37,1.57,1.49,1.53,1.33-.05,2.67-.06,4,0,1.18.05,1.55-.47,1.54-1.59-.03-8.71-.01-17.43-.01-26.14,0-1.32-.27-1.59-1.64-1.6-1.25-.01-2.51,0-3.76,0-1.42,0-1.6.18-1.61,1.61,0,2.86-.02,5.73.01,8.59.01.79-.26,1.05-1.04,1.04-3.36-.03-6.71-.04-10.07,0-.83,0-1.13-.22-1.12-1.09.05-2.78.03-5.57.01-8.35,0-.42.16-.89-.21-1.27M123.24,16.78c.02,3.29,1.67,7.51,5.69,10.59,3.6,2.77,7.77,3.47,12.17,2.9,3.66-.47,6.75-2.12,9.17-4.95.96-1.12.91-1.47-.25-2.32-1.01-.73-2.06-1.42-3.05-2.2-.89-.7-1.51-.73-2.34.2-2.08,2.33-4.78,3.11-7.81,2.49-4.1-.84-6.36-4.03-6.26-8.68.07-3.56,2.06-6.48,5.19-7.6,3.23-1.16,6.7-.24,8.99,2.44.59.69,1.13.78,1.88.32,1.1-.67,2.24-1.29,3.35-1.94,1.51-.88,1.6-1.26.52-2.6-2.73-3.36-6.32-4.99-10.59-5.38-9.32-.85-16.6,5.7-16.66,16.71M180.36,34.34c2.4.02,4.49-2.02,4.54-4.45.05-2.35-2.08-4.52-4.46-4.54-2.41-.02-4.5,2.05-4.51,4.46,0,2.45,2,4.51,4.43,4.53"/>
        <path class="cls-2" d="M6.8,1.12c.37.37.21.84.21,1.26.01,2.78.04,5.57-.01,8.35-.02.87.29,1.1,1.12,1.09,3.35-.04,6.71-.03,10.06,0,.79,0,1.06-.25,1.05-1.04-.04-2.86-.02-5.73-.01-8.59,0-1.42.19-1.6,1.61-1.61,1.25,0,2.51-.01,3.76,0,1.37.02,1.64.28,1.64,1.6,0,8.71-.01,17.43.01,26.14,0,1.12-.36,1.65-1.54,1.59-1.33-.06-2.67-.05-4,0-1.11.04-1.5-.46-1.49-1.53.03-2.94-.02-5.89.03-8.83.02-.97-.3-1.25-1.25-1.24-3.23.05-6.47.06-9.7,0-1.04-.02-1.3.36-1.28,1.33.05,2.9,0,5.81.03,8.71.02,1.15-.44,1.61-1.59,1.56-1.37-.06-2.75-.03-4.12,0C.4,29.93,0,29.52,0,28.61,0,19.69,0,10.78,0,1.86,0,1.1.26.6,1.1.59c1.62-.01,3.23,0,4.85,0,.39,0,.72.11.85.53-.53,3.38-.06,6.76,0,10.14V1.12ZM18.63,12.2s.03-.08.04-.12H7.57v.12h11.06ZM19.63,1.64s-.08,0-.11,0v9.58s.08,0,.11,0V1.64Z"/>
        <path class="cls-2" d="M88.62,6.68c-.36.39-.84.21-1.26.22-4.11.01-8.23.03-12.34-.01-.97-.01-1.31.3-1.23,1.25.07.88.07,1.77,0,2.65-.07.94.35,1.17,1.21,1.17,3.87-.03,7.74-.02,11.62,0,.62,0,1.36-.16,1.5.78-.41.35-.22.82-.24,1.23-.08,1.31.16,2.63-.19,3.92,0,0,.05.06.04.06-.28-.05-.55-.13-.83-.13-4.08,0-8.16,0-12.24,0-.12,0-.29-.06-.35.24h13.35c-.37.36-.84.2-1.27.2-3.8.01-7.6.03-11.4,0-.88,0-1.26.23-1.2,1.16.07,1,.07,2.02,0,3.02-.06.94.35,1.17,1.21,1.16,4.16-.03,8.33-.01,12.49-.01,1.52,0,1.73.21,1.73,1.76,0,1.09,0,2.18,0,3.27,0,.89-.44,1.31-1.36,1.31-6.59-.01-13.18-.01-19.77,0-.94,0-1.31-.47-1.31-1.35,0-8.88,0-17.75,0-26.63,0-.97.44-1.37,1.41-1.37,6.51.02,13.02.02,19.53,0,.97,0,1.45.39,1.37,1.37-.13,1.5.3,3.04-.25,4.52-4.85,0-9.7,0-14.55,0v.22h14.32Z"/>
        <path class="cls-2" d="M42.76,18.24c-.65,1.59-.24,3.25-.25,4.87,0,.67.74.47,1.18.48,4.08.01,8.17,0,12.25,0,1.75,0,1.84.09,1.84,1.86,0,1.09,0,2.18,0,3.27,0,.79-.38,1.19-1.18,1.19-6.67,0-13.35,0-20.02,0-1.09,0-1.15-.76-1.15-1.59,0-6.78,0-13.56,0-20.34,0-1.98.03-3.95-.01-5.93-.02-1.01.35-1.47,1.41-1.47,6.51.02,13.02.02,19.53,0,.99,0,1.4.43,1.38,1.39-.02,1.17-.03,2.34,0,3.51.03,1.03-.42,1.44-1.46,1.44-4.53-.03-9.06-.02-13.59-.02-.74-.12-.67.47-.69.87-.05.88-.02,1.77-.02,2.66,0,1.68.14,1.82,1.77,1.82,3.71,0,7.43.03,11.14-.02,1.02-.01,1.5.26,1.42,1.36-.07,1-.07,2.02,0,3.02.07.95-.25,1.25-1.22,1.23-3.75-.05-7.51-.03-11.26,0-.39,0-.94-.27-1.1.41M42.18,18.85s-.08,0-.12,0v4.06h.12v-4.05Z"/>
        <path class="cls-2" d="M123.24,16.78c.06-11.01,7.34-17.55,16.66-16.71,4.28.39,7.87,2.02,10.59,5.38,1.09,1.34.99,1.71-.52,2.6-1.12.65-2.25,1.27-3.35,1.94-.75.46-1.29.38-1.88-.32-2.3-2.69-5.76-3.6-9-2.44-3.13,1.12-5.12,4.03-5.19,7.6-.09,4.64,2.16,7.84,6.26,8.68,3.03.62,5.73-.16,7.81-2.49.83-.93,1.46-.9,2.35-.2.98.77,2.03,1.46,3.05,2.2,1.17.85,1.21,1.2.25,2.32-2.42,2.82-5.5,4.47-9.17,4.95-4.4.57-8.56-.13-12.17-2.9-4.02-3.08-5.67-7.3-5.69-10.59"/>
        <path class="cls-2" d="M164.59,1.28c.33,1.8.09,3.61.14,5.41.04,1.33.05,2.67,0,3.99-.03.81.18,1.15,1.07,1.14,3.36-.05,6.71-.04,10.07,0,.87,0,1.1-.32,1.09-1.14-.04-2.86.01-5.73-.03-8.59-.02-1.08.36-1.57,1.48-1.53,1.37.05,2.75.04,4.12,0,1.05-.03,1.43.45,1.43,1.46-.02,4.92-.03,9.85,0,14.77,0,1.16-.46,1.56-1.59,1.55-5.38-.03-10.76.01-16.13-.04-1.13-.01-1.56.25-1.52,1.47.09,2.74.03,5.49.03,8.23,0,1.74-.18,1.91-1.97,1.91-1.21,0-2.43-.02-3.64,0-.95.02-1.42-.35-1.42-1.35.01-8.92,0-17.83,0-26.75,0-.7.22-1.22,1-1.23,1.66-.02,3.32,0,4.97,0,.39,0,.71.13.84.55-.5,3.38-.06,6.76-.24,10.14.1,0,.2,0,.29,0V1.28ZM165.34,12.06s0,.08,0,.11h11.06s0-.08,0-.11h-11.06Z"/>
        <path class="cls-2" d="M119.18,6.92c-1,.44-2.06.15-3.09.19-1.25.05-2.5,0-3.76.02-.43,0-.9-.11-1.24.31-.72.21-.4.8-.4,1.22-.02,6.49-.04,12.99.01,19.48,0,1.09-.32,1.41-1.37,1.33-1.12-.09-2.27-.09-3.39,0-1.08.09-1.36-.29-1.35-1.35.05-6.41.03-12.83.02-19.24,0-.39.11-.8-.23-1.4v1.43c0,6.33,0,12.67,0,19,0,.43.12.89-.16,1.3-.03-.44-.09-.88-.09-1.32,0-6.49-.02-12.97.02-19.46,0-.98-.24-1.36-1.28-1.33-1.93.07-3.88,0-5.81.03-1.12.03-1.65-.39-1.62-1.55.04-1.25,0-2.5,0-3.75,0-.83.4-1.26,1.26-1.26,7.27,0,14.53,0,21.8,0,.32,0,.66-.03.87.3.01,1.42-.04,2.85.06,4.26.09,1.26-.4,1.6-1.6,1.55-2.05-.08-4.1-.02-6.15-.02,0,.08,0,.16,0,.24h7.48Z"/>
        <path class="cls-2" d="M180.36,34.34c-2.42-.02-4.43-2.08-4.43-4.53,0-2.41,2.1-4.48,4.51-4.46,2.38.02,4.51,2.19,4.46,4.54-.05,2.43-2.14,4.47-4.54,4.45"/>
        <path class="cls-2" d="M104.22,29.2c.27-.41.15-.86.15-1.3,0-6.33,0-12.67,0-19v-1.43c.33.6.23,1.01.23,1.4,0,6.41.03,12.83-.02,19.24,0,1.06.27,1.44,1.35,1.35,1.12-.09,2.27-.09,3.39,0,1.05.08,1.38-.24,1.37-1.33-.05-6.49-.03-12.99,0-19.48,0-.41-.32-1.01.4-1.22,0,7.01,0,14.01.03,21.02,0,1.01-.38,1.49-1.43,1.46-1.41-.04-2.82-.02-4.24,0-.56,0-1.05-.08-1.25-.7"/>
        <path class="cls-2" d="M42.76,18.23c.16-.67.71-.4,1.1-.41,3.75-.02,7.51-.04,11.26,0,.97.01,1.29-.28,1.22-1.23-.07-1-.07-2.02,0-3.02.08-1.1-.4-1.37-1.42-1.36-3.71.04-7.43.02-11.14.02-1.64,0-1.77-.14-1.77-1.82,0-.89-.03-1.78.02-2.66.02-.4-.05-.99.69-.87-.58,1.52-.22,3.09-.2,4.64,0,.57.68.42,1.1.43,3.71,0,7.42,0,11.13,0q2.06,0,2.06,2.11c0,.89-.04,1.77,0,2.66.06,1.06-.35,1.55-1.47,1.54-4.19-.04-8.39-.03-12.58-.03"/>
        <path class="cls-2" d="M88.62,6.68h-14.32v-.22c4.85,0,9.7,0,14.55,0-.08.07-.15.14-.23.22"/>
        <path class="cls-2" d="M119.18,6.92h-7.48c0-.08,0-.16,0-.24,2.05,0,4.1-.06,6.15.02,1.2.05,1.69-.3,1.6-1.55-.11-1.42-.05-2.84-.06-4.26.58.52.29,1.2.32,1.82.04,1,.02,2,.01,3,0,.48.05.99-.53,1.21"/>
        <path class="cls-2" d="M87.66,18.06h-13.35c.06-.29.23-.24.35-.24,4.08,0,8.16,0,12.25,0,.28,0,.55.08.83.13.01.06-.01.1-.07.11"/>
        <path class="cls-2" d="M164.59,1.28v9.99c-.1,0-.2,0-.29,0,.18-3.38-.26-6.77.24-10.14.06.04.08.09.06.15"/>
        <path class="cls-2" d="M87.69,17.89c.35-1.29.1-2.62.19-3.92.03-.42-.17-.89.24-1.23.02,1.45.06,2.9.06,4.35,0,.33.06.77-.49.8"/>
        <path class="cls-2" d="M18.63,12.2H7.57v-.12h11.1s-.03.08-.04.12"/>
        <path class="cls-2" d="M6.8,1.12v10.14c-.07-3.38-.54-6.77,0-10.14h0"/>
        <path class="cls-2" d="M19.63,1.64v9.58s-.08,0-.11,0V1.64s.08,0,.11,0"/>
        <path class="cls-2" d="M42.18,18.85v4.05h-.12v-4.06s.08,0,.12,0"/>
        <path class="cls-2" d="M165.34,12.06h11.06s0,.08,0,.11h-11.06s0-.08,0-.11"/>
      </g>
    </g>
  </g>
</svg>