<svg xmlns="http://www.w3.org/2000/svg" viewBox="0 0 373.28 351.07"><defs><style>.cls-1{fill:#a47954;}</style></defs><g id="Layer_2" data-name="Layer 2"><g id="Layer_1-2" data-name="Layer 1"><path class="cls-1" d="M223.77,295a1.16,1.16,0,0,0-.93.26c-.78-.09-1.57-.19-2.07.64l-1.92.55-1.08.49-13,2.57-1.06.46-.46,0-.38.25c-5.44.31-10.89.59-16.33.93-8.65.54-17.13-1.07-25.66-2l-.41-.2-.45,0-6.14-1.7a6.33,6.33,0,0,0-1-.25c-2.28-2.27-5.26-1.73-8-2h0L122.8,284.26l-.12-.12-.84-.85-.1-.15L107,272.88c-14.34-13.21-25.8-28.42-33.11-46.67a117,117,0,0,1-7.36-59.91,118.64,118.64,0,0,1,19.13-50.75c6-9,13.42-16.83,21.22-24.29a244.12,244.12,0,0,1,24.05-16h0c9.05-4.13,18.53-7,28-9.94l.06.07c9.24-1.31,18.47-2.64,27.84-2.45l11.58.39c15.9,2.75,31.19,7.22,45.36,15.25,6.64,3.77,12.39,8.77,18.85,12.74h.05c9.12,9.28,17.8,18.93,24.79,30l1.19,1.93q4,8.58,8,17.15a.69.69,0,0,0,.2.75,9.52,9.52,0,0,0,1.83,5.05v0c1.43,8,3.28,15.86,4.2,23.87,3.17,27.62-3.34,53.1-18.12,76.48-3.76,6-8.29,11.43-12.47,17.12l-.07,0L257.48,277l-8.65,6.12L233.73,291l-2,.7Zm75.75-127.71c-.72-18.5-11.81-45.61-34.43-67.56C242.27,77.63,214.81,66.65,183,67c-31.34.38-58.15,12.07-80.13,34-25.84,25.82-37.36,58.1-33.3,93.79,5.78,50.77,48.54,103.6,118.09,102.32C249.46,296,301,244.08,299.52,167.33Z"/><path class="cls-1" d="M277.12,11.21c9.75,6.34,19.76,12.31,28.57,20C341.61,62.32,364,101,371.08,148.31a193.83,193.83,0,0,1,.7,53.19c-2.3,18.34-6.36,36.32-14.8,53-.87,1.74-1.69,3.06-3.53,2.44a3.44,3.44,0,0,1-2.28-4.8c1.68-4.69,3.57-9.31,5.12-14.05,2.67-8.19,5.58-16.34,6.58-25a.4.4,0,0,0,.05-.64c2.43-8.29,2.87-16.81,2.92-25.38a96.9,96.9,0,0,0-.11-21c0-3.7.52-7.44-.86-11L365,155a47,47,0,0,0-2.14-13.83v0c-.41-6.18-2.38-12-4.24-17.82-3-9.42-5.87-18.94-11.39-27.33l.07-.31A156.17,156.17,0,0,0,314.91,50a144.92,144.92,0,0,0-28-24c-8.15-5.83-16.62-11.09-26-14.69l-.14-.07c-3.12-1.5-6.27-2.93-9.35-4.52-2.19-1.12-4.68-2.16-4-5.44l.51-.91c4.78-1.31,8.64,1.81,13,2.69a.8.8,0,0,0,.79.34l15.22,7.71Z"/><path class="cls-1" d="M10.93,253.07c-4.52-14.23-8.22-28.64-9.72-43.56-2.27-22.61-1.56-45,3.88-67.19a32.77,32.77,0,0,1,1.75-5.17c.65-1.52,1.68-3.32,3.53-2.75,1.65.5,2.18,2.39,1.9,4.17-1,6.2-2,12.4-3,18.59-.09,1-.19,2-.28,3a164,164,0,0,0-.21,52.32l.42,3.61c-.25,3.15.68,6.07,1.64,9l0,.1a58.11,58.11,0,0,0,4,15.94c1.05,1.13.78,2.64,1.15,4A97.05,97.05,0,0,0,25,266.89l.09.19a7,7,0,0,0,1.88,3.83l.48,1.27.54.67.14.2a32.92,32.92,0,0,0,5.75,10.21c2.71,5.46,6.5,10.21,10,15.16v-.07a1,1,0,0,0,.61.64l5.47,7.09c7.92,9.09,16.06,17.95,25.93,25,5.7,4.7,11,9.94,17.76,13.24,1.85.89,3.9,2.65,2.28,5.21s-3.81,1.31-5.65.15c-5.11-3.23-10.15-6.58-15.22-9.88l-1.17-.77A45.63,45.63,0,0,0,65,332h0c-5.12-5.19-10.31-10.31-15.34-15.59-8.38-8.78-14.91-19-22.2-28.64l0-.22C21.48,276.26,15.67,265,11,253.13Z"/><path class="cls-1" d="M298.51,283c-.57.64-1.15,1.27-1.73,1.91-10,9.59-20.1,19.12-32.25,26.05-2.45,1.39-5.29,5.25-8.07,1.45-3.15-4.31,2.25-5.09,4.12-7.3l.29-.17a23.22,23.22,0,0,0,8-5.69l.16,0a21.1,21.1,0,0,0,7.81-5.94l.1-.12a14.43,14.43,0,0,0,5.83-5l.11-.13c11.42-9.61,20.07-21.47,27.62-34.2a139.83,139.83,0,0,0,10.78-23.46c.75-2.07,1.91-3.72,4.33-3.07,2.8.74,2.7,3,2.11,5.26-.38,1.43-1,2.8-1.51,4.2-3,8.44-7.6,16.15-11.49,24.18l-.05.12Z"/><path class="cls-1" d="M59,267.07c-2.92-5.19-5.81-10.4-8.78-15.55-1.3-2.25-2-4.64.59-6.09,2.93-1.66,4.39.53,5.63,3a139.28,139.28,0,0,0,44.58,51.86c.54.37,1.14.65,1.72,1,3.12,2.08,6.17,4.27,9.38,6.21,2,1.23,3.67,2.65,2.42,5.07-1.41,2.76-3.71,2.05-5.91.81-2.55-1.43-5.13-2.83-7.69-4.25l-.12-.1C84.54,297.39,70.36,283.66,59,267.07Z"/><path class="cls-1" d="M41.32,176.07a1,1,0,0,0-.11.92c-.09.72-.19,1.44-.28,2.16a79.29,79.29,0,0,0,1.94,24c.82,7-.27,14.63,7.3,19a1.72,1.72,0,0,1,.69,2.15c-.23.79-1,1-1.44.32-1.79-2.42-3.72-.89-5.73-.45-2.31.51-3.62-.51-2.85-2,2.44-4.63-1-2.81-2.88-2.74l-1.21-.25c-1.39-2.38-3.62-4.6-2.29-7.66s4.06-1,6.51-1.48c-1.23-1.51-.28-4-3.57-4-3.55,0-6.58-7.27-5.15-10.64,1.13-2.69,6.8-1.23,5.13-5.23-.77-1.87-5-1.41-6.46-4a2.22,2.22,0,0,1,.07-1c2-1,0-2,0-3,1.34-2.26,3.22-3.54,5.94-3.27,1.46-1.84,2.16-3.65-1.13-3.88-2.93-.21-5.79-1.34-8.78-.68-1.92-.25-2.33-1.36-1.73-3,4.05.26,8.11.86,12.14.67,2.79-.14,3.59,1.21,4.24,3.29l-.25.23A.64.64,0,0,0,41.32,176.07ZM39.82,203c-.59-2.92.15-5.9-2.21-7.46-1.12-.74-3,.87-3.14,2.39C34.24,200.91,36.46,202.09,39.82,203ZM38,184c-.13-1.48-1.09-1.94-2.38-1.77s-2.46.54-2.39,1.92,1.47,1.62,2.57,1.79C37.15,186.13,38,185.43,38,184Z"/><path class="cls-1" d="M63.65,103.31c-1.66,5.55-5.62,9.87-8.06,15a122.12,122.12,0,0,0-8.69,23.81c-3.57.7-6.55-1.82-10-1.83-1.54-2-5.91.09-6-4.09,3.58-.47,6.67,1.41,10,2.14,1.8.39,3.17,1.38,4.2-1.35s-.4-3.13-2.23-3.7c-.92-2.85.83-2.53,2.63-2.25a1.67,1.67,0,0,0,2-1c.28-.77-.31-1.18-.82-1.6-1-.86-3.42-.61-2.81-2.72.5-1.77,2.87.29,3.81-1.28.18-1.51-1-1.92-2-2.42s-.89-1.28-.7-2.09.95-.73,1.59-.79c6.79-.69,6.79-.7,4.4-7.65a16.43,16.43,0,0,0,2.44-.3c3-.8,4.66-3.37,5.82-5.68,1-2-2.17-1.72-3.23-2.76-.38-.38-1.24-.69-.65-1.55a1.79,1.79,0,0,1,2.5-.84C59.85,101.38,61.75,102.35,63.65,103.31Z"/><path class="cls-1" d="M216.36,35.22c-.41,1.42-1.16,3.51.86,3.67,2.85.21,1.51-3.6,3.71-4.82,1.87,2.43,1.22,5.09-.1,7.19-1.56,2.49-3.73.38-5.71,0-10.53-2.12-21.17-3.54-31.94-2.9-3.8.23-5.62-.64-5.22-4.79.27-2.79-.08-5.64-.07-8.47,0-1.06-.36-2.67,1.39-2.6,1.57.07,1.39,1.59,1.43,2.72.08,2.32,0,4.65.15,7,.06,1.22-.43,2.89,1.62,3,1.42.09,3,.54,3.56-1.62s1.49-4.15,2.91-.34c2.88-1.27,7.61.73,8.36-.32,3.42-4.77,3.49-2.69,3.61,1.17.08,2.67,2.56,2.44,4.06,2.77,2.68.59,2.46-2,2.94-3.59l1.93,0c.54,1.57-.75,4.13,1.68,4.59s1.65-2.36,2.67-3.43c.39-.41,1.14-.48,1.73-.7Z"/><path class="cls-1" d="M53.94,88.27c.33-.34.65-.69,1-1,1.55.75,2,3.69,4.59,2.38,1.33,3.24,4.68.25,6.53,2.12.69.68,1.65,1.94,2.82.27.86-1.23.33-2-.44-3-2-2.56-2.45-5.24.48-7.37,1.79-1.31,3.82-.66,5.66.36a2.65,2.65,0,0,0,3.57-.63c1.51-1.64-.21-2.33-1-3.21a16.7,16.7,0,0,0-2.28-1.89l-1-1c-.73-.88-1.5-1.74-2.18-2.66s-2.36-1.34-.87-2.68c1.28-1.14,2.11.2,2.87.92,2.53,2.37,4.88,4.92,7.48,7.2,2.11,1.85,1.52,3.13-.24,4.76-2,1.83-4.83,3-5.16,6.23C72.27,90.59,70.63,93,72,97c1,3.11,0,5.72-3.14,7.18-.36-.88-.88-1.62-.26-2.75.84-1.52,3-3.75-1.15-3.92-2.36-.1-.87-4.07-3.69-3.59a2.67,2.67,0,0,0-1.63.8A1.6,1.6,0,0,0,62.4,97a23.12,23.12,0,0,0,3.42,1.68c-3.47,2.37-5.77,1.55-6.89-2.18-.28-.93,1.12-2.53-1.33-2.82C54.68,93.31,53.89,90.94,53.94,88.27Zm18-.52c1-.28,1.86-.71,1.83-1.91a2.28,2.28,0,0,0-2.43-2.45c-1.28,0-1.55,1.11-1.48,2.07A2.38,2.38,0,0,0,71.9,87.75Z"/><path class="cls-1" d="M282.46,83.21l.47-1.84c5.83,1.89,7.65-3.57,11.11-6h.45a2.49,2.49,0,0,1-.65,3.51c-2.86,2.28-1.76,4,.77,5.62,2.79-4.94,3.41-5.06,7.55-1.54.5.42.94.92,1.41,1.38l.48,2c-.13,2.21-2.32,3.09-3.76,5.07l5.52-.32,2.8.27c2.21,2.62,3.21,5.29.11,8-1.68,1.44-.58,3.35-1,5l.06-.07c-3,.5-1.76-4.66-5-3.82-.71-1-1.42-2.07-2.12-3.11-.9-3.45-4.44-5-5.81-8.13-2.68-2.43-4.82-5.91-9.47-4.29C284.68,85.05,283.45,83.78,282.46,83.21Zm25.3,12.57c-.14-1.1-.63-2.06-1.76-2a2.33,2.33,0,0,0-2.43,2.51,1.8,1.8,0,0,0,2,1.72C306.93,98,307.53,97,307.76,95.78Z"/><path class="cls-1" d="M324.76,151.16c.48-5.7-3.13-10.37-4-15.75-.38-2.39-1.47-4.83,2.64-2.36,1.82,1.1,4.43-1.2,6.37,2,3.6,5.94,4,5.78-1,10.86a3.31,3.31,0,0,0-.79,3.6c.46,1.9,1.81.72,2.83.69,1.27,0,3.1-.71,3.38,1s-1.69,1.67-2.87,1.79c-1.91.19-2.58,1.09-2.42,2.95.21,2.5,1.95,1,3,1.18,2.27.36,4.28,1.08,4.82,3.57.4,1.83.42,4-1.49,4.88s-4.51,2.18-6.66,1.22c-1.63-.72-1.45-3.19-1.69-4.93-.47-3.39-.52-6.85-1.94-10.06A.61.61,0,0,0,324.76,151.16Zm-.95-15.08c1.35,3,.5,6.13,3.42,7.18,1.22.43,2.39-.86,2.46-2.47C329.86,137.32,327.22,137.05,323.81,136.08Zm10.63,26.19a2,2,0,0,0-1.76-2.06,2,2,0,0,0-2.66,2.08c-.08.93.23,1.65,1.27,1.68C332.64,164,333.91,163.8,334.44,162.27Z"/><path class="cls-1" d="M99,63.87a6.41,6.41,0,0,1-2.33-5.7,4.2,4.2,0,0,1,6.56-3.23c1.14.71,1.62,2.92,3.5,1.91s-.14-2.57.09-3.91c.15-.85-.79-2,.54-2.5s1.82.55,2.23,1.4c1.06,2.17,2.3,2.69,4.72,1.63,2.59-1.14,2.33-2.64,1.62-4.66-.14-.39.18-1,.3-1.43,2.44.4,2.88-1.64,3.78-3.12,1.79-.19,3.22.2,4.05,2,.51,1.13,1.44,1.9,2.77,1,1.14-.77.54-1.71.15-2.62a16.16,16.16,0,0,1-1-2.76c-.13-.61.26-1.6,1-1.33,2.48.92,2.44,3.68,3.64,5.54,1,1.61.12,2.74-1.6,3.35C119.14,53,110.69,59,101.88,64.31Zm4.4-4.26c-.44-1.06-.9-2.16-2.24-2.32-1.06-.13-2,0-2.06,1.4a2.09,2.09,0,0,0,2,2.31A2,2,0,0,0,103.38,59.61Z"/><path class="cls-1" d="M222.83,46.12c1.72-.13,3.35,1.82,5.6-.18-3.51-1.51-5.51-4-4.53-7.8a2.3,2.3,0,0,1,3.43-1.72c.26,1-.64,1.37-1,2a3.13,3.13,0,0,0,.25,3.69c.44.5,1,1.05,1.67.68,1.46-.77,1.87-2.28,2-3.71.11-1-2-2.76.69-2.64,1.23.06,1.89,2,1.89,3.58,0,1.25-2.19,2.65.16,3.73,2.19,1,2.71-1.18,3.85-2.19,1.6-1.4,3.11-3.21,5.58-1.58l1.27.37c1.18,1.62,3.18,3,1.38,5.43a1.52,1.52,0,0,0,.67,2.42c1,.35,2.22.36,2.71-.49.61-1,1.72-2,1.36-3.5l1.06-.73,2.91-5.23,2-.06c-.27,5.69-4.67,9.73-6,15l-2,.08c-3.51-3.37-8.47-3.91-12.52-6.33a4.06,4.06,0,0,0-6,2.08H229l-.2.23c-2.43-.26-5.26.79-6.92-2.06ZM242.71,44c-.17-1.51-1.25-1.79-2.45-1.58s-2.19.72-2.22,2.13,1.37,1.92,2.32,1.94A2.21,2.21,0,0,0,242.71,44Z"/><path class="cls-1" d="M270.79,67.21c-.7-2.23-1.38-4.43.76-6.36,1.95-1.76,4-2.35,6.31-.84s2.47,3.72,1.2,6.1c-.57,1.06-2,2.16-.29,3.36,1.49,1,1.89-.76,2.75-1.29,2.45-1.51,4.71-1.41,6.75.66,2.34,2.37,1.11,4.4-.54,6.55s-3.51,3.39-6,1L280,75.12a29.51,29.51,0,0,0-8.18-7Zm15.83,4.45a1.66,1.66,0,0,0-1.85-1.81,1.88,1.88,0,0,0-2,2.18c0,1,.31,2.21,1.42,2.17C285.58,74.16,286.37,73,286.62,71.66Zm-9.9-7.73c.08-1.25-.43-1.94-1.66-1.83s-2.14.78-2,2.17a2,2,0,0,0,1.84,1.92C276.22,66.21,276.49,65,276.72,63.93Z"/><path class="cls-1" d="M267,53.21c.26,3.82-2.19,6.48-4.16,9.28A3.78,3.78,0,0,1,258.39,64c-1.46-.52-4-.89-3.7-2.6.56-2.76,2.59-.15,4-.32l1.79-.24c-1.65-2.48-4.74-4.46-2.52-7.82,1.65-2.49,3.93-3.42,6.85-2.31l1,.45c.34.43.67.86,1,1.28A.81.81,0,0,0,267,53.21Zm-3.14,1.73c0-1.23-.62-1.87-1.82-1.68s-2.17.91-1.86,2.34a2.26,2.26,0,0,0,2.05,1.86C263.76,57.47,263.62,56,263.82,54.94Z"/><path class="cls-1" d="M42.86,159.07c-1.65,1.94-3.69,2.15-6,1.35-2.46-1.16-2.21-2.53.24-2.79,5.4-.57,3.62-5.14,4.63-8,1.13-3.12-1.67-3.24-3.78-3.68-1.77-.36-2.08-1.43-1.08-2.9,8.41,1.32,8.41,1.32,7.74,8.07C44.05,153.79,43.46,156.43,42.86,159.07Z"/><path class="cls-1" d="M127,32.5c2-1,3.48-1.09,4.25,1.6a60.59,60.59,0,0,0,2.94,7.8c.38.87.58,2.58,2.25,2A2.25,2.25,0,0,0,137.81,41c-.21-1-.6-1.89-.76-2.86-.1-.63,0-1.42.89-1.44a1.83,1.83,0,0,1,1.23.6c.81.92-.4,8.44-1.49,8.94-2.21,1-4.2,1.83-5.31-1.7-1.24-4-2.46-8.07-5.16-11.43A1.77,1.77,0,0,0,127,32.5Z"/><path class="cls-1" d="M323.79,199c1.89,4.44,5.9,4.79,9.91,5.17.83.08,1.69.24,1.91,1.25.16.77-.3,1.22-.94,1.52-4.5,2.17-11.86-2.68-11.72-7.72A1.65,1.65,0,0,0,323.79,199Z"/><path class="cls-1" d="M333.66,123.23c.1.49.44,1.1.26,1.43-1.49,2.79-11.12,5.87-14.7,4.58,2.8-2.62,6.77-2.57,9.57-4.74C330.14,123.05,331.93,123.26,333.66,123.23Z"/><path class="cls-1" d="M342.79,171.17a55.68,55.68,0,0,0-11.82.6c-1.09.21-2.58.46-2.82-1.09-.27-1.83,1.39-1.42,2.42-1.52q5.64-.54,11.29-1c2.43-.18,3.07.78,1.71,2.88l-.41,0Z"/><path class="cls-1" d="M26.91,165.91c4.07.43,8.15.83,12.22,1.28,1,.12,2.6-.2,2.4,1.58-.15,1.29-1.42,1.32-2.35,1.1-4.64-1.12-9.56.09-14.1-1.77A2.21,2.21,0,0,1,26.91,165.91Z"/><path class="cls-1" d="M308.87,110.2c5.22-2,9.49-5.91,15-7.37,0,.81.07,1.62.11,2.42-1.16.47-2.39.82-3.14,1.94-2.56,1.36-5.12,2.69-7.66,4.07C311.38,112.23,309.82,112.51,308.87,110.2Z"/><path class="cls-1" d="M324.79,187.21c2.16,5.44,8.13,3.51,11.93,6a16.56,16.56,0,0,1-11.83-.16v0c-1-1.83-1.6-3.71-.73-5.78A.5.5,0,0,0,324.79,187.21Z"/><path class="cls-1" d="M151.53,42.57,146.7,27.22c1.16-1.48,2.33-1.35,3.51,0,.63,5,3,9.78,2.62,15Z"/><path class="cls-1" d="M251.73,55.22c2.46-5.14,3.73-11,8.86-14.52a.49.49,0,0,0,.36.51c-1.52,5.71-5.47,10.27-7.49,15.74Z"/><path class="cls-1" d="M84.9,78.37c-2.87-3-5.82-5.92-8.57-9-.82-.92-3.16-2-1.44-3.43s2.15,1.33,3.34,1.94c2.48,3.29,6.44,5.31,8,9.35Z"/><path class="cls-1" d="M323.72,116.41c2.34,5.58,1.25,8.15-4.06,9.65-1.22.34-2.3.43-2.92-1-.25-.56-.77-1.25-.62-1.69.54-1.59,1.63-.58,2.69-.57,4.57,0,3.85-2.79,2.75-5.67A2.15,2.15,0,0,1,323.72,116.41Z"/><path class="cls-1" d="M232.77,28.46c1.38,2.48-.09,4.33-1.68,5.78-.58.54-2.65.07-2.83-1.17-.26-1.94,1.55-3,2.72-4.33Z"/><path class="cls-1" d="M144.84,28.27c-.47,2.88,2.7,5.67-.22,9.66-1.07-3.8-1.9-6.76-2.73-9.73Z"/><path class="cls-1" d="M106,43.19c-.14.89-.66,2-.31,2.61s2.71.06,1.84,1.87a4,4,0,0,1-2.87,1.51c-1.6.15-1.13-1.64-1.67-2.51-.66-1.07-.09-2.21.21-3.3a.69.69,0,0,0,.66-.35l2.05.08Z"/><path class="cls-1" d="M323.05,216.85c-.86-1.14-2.52-1.72-2.35-3.57.08-.81.08-2.34.59-2.16,3.8,1.41,6.07-3.31,9.65-2.24,2.7.8,4.29,2.56,3.82,5.5s-2.53,4.15-5.38,3.77c-2.11-.28-4.19-.86-6.28-1.3Zm4.86-3.17c.07,1.36,1,1.5,2.08,1.46,1.25-.06,2.36-.53,2.1-2a2.07,2.07,0,0,0-2.1-1.74A2.16,2.16,0,0,0,327.91,213.68Z"/><path class="cls-1" d="M331.51,187.1c-.89-.14-3.4,1-3-2.58.37-3.07.47-6.24,4.51-6.37,3.28-.1,5.48,2,5.4,5.13C338.34,187,335.38,187.45,331.51,187.1Zm4.14-4.26a1.77,1.77,0,0,0-1.75-1.74,2.32,2.32,0,0,0-2.82,2,1.24,1.24,0,0,0,1.3,1.61C333.64,184.66,335,184.55,335.65,182.84Z"/><path class="cls-1" d="M329,197.34a31,31,0,0,1,15.11,1.59C339.46,201,332.83,200.2,329,197.34Z"/><path class="cls-1" d="M174,29.39c3.92,7.25,2.8,9.4-4.76,9.85-1.65.1-3.3.37-4.94.57-4.85.6-6.18-1.23-4.34-7.17,1.86,6.49,6.11,3.92,10,3.71C175.17,36.07,171.38,31.34,174,29.39Z"/><path class="cls-1" d="M117,42.26c0-2.27-.79-4.48,1.23-5.57.58-.31,3.35,1.71,3.23,2.2C121,40.8,119,41.32,117,42.26Z"/><path class="cls-1" d="M83.91,68.34c0-3.17,2-4.3,4.11-4.7,3.06-.58,8.75,6.39,7.85,9.39-.13.44-.5,1.22-.66,1.19a53.9,53.9,0,0,1-9-1.71C84.45,71.91,84,69.77,83.91,68.34Zm6.93.65a2.68,2.68,0,0,0-2.14-2.42c-1.29-.41-1.79.59-1.91,1.63a2.09,2.09,0,0,0,1.9,2.46C89.79,70.83,90.52,70.08,90.84,69Z"/><path class="cls-1" d="M44.63,237.46c-2.4-.05-4.4-1.22-4.7-4.21-.27-2.59,3.83-6.16,6.92-5.7,2.87.43,2.69,3.34,3,5.39C50.16,235.47,47.92,237.34,44.63,237.46ZM45,235c1.74-.21,1.9-1.46,1.82-2.83-.05-.94-.46-1.48-1.53-1.19-1.31.36-2.53.82-2.35,2.51C43.09,234.63,43.91,235,45,235Z"/><path class="cls-1" d="M307.77,104.22c4.23-.24,6.91-3.59,10.43-5.25,1-.48,2.18-1.52,3-.18,1,1.56-.84,1.86-1.65,2.38a42.29,42.29,0,0,1-8.15,4.52c-2,.73-3.13.69-3.6-1.54Z"/><path class="cls-1" d="M147.89,208.14c3.55-4.2,7.89-7.54,12.05-11.08l-.07.08c21.72-11,45.57-3.93,55.74,12.13-16.1-9.63-30.8-10.11-44.08,1.94-6.95,6.31-10.16,14.74-9.81,24.25.52,13.66,7.43,23.22,19.58,28.9s23.42,2,35.24-5.21c-7.17,13.39-28.21,21.17-44.79,17.23-13.07-3.1-28.29-16.52-29-27.66,7.77,14.41,18.67,24.64,35.53,26.26,8,.77,15.8-.58,23-5.42-11.92.72-23-1.37-31.58-10s-11.85-19.42-9.84-31.6c3.14-19,19.65-29.48,44.47-27.32-12.78-7.4-25.19-9.11-37.59-3.48-21.21,9.63-28.23,27-24.51,50.33C137.49,239,138,226,144.49,213c-2.84,1.66-3.54,1.6-5.27,9.77-.29-.06-.84-.11-.84-.2-.36-5.7-2.84-10.38-6.55-14.61-1.51-1.73-1.09-4.05-.89-6.23,2-.83,2,2,3.6,1.91,1.11-1.6-.46-2.69-.94-4-.6-1.56-1.79-3.65,0-4.42,2.6-1.13,2.33,1.93,3.27,3.26,1.39,2-.6,5.64,3.65,6.4,1.72.31-2.25,3.3.95,4.64,1.16-3.28,4-4.78,6.95-6.38,1.18,2-1,3.35-.47,5-.4.14-1.2-.5-1.12.57Z"/><path class="cls-1" d="M194.67,178.93c-3.81-.87-4.65-1.91-1.21-5,2.5-2.26,4-5.6,7.44-7,2.76-1.09.91-3.11.84-4.66-.08-2-2-2.43-3.3-1.94-5.2,1.93-4.82-1.32-4.76-4.67.1-5.33,0-10.66,0-16,0-1.93-.15-3.57-2.89-3.62-3.14-.05-2.42,2.07-2.44,3.74-.06,4.61,0,9.21,0,13.81l-1.61,0c0-3.77,0-7.55,0-11.32,0-2.67.08-5.33,0-8-.09-2-1-3.8-3.19-3.79-2.33,0-2.76,2-2.77,4,0,5,.06,10,0,15,0,1.57.62,3.31-1,5.16-1.6-2.75-.59-5.52-.87-8.08-.13-1.15,0-2.33,0-3.49-.05-2.78.08-6.67-3.26-6.59s-1.66,4-1.77,6.13c-.25,4.82,0,9.66-.05,14.49,0,1.65.08,3.87-2.14,3.84-4.84-.07-6.9,1.53-5.16,6.62a19,19,0,0,0-1.89-2.95c-1.31-1.4-2.83-3-1.14-4.63,1.32-1.31,2.63-3.7,5.33-2.29s3-.31,3.05-2.43c0-5.83,0-11.66.12-17.48,0-1.61-.45-2.06-2-2.71-3.71-1.59-7.57-1.86-12.78-2,5.42-3,9.49-1.46,13.4.07,3.76,1.46,6.82,2.29,9.32-2.26,1.94-3.54,5.82-3.14,7.82.58.75,1.38,1,2.66,3,2.53,4.31-.29,4.74,2.78,4.75,6,0,5,0,10-.11,15,0,2.13.48,3.6,3.08,3.33a6.79,6.79,0,0,1,4.67,1.43c.4.29.72.83,1.15.93,3,.72,3,.69,3.57,4.92a9.37,9.37,0,0,0,.61,1.88c.47,1.32.63,2.6-.61,3.61-.39.31-1.17-.27-2.68-1.84-2.68,1.68,4.4,9.46-4.74,7.25a2.7,2.7,0,0,0-.4.84c-.22,2.4.68,5.72-2.28,6.48s.88-3.83-2.19-3.92Z"/><path class="cls-1" d="M111,229.11c-.1,1.33-.31,2.69,1,3.64a50.89,50.89,0,0,1,18.29,24.07c-3.37.67-6.16,1.2-7.18-4-1.62-8.21-7.7-13.47-13.91-18.44-1.41-1.13-3.81-1.66-2-4.44.58-.89-.34-2.43-1.42-2.88-2.89-1.19-4.38-3-4.31-6.3,0-1.34-1.4-2.32-2.66-.51-.71,1-1,2.88-2.8,1.57a5.94,5.94,0,0,1-2-4.41,2.46,2.46,0,0,1,2.61-3c3.36,0,3.52-2.41,2-3.74-3.78-3.26-2.5-8-4.11-11.93-3.17-7.65-2.18-8-10.36-9.66a6.21,6.21,0,0,1-2.89-1.48,19.26,19.26,0,0,1,11,.84,5.48,5.48,0,0,1,3.49,3.9c2,6.59,3.15,13.47,6.5,19.59,1.45,2.63-.05,5.6,2,8.46a45.59,45.59,0,0,0,6.58,7.84A1,1,0,0,0,111,229.11Z"/><path class="cls-1" d="M123,123.41a30.68,30.68,0,0,0,7.58-14.62c.78-3.16,3-2.61,5-2.59a37.2,37.2,0,0,0,21.55-6.67c2.38-1.6,4.2-3.23,3.5-6.41a4.17,4.17,0,0,1,.11-1.48c.52-3,2.37-5,5.25-5.22,3.67-.33,2.65,3,3.44,5.49,7.35-2,8.79-13.3,18.35-11.85-.74,3-3.15,3.32-5.32,3.94s-4.08,1.48-2.68,4.52c.82,1.76,0,3.68-2,3.7-6.7.07-11.42,4.22-16.14,7.9-7.7,6-16,10.2-25.79,10.79-3.5.21-4.46,1.67-4.92,4.68C130.05,121.11,129.48,121.62,123,123.41Z"/><path class="cls-1" d="M205.75,252c-3.75-2.17-4.8-5.08-6.29-7.57s-3.1-3-5.76-2c-2.87,1.17-5.89,2-9.87,3.23,2.15-3,3.42-5.54,5.38-7.34,3.28-3,2.87-5.38-.07-8.26-1.61-1.57-2.67-3.71-4.07-5.72,3.08-.66,5.63.52,7.89,1.66,3.82,1.94,5.84.45,7.56-2.76,1.13-2.12,2.08-4.44,5.12-5.75,0,3,.18,5.75,0,8.46-.26,3.1.39,5,3.93,5.57,2.89.48,5.65,1.8,8.62,2.79a5.27,5.27,0,0,1-.86.77c-3.67,1.87-9.28.94-11.18,4.34C204.42,242.48,205.75,247.17,205.75,252Zm-14.23-12.19c4.07-.93,7.75-1.58,10,3.93.65-6,3.68-8.43,8.82-9.33-5.62-.53-8.42-3.24-7.92-9.22-2.36,3.85-5.25,5.81-11.31,3.89C196.1,233.62,194.37,236.64,191.52,239.82Z"/><path class="cls-1" d="M101.35,119.21c.88,1.11,1.64,2,2.26,2.88,1.74,2.58,3.21,2.86,4.3-.44.54-1.65,1.27-3.4,3.22-3.18s3,1.87,3.63,3.7a14.67,14.67,0,0,1-5.88,17.21c-1.57,1-1.67,2.32-1.73,3.8-.33,8.1-2.81,15.29-9.07,20.77-1.2,1.05-1,2.31-1.38,3.8-3-3.22-4.6-5.71-.27-9.43,6.07-5.23,8.79-12.31,8.18-20.47-.07-.89-1-2.29.31-2.58,8.13-1.77,1.34-4.81.42-6.88s-3-3.5-4.35-5.35C100.31,122.12,100.08,120.89,101.35,119.21Zm9.32,12.36c2.2-3,2.69-5.37,1.47-8.78C109.66,125.6,109.82,128,110.67,131.57Z"/><path class="cls-1" d="M189.63,110.48c.58,4.33,4,4.54,6.58,6,2.78,1.56,6.35,2.69,7.75,5.4.74,1.41-1.36,4.29,2.71,3.42-.16,2-3.57,2.61-1.23,5.1.58.62-2,1.27-3.08,1.69-1.82.71-1.36-1.26-1.72-2.19-3.24-8.34-10.7-13.44-18.88-12.49-6.57.77-11.31,4.43-14.38,10.28-.5,1-.62,2.66-2.14,2.19s-3.28-1-3.51-3.05a8,8,0,0,0-.39-1.32c4.29-.41,3.07-4.48,4.53-6.78.64-1,1.79-.81,2.7-.46s1.39.82,2-.3c1.79-3.4,3.34-4.47,7.17-3.78,1.33.24,1.31-.32,1.57-.86.55-1.14.35-2.54,2.39-.8,1.83,1.57.89-2.38,2.67-2.2C187.52,113.36,187.52,113.36,189.63,110.48Z"/><path class="cls-1" d="M251.12,130.63c4,4.19,6.71,8.85,12.46,9.68,2.26.32,1.53,2.57,1.59,4.15.31,8.9,1.37,17.59,6.87,25.06.57.77,1,1.78,2.25,1.86,1.33-1.32.34-3.12.95-5.17,6.27,3.7,8,9.38,8.11,15.68-2.64-1.51-3.61-4.49-4.87-7.3-2.1,3.53-4.19,3.86-6.44.69-6.28-8.87-11.61-18.18-11.41-29.56.05-2.78-.57-4.71-3.71-5.41C252.18,139.26,250.75,135.81,251.12,130.63Z"/><path class="cls-1" d="M121.64,141c2.09,3.44,1.49,6.88,3.77,10.38,2.51,3.83-1.72,8.93-3.89,13.14-1.92,3.7-4.17,7.2-3.3,12.29,2.9-4.48,3.42-9.76,7.49-13-.17,7.1-3,13.16-7.4,18.57-.68.83-2,1.34-2.37.06-2-6.25-6.26-12.09-3.75-19.2.13-.39.73-.6,1.42-1.13.65,3.24,1.25,6.27,2,10.15,3.52-5.89.4-11.24,1.09-16.41S121.65,146.63,121.64,141Z"/><path class="cls-1" d="M245.81,188c3.21-5.16,6.29-10.34,4.41-16.8-.33-1.14-1.09-2.42.38-2.88s1.8,1.23,2,2.25a21.54,21.54,0,0,1-1.83,14.08,48.38,48.38,0,0,0-4.72,16.15c-.11.9.22,2.21-1.26,2.24s-1.41-1.26-1.58-2.16c-.61-3.26-1.25-6.53-1.59-9.82-.52-5.13-2.68-9.72-4.4-14.47-.36-1-2.05-2.12-.8-2.94,1.08-.7,2.89-.51,4.33-.35s2.05,1.38,2.23,2.87c.34,2.87-1.07,5.79.21,8.74,1.06-3.69,2.14-7.22,3.1-10.78,1.72-6.44.28-9.91-5.34-13.27-1-.62-2.1-1.55-1.73-2.75.55-1.77,2.95-.5,4.07-2.16.87-1.29,1.41.45,2,1.1,5.87,6.83,4.12,14.22,1.63,21.69C245.9,181.65,244.46,184.54,245.81,188Z"/><path class="cls-1" d="M217.65,174.92c3.65,3.12,1.72,7.29,4.07,10.43,2,2.72,4.84,1.81,7,3.32,1.18.83,1.05-1.54,1.09-2.5.18-4.11-.72-8.31,1.23-12.68,2.31,2.11,2.43,5,2.89,7.22,1.12,5.44,8,9.13,4.41,16.15-2-4.57-4.26-6.2-6.3,0-1.27-2.4-1.83-2.43-4.36-1.66-.4.11-1.39-1.76-2.12-2.73-2.21,1.73-1.89,6.51-5.45,5.65-2.75-.68-1.64-4.52-2.39-6.91C216,186,218.06,180.78,217.65,174.92Z"/><path class="cls-1" d="M242,262.3c2.18-4.72-1.86-9.55,1.68-13.64a.51.51,0,0,0-.12-.46c-7.36-4.32-1.68-5.47,1.58-7.94,2.41-1.82,1.68-5.49,2.24-8.36,1.74,0,1.31,1.77,2.23,2.45a3.35,3.35,0,0,0,3.25.59c1.21-.42.88-1.62,1-2.55a13,13,0,0,0-1.24-6.73c-1.46-3.73-.25-6.78,2.38-9.53a2,2,0,0,1,.84,2.61c-.72,3.44-2.67,7.2,3.5,7.75.93.08,2.08,2.51,2.26,4,.09.73-1.76,2.43-2.73,2.43-3,0-3.47,1.85-4,4-.4,1.64-1.28,3.83-3.12,3.16-6.2-2.22-4.72,2.95-5.72,5.63a20.59,20.59,0,0,0-.6,3.91c-.09.58-.61,1.18.06,1.7,3.5,2.72,3.6,3,1.36,6.8C245.82,259.77,245,261.7,242,262.3Z"/><path class="cls-1" d="M229.31,220.13c4.1,2.71,4,6.66,4.44,10.39.13,1.11.14,2.69,1.69,2.52s1.26-1.6.9-2.76a7.94,7.94,0,0,1-.28-.95,9.41,9.41,0,0,1,1.72-7.53c.6-.82,1.47-.61,2.05.2,1.69,2.4,1.46,5.1.77,7.67-1.14,4.29-11.82,11.71-16.33,11.55-.75,0-2,.25-1.8-.9.28-1.37-.19-3.14,1.28-4.06a10.86,10.86,0,0,1,2.81-1c5.16-1.43,5.5-2.23,2.89-6.79C227.22,224.6,227.22,224.6,229.31,220.13Z"/><path class="cls-1" d="M170.87,178.15c2,2.58,4.44,1.55,6.75.79,2.06-.68,4.21-1.1,5.11,1.22,1,2.68-1.9,3.39-3.34,3.8-2,.58-5,3.3-6.45-1a1.35,1.35,0,0,0-1.21-.54c-3.51,1-3.5,1-4.52-3.75-.13-.63-.32-1.25-.49-1.9-1.38.26-.66,3-2.62,2.06-1.18-.55-1.34-1.78-1.33-3,0-2,0-4,0-6.05,3.46.11,6.63.29,7.83,4.18.39,1.27,1.37,1.16,2.39,1.17,1.25,0,3.16-.44,3.2,1.34,0,2-1.9,1.84-3.4,1.79l-2,0-.22-.26Z"/><path class="cls-1" d="M207.21,175c3.67,3.77,3,8.06,2.37,12.31-.25,1.63-.77,3.22-1,4.85-.05.41.66,1.19,1.14,1.32.87.23,1.1-.61,1-1.23-.88-3.61,2.46-5.08,3.72-7.68,2,1.38,1.79,3,.77,4.77-1.16,2-2.28,4-3.48,6-.76,1.27-2.27,2.19-3.31,1.27-2.82-2.49-6.64-3-9.56-5.32a2.43,2.43,0,0,1-.79-3.37c.93-1.83,1.82-.11,2.63.41,2,1.27,3.66,5,5.64,3.69,2.5-1.63-.59-4.28-1.13-6.54A11.76,11.76,0,0,1,207.21,175Z"/><path class="cls-1" d="M112.79,205.39c3.07-1.18,4,.75,5,2.46s1.6,3.28,2.58,4.81c.4.61,1.44,1.36,2,1.22,1.75-.46.22-1.52.11-2.27s-.46-1.62.34-1.47c6.72,1.27,1.93-3.3,2.28-4.91s-.44-3.71,1.59-4c1.84-.29,1.19,2,1.6,3.1.63,1.68.77,3.53,1.24,5.27.83,3.06.29,7.91-1.38,8.06-3.14.28-7.54.68-9.92-2.86C116.21,211.82,114.62,208.6,112.79,205.39Z"/><path class="cls-1" d="M154.83,175.11c-.71,3.88-4.66,6.61-3.82,11.09.24,1.28-.51,2.44-2,1.5-.51-.32-2.33,0-1.4-1.74,3.58-6.73,2.56-14.4,4.31-21.51.5-2-.34-4.79,3-5.47,1.21-.24.74-1.19,0-1.79-1.76-1.48-.54-2.43.75-2.83,1.52-.48,1.13,1,1.45,1.87,1.14,3,2.18,5.81-1.46,8-.88.53-.69,2,.09,2.66,2.5,2.28.66,3.73-.85,5.28l0,0c-.79.1-1.94-.8-2,1-.07,1.62.72,2,2,2Z"/><path class="cls-1" d="M126.35,186.08c1.47,2.45.35,4.22-.34,6-1,2.62-2.25,5.18-3,7.87-1.75,6-1.65,6-6.87,2.17a13,13,0,0,1-5.26-8.15c-.19-1-.67-2.48,1-2.83,1.22-.24,1.69.77,2,1.74a17.84,17.84,0,0,0,1.38,3.71c1,1.51,1.44,2.77,3.74.29C122,193.67,122.73,189,126.35,186.08Z"/><path class="cls-1" d="M159.94,197.06c-4.83-1.41-9.85-.6-15.17-1.06,1.73-2.73,4.15-1.83,5.95-1.66,3.86.38,4.68-1.5,4.22-4.67-.49-3.35,1.39-5.14,4-6.56s2.64-1.44,4.73,1.34c1.45,1.94,4.19.72,6,2.23-2,1.87-4.25,1.71-6.49.77-1.57-.65-3.26-2.79-4.68-.47a7.64,7.64,0,0,0-.41,7.8,18.16,18.16,0,0,0,1.77,2.36Z"/><path class="cls-1" d="M110,173c3.39,5.44,4.38,11.24,8.64,15,1.62-3.5,2.53-7.6,5.78-11,1.52,3.51-.37,5.82-1.53,8.21-.72,1.48-1.84,2.76-2.61,4.22-.68,1.26-.47,3.43-2.18,3.58-2.19.19-.85-2.54-2-3.37-4.93-3.47-6.2-8.64-6.65-14.19A12.48,12.48,0,0,1,110,173Z"/><path class="cls-1" d="M189.47,95.73c2.19-2.2,5.74-.83,8.12-2.84,1.07-.9,1.43.27,1.54,1,.34,2.34,2.05,2.3,3.73,2.26,1.9-.05,2.26-1.64,2.84-3,1-2.44,2.18-4.83,3.09-7.31.43-1.2,1.24-1.75,2.19-1.37,1.56.62.31,1.59,0,2.34-1.75,3.57-3.37,7.21-5.36,10.65-2.53,4.36-6.93,4.61-9.61.33C194.12,94.86,191.17,97.83,189.47,95.73Z"/><path class="cls-1" d="M210.06,140.59c1.52.51,2.2,3.28,3.7,5.2,1.23,1.57,1.59,3.61.15,5-2.2,2.11-3.8-.64-5.44-1.45-1.13-.56-1.64-2.38-2.41-3.65C203.27,141.09,203.44,140.74,210.06,140.59Z"/><path class="cls-1" d="M236.9,138.1c2.12,1.45,4.2,8,3.22,10.08-.44.95-1.66,1.24-2,.73-1.93-3.23-6.49-3.55-7.87-7.26-.41-1.09-2.25-2.06-.86-3.35s2.36.22,3.43.88l-.06-.05c.51.48-.25,2.32,1.54,1.42l.89-.75,1.11.14-.27-1.16Z"/><path class="cls-1" d="M240.17,107.59c-5.22,3.68-8,3.64-11.09-.85-1.37-2-3.41-.66-4.82-2.3,3.69-1.77,7.16-4.34,10.1.88C235.57,107.46,237.84,106.86,240.17,107.59Z"/><path class="cls-1" d="M85.63,197.57c4.32.82,2.37,5.12,4.53,7.06.4.35-1.49,2.7-1.92,2.09-1.83-2.62-6.57-.43-6.85-3.59C81.24,201.36,84.21,199.32,85.63,197.57Z"/><path class="cls-1" d="M128.59,143.27c4.43-1,7.63-4,11.15-6.32,1.91-1.29,3.72-2.91,6.23-2.9,1.28,0,3.05-.23,2.92,1.72-.16,2.42-1.69.38-2.51.44-2.73.18-4.28,2.14-6.24,3.56C136.74,142.25,133.35,145,128.59,143.27Z"/><path class="cls-1" d="M238.15,215.43c.14.46.15,1.19.45,1.35,2,1,5.19-1.09,6.18,1.57s.53,5.51-.11,8.36c-.37-.15-.77-.21-.79-.34-1.21-7.43-1.2-7.44-9.08-7.46h-13a18.64,18.64,0,0,1,10.55-1.8,4.15,4.15,0,0,0,4.82-2.57Z"/><path class="cls-1" d="M134.89,146.39c7.67.41,10.63-7.91,18.05-9.69C147.4,145.27,140.79,148.84,134.89,146.39Z"/><path class="cls-1" d="M148.77,85.29c1.68.08,3.69,0,3.38,2-.56,3.62-4.39,3.52-6.81,4.93-1.06.62-2.61-.35-2.33-2.17C143.53,86.72,146.12,85.84,148.77,85.29Z"/><path class="cls-1" d="M255,123c-6.57-1.36-14.07.39-19.6-5.7,2.43-2,3.49,0,4.74.64,2.37,1.22,4.51,2.38,7.42,1.42C250.88,118.27,252.72,121.24,255,123Z"/><path class="cls-1" d="M269.44,209.56c-5.08-3.84,0-8.08-1.17-12.41C275.17,201.11,271.4,205.45,269.44,209.56Z"/><path class="cls-1" d="M219.28,86.6c-2,5.51-3.45,11.35-8.74,15C213.16,96.42,213.52,90,219.28,86.6Z"/><path class="cls-1" d="M195.49,179.87a8.75,8.75,0,0,0-1.62,5.51c0,1.4.32,4.36-1.9,3.33-1.4-.65-4.79-1.69-3.9-5.07s3.56-4.31,6.6-4.71C194.94,179.25,195.22,179.56,195.49,179.87Z"/><path class="cls-1" d="M142.2,191c-2.57-5.85-1.52-10,2.55-10.71a3.13,3.13,0,0,1,2.28.4c1,.89-.7,1.4-.64,1.7C147.18,186.4,143,187.72,142.2,191Z"/><path class="cls-1" d="M85.86,160.13c-1.36-.29-1.89-2.28-1.56-2.48,2.73-1.68-.33-7,4.33-7.07,1.59,0,2,2.77,1.68,3C87.69,155.05,90.47,160.07,85.86,160.13Z"/><path class="cls-1" d="M122.83,230.12c1.78,1.63,4,3.33,4.75,6.27a1.24,1.24,0,0,1-1.07,1.43c-1.43.3-3.57-.56-3.45-1.12.64-2.86-4.5-2.65-2.82-5.74C120.7,230.11,121.49,230,122.83,230.12Z"/><path class="cls-1" d="M214.8,138.16c3,.75,3,4.31,5.53,5.44.56-1.51.37-4.18,2.3-3.91,1.77.25,1.69,2.55.83,4.15-1.07,2-2.69,3.1-4.72,1.42S213.09,142.47,214.8,138.16Z"/><path class="cls-1" d="M282.79,191.27c-4.8-.66-8.77-2.94-12.42-5.92C275.45,185.31,279.37,187.79,282.79,191.27Z"/><path class="cls-1" d="M229.47,93.4c.06-2.36,2-2.17,3.19-1.93,1.79.36,3.14,1.93,5.21,2,1,0,1.12,1.67.45,2.45-.92,1.07-3,1.45-3.51.62C233.47,94.53,229.84,96.65,229.47,93.4Z"/><path class="cls-1" d="M117.36,260.18a50.51,50.51,0,0,1-5.37-5.89c-.72-1,.65-2.24,2-1.92,2.89.7,4,3.57,5.88,5.48C120.59,258.61,119.1,259.7,117.36,260.18Z"/><path class="cls-1" d="M95.9,179.06c-5.06,1.14-10.35,2.34-14.23-2.89Z"/><path class="cls-1" d="M263.77,224.17c-2.65-3.73-4.69-7-4.07-11.21.2-1.42.53-2.85,2.23-2.66s1.24,1.78,1.14,2.8C262.73,216.62,264.67,220,263.77,224.17Z"/><path class="cls-1" d="M111.44,150.09c-.32-.41-1-.9-1-1.36a13.86,13.86,0,0,1,3.34-8.25,1.39,1.39,0,0,1,1.35,0c1,1.07,1.28,2.94.37,3.59C113.32,145.65,114.92,149.37,111.44,150.09Z"/><path class="cls-1" d="M259.33,196.16c1.59.1,2.6,1.86,2.3,2.17-2.14,2.21,1.24,6.54-2.9,7.64-1.25.33-3-1.58-2.41-2.18C258.61,201.63,256,197.63,259.33,196.16Z"/><path class="cls-1" d="M237.19,214.54c-2.67-3.14-6-1.32-9.08-1.12-.49,0-.93,1.63-1.61.22-.21-.43.29-1.2.47-1.82,3.37,1,6-3,10.16-.69,3.19,1.78,2.63,2.37,1,4.3Z"/><path class="cls-1" d="M278.84,212.54c-1.39-.49-2.46-1.85-1.82-2.56,1.82-2-1.64-5.65,2.17-6.67,1.4-.38,2.47,1.57,2,2.05C279.14,207.41,282.13,211.08,278.84,212.54Z"/><path class="cls-1" d="M229.27,250.87c4,4.7,6.13,8.7,6.77,15C232.27,261,229.85,257.18,229.27,250.87Z"/><path class="cls-1" d="M114.32,103.65c3.07,3.07,6.09,6.14,5.48,11.52C117.19,111.29,113.93,108.37,114.32,103.65Z"/><path class="cls-1" d="M182.9,100.57c0,1-.84,2.33-1.47,2.16-2.77-.77-4.65,2.63-7.34,1.38a1.27,1.27,0,0,1-.46-2.07c1.84-2.16,5.07-1.21,7.16-3.08C181.21,98.58,182.74,99.13,182.9,100.57Z"/><path class="cls-1" d="M131.14,224.53c-.75-2.6,1-4.08,3.85-4.57,1.21-.2,2.08.43,1.66,1.67-.83,2.46-1.3,5.43-4.7,5.66C130.21,227.41,131,226,131.14,224.53Z"/><path class="cls-1" d="M139.82,160.15c2.28,2.64-.84,6.57,3,8-.6,1.35-1.47,2.14-3.06,1.46s-2.91-1.23-6.08-2.55C141,167.76,137.93,162.73,139.82,160.15Z"/><path class="cls-1" d="M227.05,169.64c-.38,5.69-.31,9.89-3.49,14.43-.44-4.36,1.87-7.71-.33-11.16C222.51,171.78,225.27,171.51,227.05,169.64Z"/><path class="cls-1" d="M222.3,111.24c1.37,1.86,4.73,1.45,5.41,4.4.18.81-1.1,1.58-1.72,1.19-2-1.31-5.17-1.18-6-4C219.59,111.6,221,111.47,222.3,111.24Z"/><path class="cls-1" d="M210.75,135.05a40.73,40.73,0,0,0-14.26,1.47C200.62,132.5,204.68,132,210.75,135.05Z"/><path class="cls-1" d="M257.19,129.88c3.76-2.07,7.26-4.81,13.32-4.94C265.81,128.6,261.91,130.29,257.19,129.88Z"/><path class="cls-1" d="M134.56,151.42c3.5-.66,6.9-2.27,10.38,0C141.45,151.6,138.11,154.32,134.56,151.42Z"/><path class="cls-1" d="M156.8,136.53c5.08-.29,8.83.9,13-.16C166.85,140,162.89,140.16,156.8,136.53Z"/><path class="cls-1" d="M229.24,206.73c-1.18-1.32-4.47-1.62-2.88-4.21s4-3.46,5.84.14C228.64,202.05,230.69,205.28,229.24,206.73Z"/><path class="cls-1" d="M144.46,155.52c1.93,3.86.32,8.22,2,12.11C141.51,164.38,145.07,159.53,144.46,155.52Z"/><path class="cls-1" d="M133.07,181.88c-1.27-9.77-.61-10.82,6-8.68C132,173.14,136,179.21,133.07,181.88Z"/><path class="cls-1" d="M107.7,241.66c-.4,2.23-1.13,2.49-2,2.33-2.67-.47-2.57-3.07-3.52-4.81-.39-.72.84-1.19,1.26-.9C105.1,239.45,106.65,240.81,107.7,241.66Z"/><path class="cls-1" d="M132.61,166.57c-3.07-3-1-6.6-1.21-9.94C133.56,159.73,132.23,163.25,132.61,166.57Z"/><path class="cls-1" d="M139.1,191.93c2.4,3.12,3.88,5.66,1.52,9.28C138.7,198.3,138.59,195.53,139.1,191.93Z"/><path class="cls-1" d="M235.72,245.41c1.37.07,1.62,1.37,1.67,2.43.08,1.57-1.49,1.68-2.49,1.83-1.54.24-1.92-1.17-1.83-2.27C233.17,246.14,234.21,245.49,235.72,245.41Z"/><path class="cls-1" d="M145.21,178c-1.3-3-1.64-4.92,0-6.39.89-.77,3.5-.2,2.55.72C146.35,173.74,146.08,175.23,145.21,178Z"/><path class="cls-1" d="M128.58,223.24c-.08,2-1,2.54-2.28,2.51s-1.68-.86-1.81-1.93c-.23-1.81,1.09-1.7,2.23-1.73S128.66,222.42,128.58,223.24Z"/><path class="cls-1" d="M236.22,171c-.09-1.4-2.48-2.28-.26-3.83.39-.27,1.25-1,1.6-.24C238.2,168.38,238.14,169.84,236.22,171Z"/><path class="cls-1" d="M216.53,158c-2.07-.81-2.53-2.17-2.09-3.87.08-.32.92-.78,1.1-.67C217.19,154.42,217.26,155.92,216.53,158Z"/><path class="cls-1" d="M232.86,139.18l-1.47-3.61.77-.68c1.63,1.26,2.34,3.09,3.07,4.91l-.89.75-1.54-1.42Z"/><path class="cls-1" d="M154.84,172.17c1.93-.64,2.39.79,2.39,2.05,0,1.93-1.61.51-2.4.89l.08.08c0-1,0-2,0-3.06Z"/><path class="cls-1" d="M231.86,133.22c.25-.65-.33-1.84.76-1.9,1.46-.09,1.45,1.38,1.85,2.35l-.86.7-1.82-1.24Z"/><path class="cls-1" d="M229.87,134.21c-.38-2.44.8-1.73,2-1l-.07-.09c.12.59.25,1.17.37,1.76l-.77.68-1.59-1.43Z"/><path class="cls-1" d="M228.81,134.2h1.06l-.07-.07-.37,1.67c-1.07-.28-.75-1-.54-1.7Z"/><path class="cls-1" d="M235.07,135a2,2,0,0,1,1.28,1.75l-.91.81-1.11-1.91Z"/><path class="cls-1" d="M158.25,176.35c.1,0,.24,0,.3,0s.17.24.13.31c-.19.45-.42.44-.58,0C158.07,176.59,158.2,176.45,158.25,176.35Z"/><path class="cls-1" d="M228.89,134.11l-.77-.1.27-.55.42.74Z"/><path class="cls-1" d="M234.47,133.67l.6,1.29-.74.65-.72-1.24Z"/><path class="cls-1" d="M236.35,136.71l.55,1.39-.83.68-.63-1.26Z"/></g></g></svg>